<svg width="539" height="516" viewBox="0 0 539 516" fill="none" xmlns="http://www.w3.org/2000/svg">
<g clip-path="url(#clip0_538_2208)">
<rect width="539" height="516" fill="#9949BF"/>
<path d="M43.95 446.301C39.4283 452.387 40.5396 457.282 42.8216 459.166C45.1036 461.051 50.8272 457.147 53.4175 452.996C55.8707 449.065 56.3373 442.56 54.2171 441.536C52.5047 440.709 48.4716 440.214 43.95 446.301Z" fill="white" fill-opacity="0.14"/>
<path d="M26.5153 446.863C29.0042 441.778 31.441 438.91 35.133 440.027C38.5522 441.904 39.2521 446.775 36.6146 452.168C34.8213 455.835 30.9793 458.471 27.9536 457.082C25.2924 455.443 24.3151 453.947 26.5153 446.863Z" fill="white" fill-opacity="0.14"/>
<path d="M72.1426 456.113C70.1582 451.865 62.9742 453.058 59.0195 456.261C55.4903 459.119 51.8066 463.667 54.3909 466.252C56.9751 468.837 63.0553 468.626 66.9135 465.514C68.3472 464.357 73.8524 459.773 72.1426 456.113Z" fill="white" fill-opacity="0.14"/>
<path d="M74.4139 474.442C72.5948 470.887 67.9201 471.382 64.0879 472.404C59.627 473.594 56.1456 480.399 58.362 483.102C60.5783 485.805 64.4628 485.594 68.2407 484.019C72.2285 482.357 76.1063 477.75 74.4139 474.442Z" fill="white" fill-opacity="0.14"/>
<path d="M42.7065 495.173C48.2709 488.435 54.1722 470.317 46.1636 465.433C40.4062 461.923 28.9492 465.023 26.8844 466.537C24.8197 468.05 23.3555 466.909 20.9486 470.199C18.5417 473.49 19.9756 477.692 22.0116 479.477C24.4722 481.634 30.6038 482.902 29.8786 484.014L33.9837 491.14C37.5748 495.422 41.9278 496.116 42.7065 495.173Z" fill="white" fill-opacity="0.14"/>
<path d="M221.95 452.301C217.428 458.387 218.54 463.282 220.822 465.167C223.104 467.051 228.827 463.147 231.417 458.996C233.871 455.065 234.337 448.56 232.217 447.536C230.505 446.709 226.472 446.214 221.95 452.301Z" fill="white" fill-opacity="0.14"/>
<path d="M204.515 452.863C207.004 447.778 209.441 444.91 213.133 446.027C216.552 447.904 217.252 452.775 214.615 458.168C212.821 461.835 208.979 464.471 205.954 463.082C203.292 461.443 202.315 459.947 204.515 452.863Z" fill="white" fill-opacity="0.14"/>
<path d="M250.143 462.113C248.158 457.865 240.974 459.058 237.019 462.261C233.49 465.119 229.807 469.667 232.391 472.252C234.975 474.837 241.055 474.626 244.913 471.514C246.347 470.357 251.852 465.773 250.143 462.113Z" fill="white" fill-opacity="0.14"/>
<path d="M252.414 480.442C250.595 476.887 245.92 477.382 242.088 478.404C237.627 479.594 234.146 486.399 236.362 489.102C238.578 491.805 242.463 491.594 246.241 490.019C250.229 488.357 254.106 483.75 252.414 480.442Z" fill="white" fill-opacity="0.14"/>
<path d="M220.707 501.173C226.271 494.435 232.172 476.317 224.164 471.433C218.406 467.923 206.949 471.023 204.884 472.537C202.82 474.05 201.356 472.909 198.949 476.199C196.542 479.49 197.976 483.692 200.012 485.477C202.472 487.634 208.604 488.902 207.879 490.014L211.984 497.14C215.575 501.422 219.928 502.116 220.707 501.173Z" fill="white" fill-opacity="0.14"/>
<path d="M399.95 458.301C395.428 464.387 396.54 469.282 398.822 471.167C401.104 473.051 406.827 469.147 409.417 464.996C411.871 461.065 412.337 454.56 410.217 453.536C408.505 452.709 404.472 452.214 399.95 458.301Z" fill="white" fill-opacity="0.14"/>
<path d="M382.515 458.863C385.004 453.778 387.441 450.91 391.133 452.027C394.552 453.905 395.252 458.775 392.615 464.168C390.821 467.835 386.979 470.471 383.954 469.082C381.292 467.443 380.315 465.947 382.515 458.863Z" fill="white" fill-opacity="0.14"/>
<path d="M428.143 468.113C426.158 463.865 418.974 465.058 415.019 468.261C411.49 471.12 407.807 475.667 410.391 478.252C412.975 480.837 419.055 480.626 422.913 477.514C424.347 476.357 429.852 471.773 428.143 468.113Z" fill="white" fill-opacity="0.14"/>
<path d="M430.414 486.442C428.595 482.887 423.92 483.382 420.088 484.404C415.627 485.594 412.146 492.399 414.362 495.102C416.578 497.805 420.463 497.594 424.241 496.019C428.229 494.357 432.106 489.75 430.414 486.442Z" fill="white" fill-opacity="0.14"/>
<path d="M398.707 507.173C404.271 500.436 410.172 482.317 402.164 477.433C396.406 473.923 384.949 477.023 382.884 478.537C380.82 480.05 379.356 478.909 376.949 482.2C374.542 485.49 375.976 489.692 378.012 491.477C380.472 493.634 386.604 494.902 385.879 496.014L389.984 503.14C393.575 507.422 397.928 508.116 398.707 507.173Z" fill="white" fill-opacity="0.14"/>
<path d="M47.6516 361.269C43.13 367.356 44.2413 372.251 46.5233 374.135C48.8053 376.019 54.5288 372.116 57.1191 367.965C59.5724 364.033 60.0389 357.529 57.9188 356.505C56.2063 355.678 52.1733 355.183 47.6516 361.269Z" fill="white" fill-opacity="0.14"/>
<path d="M30.217 361.832C32.7059 356.746 35.1426 353.879 38.8347 354.996C42.2539 356.873 42.9538 361.743 40.3162 367.137C38.523 370.804 34.681 373.439 31.6553 372.051C28.994 370.411 28.0168 368.915 30.217 361.832Z" fill="white" fill-opacity="0.14"/>
<path d="M75.8443 371.082C73.8599 366.834 66.6759 368.027 62.7211 371.23C59.192 374.088 55.5083 378.635 58.0925 381.22C60.6768 383.805 66.757 383.594 70.6152 380.482C72.0488 379.326 77.5541 374.742 75.8443 371.082Z" fill="white" fill-opacity="0.14"/>
<path d="M78.1155 389.411C76.2965 385.856 71.6218 386.35 67.7895 387.373C63.3287 388.563 59.8472 395.367 62.0636 398.071C64.28 400.774 68.1644 400.563 71.9424 398.988C75.9302 397.326 79.808 392.718 78.1155 389.411Z" fill="white" fill-opacity="0.14"/>
<path d="M46.4082 410.141C51.9726 403.404 57.8738 385.285 49.8652 380.402C44.1079 376.891 32.6508 379.991 30.5861 381.505C28.5214 383.019 27.0572 381.877 24.6503 385.168C22.2434 388.459 23.6772 392.661 25.7132 394.445C28.1738 396.602 34.3055 397.87 33.5803 398.983L37.6853 406.108C41.2765 410.39 45.6295 411.084 46.4082 410.141Z" fill="white" fill-opacity="0.14"/>
<path d="M225.652 367.269C221.13 373.356 222.241 378.251 224.523 380.135C226.805 382.019 232.529 378.115 235.119 373.965C237.572 370.033 238.039 363.529 235.919 362.505C234.206 361.678 230.173 361.183 225.652 367.269Z" fill="white" fill-opacity="0.14"/>
<path d="M208.217 367.832C210.706 362.746 213.143 359.879 216.835 360.996C220.254 362.873 220.954 367.743 218.316 373.137C216.523 376.804 212.681 379.439 209.655 378.051C206.994 376.411 206.017 374.915 208.217 367.832Z" fill="white" fill-opacity="0.14"/>
<path d="M253.844 377.081C251.86 372.834 244.676 374.027 240.721 377.23C237.192 380.088 233.508 384.635 236.093 387.22C238.677 389.805 244.757 389.594 248.615 386.482C250.049 385.326 255.554 380.742 253.844 377.081Z" fill="white" fill-opacity="0.14"/>
<path d="M256.116 395.411C254.296 391.856 249.622 392.35 245.79 393.373C241.329 394.563 237.847 401.367 240.064 404.07C242.28 406.774 246.164 406.563 249.942 404.988C253.93 403.326 257.808 398.718 256.116 395.411Z" fill="white" fill-opacity="0.14"/>
<path d="M224.408 416.141C229.973 409.404 235.874 391.285 227.865 386.402C222.108 382.891 210.651 385.991 208.586 387.505C206.521 389.019 205.057 387.877 202.65 391.168C200.243 394.459 201.677 398.661 203.713 400.445C206.174 402.602 212.305 403.87 211.58 404.983L215.685 412.108C219.276 416.39 223.629 417.084 224.408 416.141Z" fill="white" fill-opacity="0.14"/>
<path d="M403.652 373.269C399.13 379.356 400.241 384.251 402.523 386.135C404.805 388.019 410.529 384.116 413.119 379.965C415.572 376.033 416.039 369.529 413.919 368.505C412.206 367.678 408.173 367.183 403.652 373.269Z" fill="white" fill-opacity="0.14"/>
<path d="M386.217 373.832C388.706 368.746 391.143 365.879 394.835 366.996C398.254 368.873 398.954 373.743 396.316 379.137C394.523 382.804 390.681 385.439 387.655 384.051C384.994 382.411 384.017 380.915 386.217 373.832Z" fill="white" fill-opacity="0.14"/>
<path d="M431.844 383.082C429.86 378.834 422.676 380.027 418.721 383.23C415.192 386.088 411.508 390.635 414.093 393.22C416.677 395.805 422.757 395.594 426.615 392.482C428.049 391.326 433.554 386.742 431.844 383.082Z" fill="white" fill-opacity="0.14"/>
<path d="M434.116 401.411C432.296 397.856 427.622 398.35 423.79 399.373C419.329 400.563 415.847 407.367 418.064 410.071C420.28 412.774 424.164 412.563 427.942 410.988C431.93 409.326 435.808 404.718 434.116 401.411Z" fill="white" fill-opacity="0.14"/>
<path d="M402.408 422.142C407.972 415.404 413.873 397.285 405.865 392.402C400.107 388.891 388.65 391.991 386.586 393.505C384.521 395.019 383.057 393.877 380.65 397.168C378.243 400.459 379.677 404.661 381.713 406.445C384.173 408.602 390.305 409.871 389.58 410.983L393.685 418.108C397.276 422.39 401.629 423.084 402.408 422.142Z" fill="white" fill-opacity="0.14"/>
<path d="M132.652 422.269C128.13 428.356 129.241 433.251 131.523 435.135C133.805 437.019 139.529 433.115 142.119 428.965C144.572 425.033 145.039 418.529 142.919 417.505C141.206 416.678 137.173 416.183 132.652 422.269Z" fill="white" fill-opacity="0.14"/>
<path d="M115.217 422.832C117.706 417.746 120.143 414.879 123.835 415.996C127.254 417.873 127.954 422.743 125.316 428.137C123.523 431.804 119.681 434.439 116.655 433.051C113.994 431.411 113.017 429.915 115.217 422.832Z" fill="white" fill-opacity="0.14"/>
<path d="M160.844 432.082C158.86 427.834 151.676 429.027 147.721 432.23C144.192 435.088 140.508 439.635 143.093 442.22C145.677 444.805 151.757 444.594 155.615 441.482C157.049 440.326 162.554 435.742 160.844 432.082Z" fill="white" fill-opacity="0.14"/>
<path d="M163.116 450.411C161.296 446.856 156.622 447.35 152.79 448.373C148.329 449.563 144.847 456.367 147.064 459.071C149.28 461.774 153.164 461.563 156.942 459.988C160.93 458.326 164.808 453.718 163.116 450.411Z" fill="white" fill-opacity="0.14"/>
<path d="M131.408 471.141C136.973 464.404 142.874 446.285 134.865 441.402C129.108 437.891 117.651 440.991 115.586 442.505C113.521 444.019 112.057 442.877 109.65 446.168C107.243 449.459 108.677 453.661 110.713 455.445C113.174 457.602 119.305 458.87 118.58 459.983L122.685 467.108C126.276 471.39 130.629 472.084 131.408 471.141Z" fill="white" fill-opacity="0.14"/>
<path d="M310.652 428.269C306.13 434.356 307.241 439.251 309.523 441.135C311.805 443.019 317.529 439.116 320.119 434.965C322.572 431.033 323.039 424.529 320.919 423.505C319.206 422.678 315.173 422.183 310.652 428.269Z" fill="white" fill-opacity="0.14"/>
<path d="M293.217 428.832C295.706 423.746 298.143 420.879 301.835 421.996C305.254 423.873 305.954 428.743 303.316 434.137C301.523 437.804 297.681 440.439 294.655 439.051C291.994 437.411 291.017 435.915 293.217 428.832Z" fill="white" fill-opacity="0.14"/>
<path d="M338.844 438.082C336.86 433.834 329.676 435.027 325.721 438.23C322.192 441.088 318.508 445.635 321.093 448.22C323.677 450.805 329.757 450.594 333.615 447.482C335.049 446.326 340.554 441.742 338.844 438.082Z" fill="white" fill-opacity="0.14"/>
<path d="M341.116 456.411C339.296 452.856 334.622 453.35 330.79 454.373C326.329 455.563 322.847 462.367 325.064 465.071C327.28 467.774 331.164 467.563 334.942 465.988C338.93 464.326 342.808 459.718 341.116 456.411Z" fill="white" fill-opacity="0.14"/>
<path d="M309.408 477.141C314.972 470.404 320.873 452.285 312.865 447.402C307.107 443.891 295.65 446.991 293.586 448.505C291.521 450.019 290.057 448.877 287.65 452.168C285.243 455.459 286.677 459.661 288.713 461.445C291.173 463.602 297.305 464.87 296.58 465.983L300.685 473.108C304.276 477.39 308.629 478.084 309.408 477.141Z" fill="white" fill-opacity="0.14"/>
<path d="M488.652 434.269C484.13 440.356 485.241 445.251 487.523 447.135C489.805 449.019 495.529 445.115 498.119 440.965C500.572 437.033 501.039 430.529 498.919 429.505C497.206 428.678 493.173 428.183 488.652 434.269Z" fill="white" fill-opacity="0.14"/>
<path d="M471.217 434.832C473.706 429.746 476.143 426.879 479.835 427.996C483.254 429.873 483.954 434.743 481.316 440.137C479.523 443.804 475.681 446.439 472.655 445.051C469.994 443.411 469.017 441.915 471.217 434.832Z" fill="white" fill-opacity="0.14"/>
<path d="M516.844 444.082C514.86 439.834 507.676 441.027 503.721 444.23C500.192 447.088 496.508 451.635 499.093 454.22C501.677 456.805 507.757 456.594 511.615 453.482C513.049 452.326 518.554 447.742 516.844 444.082Z" fill="white" fill-opacity="0.14"/>
<path d="M519.116 462.411C517.296 458.856 512.622 459.35 508.79 460.373C504.329 461.563 500.847 468.367 503.064 471.071C505.28 473.774 509.164 473.563 512.942 471.988C516.93 470.326 520.808 465.718 519.116 462.411Z" fill="white" fill-opacity="0.14"/>
<path d="M487.408 483.141C492.972 476.404 498.873 458.285 490.865 453.402C485.107 449.891 473.65 452.991 471.586 454.505C469.521 456.019 468.057 454.877 465.65 458.168C463.243 461.459 464.677 465.661 466.713 467.445C469.173 469.602 475.305 470.87 474.58 471.983L478.685 479.108C482.276 483.39 486.629 484.084 487.408 483.141Z" fill="white" fill-opacity="0.14"/>
<path d="M43.6516 276.238C39.13 282.324 40.2413 287.219 42.5233 289.104C44.8053 290.988 50.5288 287.084 53.1191 282.933C55.5724 279.002 56.0389 272.497 53.9188 271.473C52.2063 270.646 48.1733 270.151 43.6516 276.238Z" fill="white" fill-opacity="0.14"/>
<path d="M26.217 276.8C28.7059 271.715 31.1426 268.847 34.8347 269.964C38.2539 271.842 38.9538 276.712 36.3162 282.105C34.523 285.772 30.681 288.408 27.6553 287.019C24.994 285.38 24.0168 283.884 26.217 276.8Z" fill="white" fill-opacity="0.14"/>
<path d="M71.8442 286.05C69.8599 281.802 62.6759 282.996 58.7211 286.198C55.192 289.057 51.5083 293.604 54.0925 296.189C56.6768 298.774 62.757 298.563 66.6152 295.451C68.0488 294.294 73.5541 289.71 71.8442 286.05Z" fill="white" fill-opacity="0.14"/>
<path d="M74.1155 304.379C72.2965 300.824 67.6218 301.319 63.7895 302.341C59.3287 303.531 55.8472 310.336 58.0636 313.039C60.28 315.742 64.1644 315.531 67.9424 313.956C71.9302 312.294 75.808 307.687 74.1155 304.379Z" fill="white" fill-opacity="0.14"/>
<path d="M42.4082 325.11C47.9726 318.373 53.8738 300.254 45.8652 295.37C40.1079 291.86 28.6508 294.96 26.5861 296.474C24.5214 297.988 23.0572 296.846 20.6503 300.137C18.2434 303.427 19.6772 307.629 21.7132 309.414C24.1738 311.571 30.3055 312.839 29.5803 313.951L33.6853 321.077C37.2765 325.359 41.6295 326.053 42.4082 325.11Z" fill="white" fill-opacity="0.14"/>
<path d="M221.652 282.238C217.13 288.324 218.241 293.219 220.523 295.104C222.805 296.988 228.529 293.084 231.119 288.933C233.572 285.002 234.039 278.497 231.919 277.473C230.206 276.646 226.173 276.151 221.652 282.238Z" fill="white" fill-opacity="0.14"/>
<path d="M204.217 282.8C206.706 277.715 209.143 274.847 212.835 275.964C216.254 277.842 216.954 282.712 214.316 288.105C212.523 291.772 208.681 294.408 205.655 293.019C202.994 291.38 202.017 289.884 204.217 282.8Z" fill="white" fill-opacity="0.14"/>
<path d="M249.844 292.05C247.86 287.802 240.676 288.996 236.721 292.198C233.192 295.057 229.508 299.604 232.093 302.189C234.677 304.774 240.757 304.563 244.615 301.451C246.049 300.294 251.554 295.71 249.844 292.05Z" fill="white" fill-opacity="0.14"/>
<path d="M252.116 310.379C250.296 306.824 245.622 307.319 241.79 308.341C237.329 309.531 233.847 316.336 236.064 319.039C238.28 321.742 242.164 321.531 245.942 319.957C249.93 318.294 253.808 313.687 252.116 310.379Z" fill="white" fill-opacity="0.14"/>
<path d="M220.408 331.11C225.973 324.373 231.874 306.254 223.865 301.37C218.108 297.86 206.651 300.96 204.586 302.474C202.521 303.988 201.057 302.846 198.65 306.137C196.243 309.427 197.677 313.629 199.713 315.414C202.174 317.571 208.305 318.839 207.58 319.951L211.685 327.077C215.276 331.359 219.629 332.053 220.408 331.11Z" fill="white" fill-opacity="0.14"/>
<path d="M399.652 288.238C395.13 294.324 396.241 299.219 398.523 301.104C400.805 302.988 406.529 299.084 409.119 294.933C411.572 291.002 412.039 284.497 409.919 283.473C408.206 282.646 404.173 282.152 399.652 288.238Z" fill="white" fill-opacity="0.14"/>
<path d="M382.217 288.8C384.706 283.715 387.143 280.847 390.835 281.964C394.254 283.842 394.954 288.712 392.316 294.105C390.523 297.772 386.681 300.408 383.655 299.019C380.994 297.38 380.017 295.884 382.217 288.8Z" fill="white" fill-opacity="0.14"/>
<path d="M427.844 298.05C425.86 293.802 418.676 294.996 414.721 298.198C411.192 301.057 407.508 305.604 410.093 308.189C412.677 310.774 418.757 310.563 422.615 307.451C424.049 306.294 429.554 301.71 427.844 298.05Z" fill="white" fill-opacity="0.14"/>
<path d="M430.116 316.379C428.296 312.824 423.622 313.319 419.79 314.341C415.329 315.532 411.847 322.336 414.064 325.039C416.28 327.742 420.164 327.531 423.942 325.957C427.93 324.294 431.808 319.687 430.116 316.379Z" fill="white" fill-opacity="0.14"/>
<path d="M398.408 337.11C403.972 330.373 409.873 312.254 401.865 307.37C396.107 303.86 384.65 306.96 382.586 308.474C380.521 309.988 379.057 308.846 376.65 312.137C374.243 315.427 375.677 319.629 377.713 321.414C380.173 323.571 386.305 324.839 385.58 325.951L389.685 333.077C393.276 337.359 397.629 338.053 398.408 337.11Z" fill="white" fill-opacity="0.14"/>
<path d="M128.652 337.238C124.13 343.324 125.241 348.219 127.523 350.104C129.805 351.988 135.529 348.084 138.119 343.933C140.572 340.002 141.039 333.497 138.919 332.473C137.206 331.646 133.173 331.151 128.652 337.238Z" fill="white" fill-opacity="0.14"/>
<path d="M111.217 337.8C113.706 332.715 116.143 329.847 119.835 330.964C123.254 332.842 123.954 337.712 121.316 343.105C119.523 346.772 115.681 349.408 112.655 348.019C109.994 346.38 109.017 344.884 111.217 337.8Z" fill="white" fill-opacity="0.14"/>
<path d="M156.844 347.05C154.86 342.802 147.676 343.996 143.721 347.198C140.192 350.057 136.508 354.604 139.093 357.189C141.677 359.774 147.757 359.563 151.615 356.451C153.049 355.294 158.554 350.71 156.844 347.05Z" fill="white" fill-opacity="0.14"/>
<path d="M159.116 365.379C157.296 361.824 152.622 362.319 148.79 363.341C144.329 364.531 140.847 371.336 143.064 374.039C145.28 376.742 149.164 376.531 152.942 374.957C156.93 373.294 160.808 368.687 159.116 365.379Z" fill="white" fill-opacity="0.14"/>
<path d="M127.408 386.11C132.973 379.373 138.874 361.254 130.865 356.37C125.108 352.86 113.651 355.96 111.586 357.474C109.521 358.988 108.057 357.846 105.65 361.137C103.243 364.427 104.677 368.629 106.713 370.414C109.174 372.571 115.305 373.839 114.58 374.951L118.685 382.077C122.276 386.359 126.629 387.053 127.408 386.11Z" fill="white" fill-opacity="0.14"/>
<path d="M306.652 343.238C302.13 349.324 303.241 354.219 305.523 356.104C307.805 357.988 313.529 354.084 316.119 349.933C318.572 346.002 319.039 339.497 316.919 338.473C315.206 337.646 311.173 337.151 306.652 343.238Z" fill="white" fill-opacity="0.14"/>
<path d="M289.217 343.8C291.706 338.715 294.143 335.847 297.835 336.964C301.254 338.842 301.954 343.712 299.316 349.105C297.523 352.772 293.681 355.408 290.655 354.019C287.994 352.38 287.017 350.884 289.217 343.8Z" fill="white" fill-opacity="0.14"/>
<path d="M334.844 353.05C332.86 348.802 325.676 349.996 321.721 353.198C318.192 356.057 314.508 360.604 317.093 363.189C319.677 365.774 325.757 365.563 329.615 362.451C331.049 361.294 336.554 356.71 334.844 353.05Z" fill="white" fill-opacity="0.14"/>
<path d="M337.116 371.379C335.296 367.824 330.622 368.319 326.79 369.341C322.329 370.531 318.847 377.336 321.064 380.039C323.28 382.742 327.164 382.531 330.942 380.956C334.93 379.294 338.808 374.687 337.116 371.379Z" fill="white" fill-opacity="0.14"/>
<path d="M305.408 392.11C310.972 385.373 316.873 367.254 308.865 362.37C303.107 358.86 291.65 361.96 289.586 363.474C287.521 364.987 286.057 363.846 283.65 367.137C281.243 370.427 282.677 374.629 284.713 376.414C287.173 378.571 293.305 379.839 292.58 380.951L296.685 388.077C300.276 392.359 304.629 393.053 305.408 392.11Z" fill="white" fill-opacity="0.14"/>
<path d="M484.652 349.238C480.13 355.324 481.241 360.219 483.523 362.104C485.805 363.988 491.529 360.084 494.119 355.933C496.572 352.002 497.039 345.497 494.919 344.473C493.206 343.646 489.173 343.151 484.652 349.238Z" fill="white" fill-opacity="0.14"/>
<path d="M467.217 349.8C469.706 344.715 472.143 341.847 475.835 342.964C479.254 344.842 479.954 349.712 477.316 355.105C475.523 358.772 471.681 361.408 468.655 360.019C465.994 358.38 465.017 356.884 467.217 349.8Z" fill="white" fill-opacity="0.14"/>
<path d="M512.844 359.05C510.86 354.802 503.676 355.996 499.721 359.198C496.192 362.057 492.508 366.604 495.093 369.189C497.677 371.774 503.757 371.563 507.615 368.451C509.049 367.294 514.554 362.71 512.844 359.05Z" fill="white" fill-opacity="0.14"/>
<path d="M515.116 377.379C513.296 373.824 508.622 374.319 504.79 375.341C500.329 376.531 496.847 383.336 499.064 386.039C501.28 388.742 505.164 388.531 508.942 386.956C512.93 385.294 516.808 380.687 515.116 377.379Z" fill="white" fill-opacity="0.14"/>
<path d="M483.408 398.11C488.972 391.373 494.873 373.254 486.865 368.37C481.107 364.86 469.65 367.96 467.586 369.474C465.521 370.987 464.057 369.846 461.65 373.137C459.243 376.427 460.677 380.629 462.713 382.414C465.173 384.571 471.305 385.839 470.58 386.951L474.685 394.077C478.276 398.359 482.629 399.053 483.408 398.11Z" fill="white" fill-opacity="0.14"/>
<path d="M43.6516 191.206C39.13 197.293 40.2413 202.188 42.5233 204.072C44.8053 205.956 50.5288 202.053 53.1191 197.902C55.5724 193.971 56.0389 187.466 53.9188 186.442C52.2063 185.615 48.1733 185.12 43.6516 191.206Z" fill="white" fill-opacity="0.14"/>
<path d="M26.217 191.769C28.7059 186.683 31.1426 183.816 34.8347 184.933C38.2539 186.81 38.9538 191.68 36.3162 197.074C34.523 200.741 30.681 203.376 27.6553 201.988C24.994 200.348 24.0168 198.852 26.217 191.769Z" fill="white" fill-opacity="0.14"/>
<path d="M71.8442 201.019C69.8599 196.771 62.6759 197.964 58.7211 201.167C55.192 204.025 51.5083 208.572 54.0925 211.157C56.6768 213.743 62.757 213.532 66.6152 210.419C68.0488 209.263 73.5541 204.679 71.8442 201.019Z" fill="white" fill-opacity="0.14"/>
<path d="M74.1155 219.348C72.2965 215.793 67.6218 216.287 63.7895 217.31C59.3287 218.5 55.8472 225.305 58.0636 228.008C60.28 230.711 64.1644 230.5 67.9424 228.925C71.9302 227.263 75.808 222.655 74.1155 219.348Z" fill="white" fill-opacity="0.14"/>
<path d="M42.4082 240.079C47.9726 233.341 53.8738 215.222 45.8652 210.339C40.1079 206.828 28.6508 209.928 26.5861 211.442C24.5214 212.956 23.0572 211.814 20.6503 215.105C18.2434 218.396 19.6772 222.598 21.7132 224.382C24.1738 226.539 30.3055 227.808 29.5803 228.92L33.6853 236.045C37.2765 240.327 41.6295 241.021 42.4082 240.079Z" fill="white" fill-opacity="0.14"/>
<path d="M221.652 197.206C217.13 203.293 218.241 208.188 220.523 210.072C222.805 211.956 228.529 208.053 231.119 203.902C233.572 199.971 234.039 193.466 231.919 192.442C230.206 191.615 226.173 191.12 221.652 197.206Z" fill="white" fill-opacity="0.14"/>
<path d="M204.217 197.769C206.706 192.683 209.143 189.816 212.835 190.933C216.254 192.81 216.954 197.68 214.316 203.074C212.523 206.741 208.681 209.376 205.655 207.988C202.994 206.348 202.017 204.852 204.217 197.769Z" fill="white" fill-opacity="0.14"/>
<path d="M249.844 207.019C247.86 202.771 240.676 203.964 236.721 207.167C233.192 210.025 229.508 214.572 232.093 217.157C234.677 219.743 240.757 219.532 244.615 216.419C246.049 215.263 251.554 210.679 249.844 207.019Z" fill="white" fill-opacity="0.14"/>
<path d="M252.116 225.348C250.296 221.793 245.622 222.287 241.79 223.31C237.329 224.5 233.847 231.305 236.064 234.008C238.28 236.711 242.164 236.5 245.942 234.925C249.93 233.263 253.808 228.655 252.116 225.348Z" fill="white" fill-opacity="0.14"/>
<path d="M220.408 246.079C225.973 239.341 231.874 221.222 223.865 216.339C218.108 212.828 206.651 215.928 204.586 217.442C202.521 218.956 201.057 217.815 198.65 221.105C196.243 224.396 197.677 228.598 199.713 230.382C202.174 232.539 208.305 233.808 207.58 234.92L211.685 242.045C215.276 246.327 219.629 247.021 220.408 246.079Z" fill="white" fill-opacity="0.14"/>
<path d="M399.652 203.206C395.13 209.293 396.241 214.188 398.523 216.072C400.805 217.956 406.529 214.053 409.119 209.902C411.572 205.971 412.039 199.466 409.919 198.442C408.206 197.615 404.173 197.12 399.652 203.206Z" fill="white" fill-opacity="0.14"/>
<path d="M382.217 203.769C384.706 198.683 387.143 195.816 390.835 196.933C394.254 198.81 394.954 203.68 392.316 209.074C390.523 212.741 386.681 215.376 383.655 213.988C380.994 212.348 380.017 210.852 382.217 203.769Z" fill="white" fill-opacity="0.14"/>
<path d="M427.844 213.019C425.86 208.771 418.676 209.964 414.721 213.167C411.192 216.025 407.508 220.572 410.093 223.157C412.677 225.743 418.757 225.532 422.615 222.419C424.049 221.263 429.554 216.679 427.844 213.019Z" fill="white" fill-opacity="0.14"/>
<path d="M430.116 231.348C428.296 227.793 423.622 228.287 419.79 229.31C415.329 230.5 411.847 237.305 414.064 240.008C416.28 242.711 420.164 242.5 423.942 240.925C427.93 239.263 431.808 234.655 430.116 231.348Z" fill="white" fill-opacity="0.14"/>
<path d="M398.408 252.079C403.972 245.341 409.873 227.222 401.865 222.339C396.107 218.828 384.65 221.928 382.586 223.442C380.521 224.956 379.057 223.815 376.65 227.105C374.243 230.396 375.677 234.598 377.713 236.382C380.173 238.539 386.305 239.808 385.58 240.92L389.685 248.045C393.276 252.327 397.629 253.021 398.408 252.079Z" fill="white" fill-opacity="0.14"/>
<path d="M128.652 252.206C124.13 258.293 125.241 263.188 127.523 265.072C129.805 266.956 135.529 263.053 138.119 258.902C140.572 254.971 141.039 248.466 138.919 247.442C137.206 246.615 133.173 246.12 128.652 252.206Z" fill="white" fill-opacity="0.14"/>
<path d="M111.217 252.769C113.706 247.683 116.143 244.816 119.835 245.933C123.254 247.81 123.954 252.68 121.316 258.074C119.523 261.741 115.681 264.376 112.655 262.988C109.994 261.348 109.017 259.852 111.217 252.769Z" fill="white" fill-opacity="0.14"/>
<path d="M156.844 262.019C154.86 257.771 147.676 258.964 143.721 262.167C140.192 265.025 136.508 269.572 139.093 272.157C141.677 274.743 147.757 274.532 151.615 271.419C153.049 270.263 158.554 265.679 156.844 262.019Z" fill="white" fill-opacity="0.14"/>
<path d="M159.116 280.348C157.296 276.793 152.622 277.287 148.79 278.31C144.329 279.5 140.847 286.305 143.064 289.008C145.28 291.711 149.164 291.5 152.942 289.925C156.93 288.263 160.808 283.655 159.116 280.348Z" fill="white" fill-opacity="0.14"/>
<path d="M127.408 301.079C132.973 294.341 138.874 276.222 130.865 271.339C125.108 267.828 113.651 270.928 111.586 272.442C109.521 273.956 108.057 272.815 105.65 276.105C103.243 279.396 104.677 283.598 106.713 285.382C109.174 287.539 115.305 288.808 114.58 289.92L118.685 297.045C122.276 301.327 126.629 302.021 127.408 301.079Z" fill="white" fill-opacity="0.14"/>
<path d="M306.652 258.206C302.13 264.293 303.241 269.188 305.523 271.072C307.805 272.956 313.529 269.053 316.119 264.902C318.572 260.97 319.039 254.466 316.919 253.442C315.206 252.615 311.173 252.12 306.652 258.206Z" fill="white" fill-opacity="0.14"/>
<path d="M289.217 258.769C291.706 253.683 294.143 250.816 297.835 251.933C301.254 253.81 301.954 258.68 299.316 264.074C297.523 267.741 293.681 270.376 290.655 268.988C287.994 267.348 287.017 265.852 289.217 258.769Z" fill="white" fill-opacity="0.14"/>
<path d="M334.844 268.019C332.86 263.771 325.676 264.964 321.721 268.167C318.192 271.025 314.508 275.572 317.093 278.157C319.677 280.743 325.757 280.532 329.615 277.419C331.049 276.263 336.554 271.679 334.844 268.019Z" fill="white" fill-opacity="0.14"/>
<path d="M337.116 286.348C335.296 282.793 330.622 283.287 326.79 284.31C322.329 285.5 318.847 292.304 321.064 295.008C323.28 297.711 327.164 297.5 330.942 295.925C334.93 294.263 338.808 289.655 337.116 286.348Z" fill="white" fill-opacity="0.14"/>
<path d="M305.408 307.079C310.972 300.341 316.873 282.222 308.865 277.339C303.107 273.828 291.65 276.928 289.586 278.442C287.521 279.956 286.057 278.815 283.65 282.105C281.243 285.396 282.677 289.598 284.713 291.382C287.173 293.539 293.305 294.808 292.58 295.92L296.685 303.045C300.276 307.327 304.629 308.021 305.408 307.079Z" fill="white" fill-opacity="0.14"/>
<path d="M484.652 264.206C480.13 270.293 481.241 275.188 483.523 277.072C485.805 278.956 491.529 275.053 494.119 270.902C496.572 266.97 497.039 260.466 494.919 259.442C493.206 258.615 489.173 258.12 484.652 264.206Z" fill="white" fill-opacity="0.14"/>
<path d="M467.217 264.769C469.706 259.683 472.143 256.816 475.835 257.933C479.254 259.81 479.954 264.68 477.316 270.074C475.523 273.741 471.681 276.376 468.655 274.988C465.994 273.348 465.017 271.852 467.217 264.769Z" fill="white" fill-opacity="0.14"/>
<path d="M512.844 274.019C510.86 269.771 503.676 270.964 499.721 274.167C496.192 277.025 492.508 281.572 495.093 284.157C497.677 286.743 503.757 286.532 507.615 283.419C509.049 282.263 514.554 277.679 512.844 274.019Z" fill="white" fill-opacity="0.14"/>
<path d="M515.116 292.348C513.296 288.793 508.622 289.287 504.79 290.31C500.329 291.5 496.847 298.304 499.064 301.008C501.28 303.711 505.164 303.5 508.942 301.925C512.93 300.263 516.808 295.655 515.116 292.348Z" fill="white" fill-opacity="0.14"/>
<path d="M483.408 313.079C488.972 306.341 494.873 288.222 486.865 283.339C481.107 279.828 469.65 282.928 467.586 284.442C465.521 285.956 464.057 284.815 461.65 288.105C459.243 291.396 460.677 295.598 462.713 297.382C465.173 299.539 471.305 300.808 470.58 301.92L474.685 309.045C478.276 313.327 482.629 314.021 483.408 313.079Z" fill="white" fill-opacity="0.14"/>
<path d="M43.6516 106.175C39.13 112.261 40.2413 117.156 42.5233 119.041C44.8053 120.925 50.5288 117.021 53.1191 112.87C55.5724 108.939 56.0389 102.434 53.9188 101.41C52.2063 100.583 48.1733 100.089 43.6516 106.175Z" fill="white" fill-opacity="0.14"/>
<path d="M26.217 106.737C28.7059 101.652 31.1426 98.7844 34.8347 99.9012C38.2539 101.779 38.9538 106.649 36.3162 112.042C34.523 115.709 30.681 118.345 27.6553 116.956C24.994 115.317 24.0168 113.821 26.217 106.737Z" fill="white" fill-opacity="0.14"/>
<path d="M71.8442 115.987C69.8599 111.739 62.6759 112.933 58.7211 116.135C55.192 118.994 51.5083 123.541 54.0925 126.126C56.6768 128.711 62.757 128.5 66.6152 125.388C68.0488 124.231 73.5541 119.647 71.8442 115.987Z" fill="white" fill-opacity="0.14"/>
<path d="M74.1155 134.316C72.2965 130.761 67.6218 131.256 63.7895 132.278C59.3287 133.469 55.8472 140.273 58.0636 142.976C60.28 145.679 64.1644 145.468 67.9424 143.894C71.9302 142.231 75.808 137.624 74.1155 134.316Z" fill="white" fill-opacity="0.14"/>
<path d="M42.4082 155.047C47.9726 148.31 53.8738 130.191 45.8652 125.307C40.1079 121.797 28.6508 124.897 26.5861 126.411C24.5214 127.925 23.0572 126.783 20.6503 130.074C18.2434 133.364 19.6772 137.566 21.7132 139.351C24.1738 141.508 30.3055 142.776 29.5803 143.888L33.6853 151.014C37.2765 155.296 41.6295 155.99 42.4082 155.047Z" fill="white" fill-opacity="0.14"/>
<path d="M221.652 112.175C217.13 118.261 218.241 123.156 220.523 125.041C222.805 126.925 228.529 123.021 231.119 118.87C233.572 114.939 234.039 108.434 231.919 107.41C230.206 106.583 226.173 106.089 221.652 112.175Z" fill="white" fill-opacity="0.14"/>
<path d="M204.217 112.737C206.706 107.652 209.143 104.784 212.835 105.901C216.254 107.779 216.954 112.649 214.316 118.042C212.523 121.709 208.681 124.345 205.655 122.956C202.994 121.317 202.017 119.821 204.217 112.737Z" fill="white" fill-opacity="0.14"/>
<path d="M249.844 121.987C247.86 117.739 240.676 118.933 236.721 122.135C233.192 124.994 229.508 129.541 232.093 132.126C234.677 134.711 240.757 134.5 244.615 131.388C246.049 130.231 251.554 125.647 249.844 121.987Z" fill="white" fill-opacity="0.14"/>
<path d="M252.116 140.316C250.296 136.761 245.622 137.256 241.79 138.278C237.329 139.469 233.847 146.273 236.064 148.976C238.28 151.679 242.164 151.468 245.942 149.894C249.93 148.231 253.808 143.624 252.116 140.316Z" fill="white" fill-opacity="0.14"/>
<path d="M220.408 161.047C225.973 154.31 231.874 136.191 223.865 131.307C218.108 127.797 206.651 130.897 204.586 132.411C202.521 133.925 201.057 132.783 198.65 136.074C196.243 139.364 197.677 143.566 199.713 145.351C202.174 147.508 208.305 148.776 207.58 149.888L211.685 157.014C215.276 161.296 219.629 161.99 220.408 161.047Z" fill="white" fill-opacity="0.14"/>
<path d="M399.652 118.175C395.13 124.261 396.241 129.156 398.523 131.041C400.805 132.925 406.529 129.021 409.119 124.87C411.572 120.939 412.039 114.434 409.919 113.41C408.206 112.583 404.173 112.089 399.652 118.175Z" fill="white" fill-opacity="0.14"/>
<path d="M382.217 118.737C384.706 113.652 387.143 110.784 390.835 111.901C394.254 113.779 394.954 118.649 392.316 124.042C390.523 127.709 386.681 130.345 383.655 128.956C380.994 127.317 380.017 125.821 382.217 118.737Z" fill="white" fill-opacity="0.14"/>
<path d="M427.844 127.987C425.86 123.739 418.676 124.933 414.721 128.135C411.192 130.994 407.508 135.541 410.093 138.126C412.677 140.711 418.757 140.5 422.615 137.388C424.049 136.231 429.554 131.647 427.844 127.987Z" fill="white" fill-opacity="0.14"/>
<path d="M430.116 146.316C428.296 142.761 423.622 143.256 419.79 144.278C415.329 145.469 411.847 152.273 414.064 154.976C416.28 157.679 420.164 157.468 423.942 155.894C427.93 154.231 431.808 149.624 430.116 146.316Z" fill="white" fill-opacity="0.14"/>
<path d="M398.408 167.047C403.972 160.31 409.873 142.191 401.865 137.307C396.107 133.797 384.65 136.897 382.586 138.411C380.521 139.925 379.057 138.783 376.65 142.074C374.243 145.364 375.677 149.566 377.713 151.351C380.173 153.508 386.305 154.776 385.58 155.888L389.685 163.014C393.276 167.296 397.629 167.99 398.408 167.047Z" fill="white" fill-opacity="0.14"/>
<path d="M128.652 167.175C124.13 173.261 125.241 178.156 127.523 180.041C129.805 181.925 135.529 178.021 138.119 173.87C140.572 169.939 141.039 163.434 138.919 162.41C137.206 161.583 133.173 161.089 128.652 167.175Z" fill="white" fill-opacity="0.14"/>
<path d="M111.217 167.737C113.706 162.652 116.143 159.784 119.835 160.901C123.254 162.779 123.954 167.649 121.316 173.042C119.523 176.709 115.681 179.345 112.655 177.956C109.994 176.317 109.017 174.821 111.217 167.737Z" fill="white" fill-opacity="0.14"/>
<path d="M156.844 176.987C154.86 172.739 147.676 173.933 143.721 177.135C140.192 179.994 136.508 184.541 139.093 187.126C141.677 189.711 147.757 189.5 151.615 186.388C153.049 185.231 158.554 180.647 156.844 176.987Z" fill="white" fill-opacity="0.14"/>
<path d="M159.116 195.316C157.296 191.761 152.622 192.256 148.79 193.278C144.329 194.469 140.847 201.273 143.064 203.976C145.28 206.679 149.164 206.468 152.942 204.894C156.93 203.231 160.808 198.624 159.116 195.316Z" fill="white" fill-opacity="0.14"/>
<path d="M127.408 216.047C132.973 209.31 138.874 191.191 130.865 186.307C125.108 182.797 113.651 185.897 111.586 187.411C109.521 188.925 108.057 187.783 105.65 191.074C103.243 194.364 104.677 198.566 106.713 200.351C109.174 202.508 115.305 203.776 114.58 204.888L118.685 212.014C122.276 216.296 126.629 216.99 127.408 216.047Z" fill="white" fill-opacity="0.14"/>
<path d="M306.652 173.175C302.13 179.261 303.241 184.156 305.523 186.041C307.805 187.925 313.529 184.021 316.119 179.87C318.572 175.939 319.039 169.434 316.919 168.41C315.206 167.583 311.173 167.089 306.652 173.175Z" fill="white" fill-opacity="0.14"/>
<path d="M289.217 173.737C291.706 168.652 294.143 165.784 297.835 166.901C301.254 168.779 301.954 173.649 299.316 179.042C297.523 182.709 293.681 185.345 290.655 183.956C287.994 182.317 287.017 180.821 289.217 173.737Z" fill="white" fill-opacity="0.14"/>
<path d="M334.844 182.987C332.86 178.739 325.676 179.933 321.721 183.135C318.192 185.994 314.508 190.541 317.093 193.126C319.677 195.711 325.757 195.5 329.615 192.388C331.049 191.231 336.554 186.647 334.844 182.987Z" fill="white" fill-opacity="0.14"/>
<path d="M337.116 201.316C335.296 197.761 330.622 198.256 326.79 199.278C322.329 200.469 318.847 207.273 321.064 209.976C323.28 212.679 327.164 212.468 330.942 210.894C334.93 209.231 338.808 204.624 337.116 201.316Z" fill="white" fill-opacity="0.14"/>
<path d="M305.408 222.047C310.972 215.31 316.873 197.191 308.865 192.307C303.107 188.797 291.65 191.897 289.586 193.411C287.521 194.925 286.057 193.783 283.65 197.074C281.243 200.364 282.677 204.566 284.713 206.351C287.173 208.508 293.305 209.776 292.58 210.888L296.685 218.014C300.276 222.296 304.629 222.99 305.408 222.047Z" fill="white" fill-opacity="0.14"/>
<path d="M484.652 179.175C480.13 185.261 481.241 190.156 483.523 192.041C485.805 193.925 491.529 190.021 494.119 185.87C496.572 181.939 497.039 175.434 494.919 174.41C493.206 173.583 489.173 173.089 484.652 179.175Z" fill="white" fill-opacity="0.14"/>
<path d="M467.217 179.737C469.706 174.652 472.143 171.784 475.835 172.901C479.254 174.779 479.954 179.649 477.316 185.042C475.523 188.709 471.681 191.345 468.655 189.956C465.994 188.317 465.017 186.821 467.217 179.737Z" fill="white" fill-opacity="0.14"/>
<path d="M512.844 188.987C510.86 184.739 503.676 185.933 499.721 189.135C496.192 191.994 492.508 196.541 495.093 199.126C497.677 201.711 503.757 201.5 507.615 198.388C509.049 197.231 514.554 192.647 512.844 188.987Z" fill="white" fill-opacity="0.14"/>
<path d="M515.116 207.316C513.296 203.761 508.622 204.256 504.79 205.278C500.329 206.469 496.847 213.273 499.064 215.976C501.28 218.679 505.164 218.468 508.942 216.894C512.93 215.231 516.808 210.624 515.116 207.316Z" fill="white" fill-opacity="0.14"/>
<path d="M483.408 228.047C488.972 221.31 494.873 203.191 486.865 198.307C481.107 194.797 469.65 197.897 467.586 199.411C465.521 200.925 464.057 199.783 461.65 203.074C459.243 206.364 460.677 210.566 462.713 212.351C465.173 214.508 471.305 215.776 470.58 216.888L474.685 224.014C478.276 228.296 482.629 228.99 483.408 228.047Z" fill="white" fill-opacity="0.14"/>
<path d="M43.6516 21.1434C39.13 27.2297 40.2413 32.1249 42.5233 34.0092C44.8053 35.8935 50.5288 31.9897 53.1191 27.8388C55.5724 23.9076 56.0389 17.4027 53.9188 16.3789C52.2063 15.5519 48.1733 15.0571 43.6516 21.1434Z" fill="white" fill-opacity="0.14"/>
<path d="M26.217 21.7057C28.7059 16.6205 31.1426 13.7529 34.8347 14.8698C38.2539 16.7472 38.9538 21.6173 36.3162 27.0108C34.523 30.6777 30.681 33.3133 27.6553 31.9249C24.994 30.2852 24.0168 28.7895 26.217 21.7057Z" fill="white" fill-opacity="0.14"/>
<path d="M71.8443 30.9557C69.8599 26.7079 62.6759 27.9012 58.7211 31.104C55.192 33.9622 51.5083 38.5094 54.0925 41.0945C56.6768 43.6796 62.757 43.4686 66.6152 40.3563C68.0488 39.1997 73.5541 34.6158 71.8443 30.9557Z" fill="white" fill-opacity="0.14"/>
<path d="M74.1155 49.2847C72.2965 45.7297 67.6218 46.2245 63.7895 47.2469C59.3287 48.4371 55.8472 55.2416 58.0636 57.9447C60.28 60.6478 64.1644 60.4368 67.9424 58.8621C71.9302 57.2 75.808 52.5923 74.1155 49.2847Z" fill="white" fill-opacity="0.14"/>
<path d="M42.4082 70.0156C47.9726 63.2782 53.8738 45.1593 45.8652 40.276C40.1079 36.7654 28.6508 39.8655 26.5861 41.3793C24.5214 42.8931 23.0572 41.7516 20.6503 45.0422C18.2434 48.3328 19.6772 52.535 21.7132 54.3195C24.1738 56.4763 30.3055 57.7446 29.5803 58.8567L33.6853 65.9825C37.2765 70.2644 41.6295 70.9585 42.4082 70.0156Z" fill="white" fill-opacity="0.14"/>
<path d="M221.652 27.1434C217.13 33.2297 218.241 38.1249 220.523 40.0092C222.805 41.8935 228.529 37.9897 231.119 33.8388C233.572 29.9076 234.039 23.4027 231.919 22.3789C230.206 21.5519 226.173 21.0571 221.652 27.1434Z" fill="white" fill-opacity="0.14"/>
<path d="M204.217 27.7057C206.706 22.6205 209.143 19.7529 212.835 20.8698C216.254 22.7472 216.954 27.6173 214.316 33.0108C212.523 36.6777 208.681 39.3133 205.655 37.9249C202.994 36.2852 202.017 34.7895 204.217 27.7057Z" fill="white" fill-opacity="0.14"/>
<path d="M249.844 36.9557C247.86 32.7079 240.676 33.9012 236.721 37.104C233.192 39.9622 229.508 44.5094 232.093 47.0945C234.677 49.6796 240.757 49.4686 244.615 46.3563C246.049 45.1997 251.554 40.6158 249.844 36.9557Z" fill="white" fill-opacity="0.14"/>
<path d="M252.116 55.2847C250.296 51.7297 245.622 52.2245 241.79 53.2469C237.329 54.4371 233.847 61.2416 236.064 63.9447C238.28 66.6478 242.164 66.4368 245.942 64.8621C249.93 63.2 253.808 58.5923 252.116 55.2847Z" fill="white" fill-opacity="0.14"/>
<path d="M220.408 76.0156C225.973 69.2781 231.874 51.1593 223.865 46.276C218.108 42.7654 206.651 45.8654 204.586 47.3793C202.521 48.8931 201.057 47.7516 198.65 51.0422C196.243 54.3328 197.677 58.535 199.713 60.3195C202.174 62.4763 208.305 63.7446 207.58 64.8567L211.685 71.9824C215.276 76.2644 219.629 76.9585 220.408 76.0156Z" fill="white" fill-opacity="0.14"/>
<path d="M399.652 33.1434C395.13 39.2297 396.241 44.1249 398.523 46.0092C400.805 47.8935 406.529 43.9897 409.119 39.8388C411.572 35.9076 412.039 29.4027 409.919 28.3789C408.206 27.5519 404.173 27.0571 399.652 33.1434Z" fill="white" fill-opacity="0.14"/>
<path d="M382.217 33.7057C384.706 28.6205 387.143 25.7529 390.835 26.8697C394.254 28.7472 394.954 33.6173 392.316 39.0108C390.523 42.6777 386.681 45.3133 383.655 43.9249C380.994 42.2852 380.017 40.7895 382.217 33.7057Z" fill="white" fill-opacity="0.14"/>
<path d="M427.844 42.9557C425.86 38.7079 418.676 39.9012 414.721 43.104C411.192 45.9622 407.508 50.5094 410.093 53.0945C412.677 55.6796 418.757 55.4686 422.615 52.3562C424.049 51.1997 429.554 46.6158 427.844 42.9557Z" fill="white" fill-opacity="0.14"/>
<path d="M430.116 61.2847C428.296 57.7297 423.622 58.2245 419.79 59.2469C415.329 60.4371 411.847 67.2416 414.064 69.9447C416.28 72.6478 420.164 72.4368 423.942 70.8621C427.93 69.1999 431.808 64.5923 430.116 61.2847Z" fill="white" fill-opacity="0.14"/>
<path d="M398.408 82.0156C403.972 75.2782 409.873 57.1593 401.865 52.276C396.107 48.7654 384.65 51.8655 382.586 53.3793C380.521 54.8931 379.057 53.7516 376.65 57.0422C374.243 60.3328 375.677 64.535 377.713 66.3195C380.173 68.4763 386.305 69.7446 385.58 70.8567L389.685 77.9824C393.276 82.2644 397.629 82.9585 398.408 82.0156Z" fill="white" fill-opacity="0.14"/>
<path d="M128.652 82.1434C124.13 88.2297 125.241 93.1249 127.523 95.0092C129.805 96.8935 135.529 92.9897 138.119 88.8388C140.572 84.9076 141.039 78.4027 138.919 77.3789C137.206 76.5519 133.173 76.0571 128.652 82.1434Z" fill="white" fill-opacity="0.14"/>
<path d="M111.217 82.7057C113.706 77.6205 116.143 74.7529 119.835 75.8698C123.254 77.7472 123.954 82.6173 121.316 88.0108C119.523 91.6777 115.681 94.3133 112.655 92.9249C109.994 91.2852 109.017 89.7895 111.217 82.7057Z" fill="white" fill-opacity="0.14"/>
<path d="M156.844 91.9557C154.86 87.7079 147.676 88.9012 143.721 92.104C140.192 94.9622 136.508 99.5094 139.093 102.094C141.677 104.68 147.757 104.469 151.615 101.356C153.049 100.2 158.554 95.6158 156.844 91.9557Z" fill="white" fill-opacity="0.14"/>
<path d="M159.116 110.285C157.296 106.73 152.622 107.224 148.79 108.247C144.329 109.437 140.847 116.242 143.064 118.945C145.28 121.648 149.164 121.437 152.942 119.862C156.93 118.2 160.808 113.592 159.116 110.285Z" fill="white" fill-opacity="0.14"/>
<path d="M127.408 131.016C132.973 124.278 138.874 106.159 130.865 101.276C125.108 97.7654 113.651 100.865 111.586 102.379C109.521 103.893 108.057 102.752 105.65 106.042C103.243 109.333 104.677 113.535 106.713 115.32C109.174 117.476 115.305 118.745 114.58 119.857L118.685 126.982C122.277 131.264 126.629 131.959 127.408 131.016Z" fill="white" fill-opacity="0.14"/>
<path d="M306.652 88.1434C302.13 94.2297 303.241 99.1249 305.523 101.009C307.805 102.894 313.529 98.9897 316.119 94.8388C318.572 90.9076 319.039 84.4027 316.919 83.3789C315.206 82.5519 311.173 82.0571 306.652 88.1434Z" fill="white" fill-opacity="0.14"/>
<path d="M289.217 88.7057C291.706 83.6205 294.143 80.7529 297.835 81.8698C301.254 83.7472 301.954 88.6173 299.316 94.0108C297.523 97.6777 293.681 100.313 290.655 98.9249C287.994 97.2852 287.017 95.7895 289.217 88.7057Z" fill="white" fill-opacity="0.14"/>
<path d="M334.844 97.9557C332.86 93.7079 325.676 94.9012 321.721 98.104C318.192 100.962 314.508 105.509 317.093 108.094C319.677 110.68 325.757 110.469 329.615 107.356C331.049 106.2 336.554 101.616 334.844 97.9557Z" fill="white" fill-opacity="0.14"/>
<path d="M337.116 116.285C335.296 112.73 330.622 113.224 326.79 114.247C322.329 115.437 318.847 122.242 321.064 124.945C323.28 127.648 327.164 127.437 330.942 125.862C334.93 124.2 338.808 119.592 337.116 116.285Z" fill="white" fill-opacity="0.14"/>
<path d="M305.408 137.016C310.972 130.278 316.873 112.159 308.865 107.276C303.107 103.765 291.65 106.865 289.586 108.379C287.521 109.893 286.057 108.752 283.65 112.042C281.243 115.333 282.677 119.535 284.713 121.32C287.173 123.476 293.305 124.745 292.58 125.857L296.685 132.982C300.276 137.264 304.629 137.959 305.408 137.016Z" fill="white" fill-opacity="0.14"/>
<path d="M484.652 94.1434C480.13 100.23 481.241 105.125 483.523 107.009C485.805 108.894 491.529 104.99 494.119 100.839C496.572 96.9076 497.039 90.4027 494.919 89.3788C493.206 88.5519 489.173 88.0571 484.652 94.1434Z" fill="white" fill-opacity="0.14"/>
<path d="M467.217 94.7057C469.706 89.6205 472.143 86.7529 475.835 87.8697C479.254 89.7472 479.954 94.6173 477.316 100.011C475.523 103.678 471.681 106.313 468.655 104.925C465.994 103.285 465.017 101.79 467.217 94.7057Z" fill="white" fill-opacity="0.14"/>
<path d="M512.844 103.956C510.86 99.7079 503.676 100.901 499.721 104.104C496.192 106.962 492.508 111.509 495.093 114.094C497.677 116.68 503.757 116.469 507.615 113.356C509.049 112.2 514.554 107.616 512.844 103.956Z" fill="white" fill-opacity="0.14"/>
<path d="M515.115 122.285C513.296 118.73 508.621 119.224 504.789 120.247C500.328 121.437 496.847 128.242 499.063 130.945C501.28 133.648 505.164 133.437 508.942 131.862C512.93 130.2 516.807 125.592 515.115 122.285Z" fill="white" fill-opacity="0.14"/>
<path d="M483.408 143.016C488.972 136.278 494.873 118.159 486.865 113.276C481.107 109.765 469.65 112.865 467.586 114.379C465.521 115.893 464.057 114.752 461.65 118.042C459.243 121.333 460.677 125.535 462.713 127.32C465.173 129.476 471.305 130.745 470.58 131.857L474.685 138.982C478.276 143.264 482.629 143.959 483.408 143.016Z" fill="white" fill-opacity="0.14"/>
</g>
<defs>
<clipPath id="clip0_538_2208">
<rect width="539" height="516" fill="white"/>
</clipPath>
</defs>
</svg>
