<svg width="6" height="10" viewBox="0 0 6 10" fill="none" xmlns="http://www.w3.org/2000/svg">
<path d="M1.10409 1.735C1.02805 1.64408 0.991146 1.52672 1.00145 1.40864C1.01176 1.29056 1.06845 1.18138 1.15909 1.105C1.20389 1.06728 1.2557 1.03878 1.31155 1.02113C1.36739 1.00347 1.42617 0.997014 1.48451 1.00212C1.54285 1.00723 1.59961 1.02381 1.65154 1.0509C1.70346 1.07799 1.74953 1.11507 1.78709 1.16L5.00009 5L1.78709 8.84C1.74953 8.88494 1.70346 8.92201 1.65154 8.9491C1.59961 8.9762 1.54285 8.99277 1.48451 8.99788C1.42617 9.00299 1.36739 8.99653 1.31155 8.97888C1.2557 8.96123 1.20389 8.93272 1.15909 8.895C1.06845 8.81863 1.01176 8.70945 1.00145 8.59136C0.991146 8.47328 1.02805 8.35593 1.10409 8.265L3.83609 5L1.10409 1.735Z" stroke="#A8A8A8"/>
</svg>
