<svg width="161" height="161" viewBox="0 0 161 161" fill="none" xmlns="http://www.w3.org/2000/svg">
<mask id="mask0" mask-type="alpha" maskUnits="userSpaceOnUse" x="0" y="0" width="161" height="161">
<path d="M160.5 80.26C160.5 100.81 152.77 119.56 140.07 133.76C125.38 150.18 104.02 160.51 80.25 160.51C68.03 160.51 56.45 157.78 46.09 152.89C36.39 148.32 27.75 141.86 20.65 133.98C7.81 119.75 0 100.92 0 80.25C0 35.93 35.93 0 80.25 0C124.57 0 160.5 35.94 160.5 80.26Z" fill="white"/>
</mask>
<g mask="url(#mask0)">
<path d="M160.5 80.2548C160.5 100.809 152.772 119.555 140.066 133.752C125.373 150.172 104.017 160.505 80.25 160.505C68.0311 160.505 56.449 157.775 46.0873 152.883C36.3865 148.315 27.7469 141.856 20.6462 133.978C7.81468 119.753 0 100.915 0 80.25C0 35.9331 35.9282 0 80.25 0C124.572 0 160.5 35.9379 160.5 80.2548Z" fill="white"/>
<path d="M135.5 73.5C135.5 107.023 110.73 133.5 81 133.5C51.2696 133.5 26.5 107.023 26.5 73.5C26.5 39.977 51.2696 13.5 81 13.5C110.73 13.5 135.5 39.977 135.5 73.5Z" stroke="#3D464D" stroke-width="9"/>
<path d="M91.0499 259.69C91.0499 259.69 132.8 281.84 159.3 263.29C185.8 244.74 192.76 221.11 192.76 221.11C192.76 221.11 219.55 205.52 228.42 176.46C237.29 147.4 245.96 100.77 227.03 91.4099C208.1 82.0499 202.66 88.6399 199.04 92.9299C195.42 97.2199 192.98 105.76 192.98 105.76C192.98 105.76 205.85 131.32 191.16 153.29C176.47 175.26 177.9 169.01 177.9 169.01C177.9 169.01 148.55 158.74 144.65 157.57C143.03 157.09 131.01 145.76 127.31 140.85C122.09 133.94 125.48 132.37 128.89 127.38C132.01 122.82 142.07 112.81 142.16 79.8999C142.25 46.9899 126.11 36.4399 126.11 36.4399L107.63 47.1999C107.63 47.1999 98.7199 52.1899 78.5599 51.3799C62.7899 50.7399 52.8599 47.4199 52.8599 47.4199C48.8099 40.1699 36.5299 37.4499 36.5299 37.4499C36.5299 37.4499 22.0099 45.3299 18.4299 76.1299C14.2599 112 38.2399 133.87 38.2399 133.87C38.2399 133.87 36.7799 139.98 34.8799 156.97C32.8699 174.96 21.4499 208.3 21.8699 224.24C22.1799 236 28.3899 246.45 38.7299 239.67C49.0699 232.89 59.1799 179.79 69.3899 183.46C79.6099 187.13 61.7099 245.6 72.7299 251.06C75.5799 252.47 85.0299 241.07 85.5299 244.75C86.2499 250.02 91.0499 259.69 91.0499 259.69Z" fill="#DDDDDD"/>
<path d="M31.9795 63.57C31.9795 63.57 32.5795 66.8 34.5695 66.97C34.2995 65.59 35.6195 62.26 36.6595 61.97C36.4595 63.51 37.8895 63.71 39.1495 64.68C39.6495 63.51 40.5495 62.68 41.2795 62.28C41.1595 60.54 40.9895 58.91 40.7595 57.29C40.4895 55.39 40.1895 53.53 39.7795 51.73C39.3695 49.93 38.8495 48.2 38.2295 46.58C38.0095 45.99 37.7695 45.43 37.5195 44.88C33.2695 49.87 29.9395 57.04 27.8195 65.87C27.4695 67.34 27.1695 69.13 26.9595 71.16C28.8895 66.03 31.9795 63.57 31.9795 63.57Z" fill="#F7A1A1"/>
<path d="M133.62 51.67C132.02 47.6 130.12 44.15 128.05 41.48C127.66 42.07 127.27 42.71 126.91 43.44C126.04 45.14 125.27 47.11 124.58 49.19C123.89 51.27 123.3 53.45 122.61 55.66C122.26 56.76 121.91 57.89 121.51 59.01C121.19 59.92 120.86 60.84 120.47 61.77C121.01 62.08 121.8 62.75 122.58 63.54C123.59 64.56 124.59 65.8 125.01 66.72C126.54 65.61 127.15 63.71 126.85 61.3C128.44 61.22 129.99 65.39 129.66 66.95C132.07 66.76 134.19 63.96 134.19 63.96C134.19 63.96 136.05 65.53 137.91 68.64C137.07 62.58 135.62 56.78 133.65 51.74C133.63 51.72 133.63 51.69 133.62 51.67Z" fill="#F7A1A1"/>
<path d="M124.39 38.13L128.9 41.94C128.9 41.94 123.67 52.16 122.6 55.66C121.56 59.06 120.47 61.77 120.47 61.77C120.47 61.77 115.15 66.98 115.2 61.47C115.24 55.96 124.39 38.13 124.39 38.13Z" fill="#DC5867"/>
<path d="M39.6798 35.6L34.7998 38.93C34.7998 38.93 39.1498 50.25 39.8998 53.7C40.6498 57.15 41.1698 62.23 41.1698 62.23C41.1698 62.23 47.0898 66.14 47.4398 62.14C47.9098 56.65 39.6798 35.6 39.6798 35.6Z" fill="#DC5867"/>
<path d="M84.0715 140.207C114.488 143.402 83.0581 176.871 72.7242 173.801C64.7454 171.444 53.6551 137.027 84.0715 140.207Z" fill="white"/>
<path d="M126.12 36.45L107.63 47.2C107.63 47.2 98.7196 52.19 78.5596 51.38C62.7896 50.74 52.8596 47.4199 52.8596 47.4199C48.8096 40.1699 36.5296 37.45 36.5296 37.45C36.5296 37.45 22.0096 45.3299 18.4296 76.1299C14.2596 112 29.4998 118.5 29.4998 118.5C29.4998 118.5 24.2198 97.2199 29.4998 76.1299C35.7698 51.0799 42.9997 49.5 42.9997 49.5C42.9997 49.5 51.6198 64.96 83.9998 63.33C116.38 61.7 123.98 43.2999 123.98 43.2999C129.93 49.2299 134.28 55.46 137.4 63.33C137.4 63.33 137.22 51.4699 132.32 44.0999C129.35 39.6199 126.12 36.45 126.12 36.45Z" fill="white"/>
<path d="M115.48 183.46C115.48 183.46 104.37 195.95 96.27 221.12C88.17 246.29 79.42 254.37 72.74 251.06C61.72 245.6 79.62 187.13 69.4 183.46C59.18 179.79 49.08 232.89 38.74 239.67C28.4 246.45 22.19 236 21.88 224.24C21.46 208.3 30.08 177.77 33.01 159.9C35.83 142.69 38.26 133.87 38.26 133.87C38.26 133.87 14.27 112 18.44 76.1299C22.02 45.3299 36.54 37.45 36.54 37.45C36.54 37.45 48.82 40.1699 52.87 47.4199C56.92 54.6699 57.88 60.22 57.88 60.22" stroke="#3D474E" stroke-width="5" stroke-miterlimit="10" stroke-linecap="round" stroke-linejoin="round"/>
<path d="M102.18 60.22C102.18 60.22 104.34 53.3599 107.87 48.5099C115.71 37.7599 126.11 36.45 126.11 36.45C126.11 36.45 140.35 44.65 142.16 79.91C143.97 115.18 123.32 133.86 123.32 133.86C123.32 133.86 129.8 144.6 130.8 148.37" stroke="#3D474E" stroke-width="5" stroke-miterlimit="10" stroke-linecap="round" stroke-linejoin="round"/>
<path d="M52.8599 47.4099C52.8599 47.4099 62.7799 50.7299 78.5599 51.3699C98.7199 52.1899 107.63 47.1899 107.63 47.1899" stroke="#3D474E" stroke-width="5" stroke-miterlimit="10" stroke-linecap="round" stroke-linejoin="round"/>
<path d="M116.65 39.2C116.65 39.2 114.5 46 114.11 52.13C113.71 58.33 115.06 64.02 116.09 64.02C117.89 64.02 119.37 56.44 122.22 49.8C125.07 43.16 128.66 37.46 128.66 37.46L123.37 37.13L116.65 39.2Z" fill="#3D474E"/>
<path d="M45.9797 39.2C45.9797 39.2 48.1297 46 48.5197 52.13C48.9197 58.33 47.5697 64.02 46.5397 64.02C44.7397 64.02 43.2597 56.44 40.4097 49.8C37.5597 43.16 34.7397 38.72 34.7397 38.72L39.2597 37.12L45.9797 39.2Z" fill="#3D474E"/>
<path d="M80.2493 97.4599C83.5686 97.4599 86.2594 95.105 86.2594 92.1999C86.2594 89.2949 83.5686 86.9399 80.2493 86.9399C76.9301 86.9399 74.2393 89.2949 74.2393 92.1999C74.2393 95.105 76.9301 97.4599 80.2493 97.4599Z" fill="white"/>
<path d="M52.4396 102.21C52.4396 104.17 48.7796 105.77 44.2696 105.77C39.7596 105.77 36.0996 104.18 36.0996 102.21C36.0996 100.25 39.7596 98.6499 44.2696 98.6499C48.7796 98.6499 52.4396 100.24 52.4396 102.21Z" fill="#DC5867"/>
<path d="M124.39 102.21C124.39 104.17 120.73 105.77 116.22 105.77C111.71 105.77 108.05 104.18 108.05 102.21C108.05 100.25 111.71 98.6499 116.22 98.6499C120.74 98.6499 124.39 100.24 124.39 102.21Z" fill="#DC5867"/>
<path d="M89.1895 102.51C86.5295 102.51 84.0995 100.97 82.8995 98.6399L84.7294 97.1399C86.4594 95.7399 85.4594 92.9399 83.2294 92.9399H77.2495C75.0295 92.9399 74.0295 95.7399 75.7495 97.1399L77.5795 98.6399C76.3695 101 73.9794 102.51 71.2994 102.51C70.2694 102.51 69.4395 103.34 69.4395 104.37C69.4395 105.4 70.2694 106.23 71.2994 106.23C74.9494 106.23 78.2594 104.42 80.2394 101.47C82.2194 104.38 85.5795 106.23 89.1795 106.23C90.2095 106.23 91.0395 105.4 91.0395 104.37C91.0395 103.34 90.2195 102.51 89.1895 102.51Z" fill="#3D474E"/>
<path d="M119.92 121.19L119.11 117.29C128.35 115.37 134.79 111.02 138.25 104.36C145.99 89.5 136.85 67.79 136.75 67.57L140.41 66C140.51 66.24 142.94 71.95 144.36 79.72C146.26 90.16 145.37 99.31 141.78 106.19C137.74 113.96 130.39 119.01 119.92 121.19Z" fill="#3D464D"/>
<path d="M38.7097 37.86L33.2196 35.86C28.4496 34.12 23.1697 36.58 21.4297 41.36L14.0997 61.51C12.3597 66.28 14.8197 71.56 19.5997 73.3L25.0897 75.3C29.8596 77.04 35.1397 74.58 36.8797 69.8L44.2097 49.66C45.9496 44.88 43.4797 39.6 38.7097 37.86Z" fill="#9949BF" stroke="#3D474E" stroke-width="3"/>
<path opacity="0.4" d="M25.6897 75.48C25.4897 75.43 25.2897 75.36 25.0797 75.28L19.5897 73.28C14.8197 71.54 12.3597 66.26 14.0897 61.49L21.4197 41.35C23.1597 36.58 28.4397 34.12 33.2097 35.85L38.6997 37.85C38.8997 37.92 39.0997 38 39.2897 38.09C34.6797 36.76 29.7597 39.21 28.0997 43.78L20.7697 63.92C19.1097 68.5 21.2997 73.54 25.6897 75.48Z" fill="#4C2161"/>
<path d="M127.28 35.87L121.79 37.87C117.02 39.61 114.55 44.89 116.29 49.66L123.62 69.8C125.36 74.57 130.64 77.03 135.41 75.3L140.9 73.3C145.67 71.56 148.14 66.28 146.4 61.51L139.07 41.37C137.33 36.59 132.06 34.12 127.28 35.87Z" fill="#9949BF" stroke="#3D474E" stroke-width="3"/>
<path opacity="0.4" d="M141.49 73.05C141.3 73.1301 141.11 73.21 140.9 73.29L135.41 75.29C130.64 77.03 125.36 74.57 123.62 69.79L116.29 49.65C114.55 44.88 117.01 39.6 121.79 37.86L127.28 35.86C127.48 35.79 127.68 35.72 127.89 35.67C123.5 37.61 121.31 42.65 122.97 47.23L130.3 67.37C131.96 71.94 136.88 74.3801 141.49 73.05Z" fill="#4C2161"/>
<path d="M125.47 118.84C125.47 123.45 121.74 127.18 117.13 127.18C112.52 127.18 108.79 123.45 108.79 118.84C108.79 114.23 112.53 110.5 117.13 110.5C121.74 110.5 125.47 114.23 125.47 118.84Z" fill="#3D464D"/>
<path d="M117.8 91.3201L117.96 91.3701C118.18 91.4301 118.42 91.4201 118.65 91.3101C119.38 90.9801 119.79 89.8601 119.56 88.8201C119.05 86.5001 117.9 84.4801 116.45 83.0101C115 81.5201 113.22 80.6101 111.37 80.3401C109.52 80.0701 107.6 80.4501 105.85 81.4701C104.1 82.5001 102.51 84.1501 101.43 86.3101C100.67 87.8301 100.49 89.8801 101.09 91.6901C101.97 94.3601 104.2 95.5001 106.07 94.2401L106.69 93.8301C107.53 93.2601 108.23 92.7301 108.99 92.2801C109.74 91.8201 110.52 91.4301 111.38 91.1601C112.24 90.8901 113.17 90.7501 114.21 90.7401C115.25 90.7401 116.4 90.9201 117.8 91.3201Z" fill="#3D474E"/>
<path d="M54.6397 81.52C52.8797 80.52 50.9597 80.2 49.1297 80.51C47.2997 80.83 45.5497 81.75 44.1197 83.22C42.6797 84.66 41.5297 86.59 40.9497 88.81C40.8497 89.18 40.8297 89.59 40.9097 90C41.0997 91.03 41.8497 91.64 42.5697 91.37L42.6997 91.32C44.0297 90.81 45.1697 90.55 46.2397 90.52C47.3097 90.51 48.2597 90.67 49.1397 90.98C50.0197 91.3 50.7997 91.74 51.5497 92.22C52.2997 92.71 52.9897 93.26 53.8197 93.82L54.4397 94.24C55.6197 95.03 57.0597 94.91 58.1997 93.76C59.8797 92.05 60.2697 88.72 59.0797 86.31C57.9997 84.15 56.3997 82.51 54.6397 81.52Z" fill="#3D474E"/>
<path d="M38.7097 37.5586L33.2196 35.5586C28.4496 33.8186 23.1697 36.2786 21.4297 41.0586L14.0997 61.2086C12.3597 65.9786 14.8197 71.2586 19.5997 72.9986L25.0897 74.9986C29.8597 76.7386 35.1397 74.2786 36.8797 69.4986L44.2097 49.3586C45.9497 44.5786 43.4797 39.2986 38.7097 37.5586Z" stroke="#3D474E" stroke-width="3"/>
<path d="M127.28 35.5686L121.79 37.5686C117.02 39.3086 114.55 44.5886 116.29 49.3586L123.62 69.4986C125.36 74.2686 130.64 76.7286 135.41 74.9986L140.9 72.9986C145.67 71.2586 148.14 65.9786 146.4 61.2086L139.07 41.0686C137.33 36.2886 132.06 33.8186 127.28 35.5686V35.5686Z" stroke="#3D474E" stroke-width="3"/>
<path d="M110.5 90C111.881 90 113 88.8807 113 87.5C113 86.1193 111.881 85 110.5 85C109.119 85 108 86.1193 108 87.5C108 88.8807 109.119 90 110.5 90Z" fill="white"/>
<path d="M49.5 90C50.8807 90 52 88.8807 52 87.5C52 86.1193 50.8807 85 49.5 85C48.1193 85 47 86.1193 47 87.5C47 88.8807 48.1193 90 49.5 90Z" fill="white"/>
</g>
</svg>
