<svg width="161" height="72" viewBox="0 0 161 72" fill="none" xmlns="http://www.w3.org/2000/svg">
<path d="M48.604 1H120.781C122.99 1 124.781 2.79086 124.781 5V57.6979H48.604C46.3949 57.6979 44.604 55.907 44.604 53.6979V5C44.604 2.79086 46.3949 1 48.604 1Z" fill="#A555CB" stroke="#3F474D" stroke-width="2"/>
<path d="M125.104 16.9323H154C157.314 16.9323 160 19.6186 160 22.9323V51.6979C160 55.0116 157.314 57.6979 154 57.6979H125.104V16.9323Z" fill="#AE67D0" stroke="#3F474D" stroke-width="2"/>
<path d="M64.1124 8.07622C62.5155 11.4538 63.7288 13.7975 65.1712 14.5542C66.6136 15.3108 69.123 12.9228 69.9525 10.6581C70.7382 8.51318 70.1482 5.24614 68.9014 4.9041C67.8944 4.62783 65.7093 4.69869 64.1124 8.07622Z" fill="white" fill-opacity="0.21"/>
<path d="M64.1124 8.07622C62.5155 11.4538 63.7288 13.7975 65.1712 14.5542C66.6136 15.3108 69.123 12.9228 69.9525 10.6581C70.7382 8.51318 70.1482 5.24614 68.9014 4.9041C67.8944 4.62783 65.7093 4.69869 64.1124 8.07622Z" fill="white" fill-opacity="0.21"/>
<path d="M55.4146 10.1095C56.0852 7.41076 57.0102 5.80738 59.1062 6.06572C61.1546 6.71986 62.1444 9.06123 61.4343 11.9234C60.9515 13.8694 59.2533 15.4694 57.4754 15.0249C55.8584 14.4279 55.151 13.769 55.4146 10.1095Z" fill="white" fill-opacity="0.21"/>
<path d="M55.4146 10.1095C56.0852 7.41076 57.0102 5.80738 59.1062 6.06572C61.1546 6.71986 62.1444 9.06123 61.4343 11.9234C60.9515 13.8694 59.2533 15.4694 57.4754 15.0249C55.8584 14.4279 55.151 13.769 55.4146 10.1095Z" fill="white" fill-opacity="0.21"/>
<path d="M79.5222 10.4694C77.9484 8.52028 74.3735 9.66772 72.7316 11.5598C71.2664 13.2482 69.9374 15.7848 71.6095 16.8643C73.2815 17.9438 76.4095 17.3681 78.0129 15.5284C78.6087 14.8447 80.8782 12.1488 79.5222 10.4694Z" fill="white" fill-opacity="0.21"/>
<path d="M79.5222 10.4694C77.9484 8.52028 74.3735 9.66772 72.7316 11.5598C71.2664 13.2482 69.9374 15.7848 71.6095 16.8643C73.2815 17.9438 76.4095 17.3681 78.0129 15.5284C78.6087 14.8447 80.8782 12.1488 79.5222 10.4694Z" fill="white" fill-opacity="0.21"/>
<path d="M82.5441 19.4503C81.149 17.8466 78.7861 18.4514 76.9272 19.25C74.7635 20.1795 73.8206 23.7884 75.3138 24.9433C76.8069 26.0982 78.7958 25.6938 80.5564 24.6284C82.4147 23.5039 83.8422 20.9424 82.5441 19.4503Z" fill="white" fill-opacity="0.21"/>
<path d="M82.5441 19.4503C81.149 17.8466 78.7861 18.4514 76.9272 19.25C74.7635 20.1795 73.8206 23.7884 75.3138 24.9433C76.8069 26.0982 78.7958 25.6938 80.5564 24.6284C82.4147 23.5039 83.8422 20.9424 82.5441 19.4503Z" fill="white" fill-opacity="0.21"/>
<path d="M69.1471 32.7666C71.205 29.0253 72.0513 19.7009 67.3141 17.9683C63.9085 16.7226 58.3595 19.1674 57.4758 20.0743C56.5921 20.9811 55.6957 20.5429 54.8514 22.3449C54.0071 24.1469 55.2604 26.0816 56.5309 26.7872C58.0663 27.6399 61.3925 27.7605 61.1528 28.3624L64.1439 31.507C66.5229 33.3052 68.8591 33.2902 69.1471 32.7666Z" fill="white" fill-opacity="0.21"/>
<path d="M69.1471 32.7666C71.205 29.0253 72.0513 19.7009 67.3141 17.9683C63.9085 16.7226 58.3595 19.1674 57.4758 20.0743C56.5921 20.9811 55.6957 20.5429 54.8514 22.3449C54.0071 24.1469 55.2604 26.0816 56.5309 26.7872C58.0663 27.6399 61.3925 27.7605 61.1528 28.3624L64.1439 31.507C66.5229 33.3052 68.8591 33.2902 69.1471 32.7666Z" fill="white" fill-opacity="0.21"/>
<path d="M99.7512 16.5534C97.6884 19.6683 98.5545 22.1613 99.8741 23.1161C101.194 24.071 104.018 22.0658 105.163 19.9427C106.247 17.932 106.129 14.6142 104.944 14.0976C103.987 13.6804 101.814 13.4385 99.7512 16.5534Z" fill="white" fill-opacity="0.21"/>
<path d="M99.7512 16.5534C97.6884 19.6683 98.5545 22.1613 99.8741 23.1161C101.194 24.071 104.018 22.0658 105.163 19.9427C106.247 17.932 106.129 14.6142 104.944 14.0976C103.987 13.6804 101.814 13.4385 99.7512 16.5534Z" fill="white" fill-opacity="0.21"/>
<path d="M90.8521 17.3238C91.9011 14.7485 93.0456 13.2936 95.0833 13.8486C97.0173 14.7885 97.6626 17.2473 96.5511 19.9787C95.7954 21.8358 93.8861 23.1769 92.1899 22.4831C90.6747 21.6614 90.0686 20.9082 90.8521 17.3238Z" fill="white" fill-opacity="0.21"/>
<path d="M90.8521 17.3238C91.9011 14.7485 93.0456 13.2936 95.0833 13.8486C97.0173 14.7885 97.6626 17.2473 96.5511 19.9787C95.7954 21.8358 93.8861 23.1769 92.1899 22.4831C90.6747 21.6614 90.0686 20.9082 90.8521 17.3238Z" fill="white" fill-opacity="0.21"/>
<path d="M114.661 21.1224C113.382 18.9685 109.68 19.5937 107.785 21.232C106.093 22.6939 104.416 25.0147 105.916 26.3219C107.417 27.629 110.595 27.506 112.445 25.914C113.132 25.3224 115.764 22.9782 114.661 21.1224Z" fill="white" fill-opacity="0.21"/>
<path d="M114.661 21.1224C113.382 18.9685 109.68 19.5937 107.785 21.232C106.093 22.6939 104.416 25.0147 105.916 26.3219C107.417 27.629 110.595 27.506 112.445 25.914C113.132 25.3224 115.764 22.9782 114.661 21.1224Z" fill="white" fill-opacity="0.21"/>
<path d="M116.37 30.4428C115.218 28.6563 112.793 28.9175 110.839 29.4424C108.565 30.0535 107.116 33.4908 108.429 34.847C109.742 36.2033 111.769 36.0871 113.663 35.284C115.663 34.4363 117.442 32.1049 116.37 30.4428Z" fill="white" fill-opacity="0.21"/>
<path d="M116.37 30.4428C115.218 28.6563 112.793 28.9175 110.839 29.4424C108.565 30.0535 107.116 33.4908 108.429 34.847C109.742 36.2033 111.769 36.0871 113.663 35.284C115.663 34.4363 117.442 32.1049 116.37 30.4428Z" fill="white" fill-opacity="0.21"/>
<path d="M101.214 41.7389C103.785 38.3299 105.954 29.2219 101.513 26.8305C98.3201 25.1114 92.479 26.7388 91.4748 27.5101C90.4707 28.2815 89.6461 27.7198 88.5531 29.3827C87.4601 31.0457 88.4243 33.1395 89.581 34.0193C90.979 35.0826 94.2538 35.6769 93.9306 36.2383L96.4421 39.7778C98.5399 41.8974 100.854 42.216 101.214 41.7389Z" fill="white" fill-opacity="0.21"/>
<path d="M101.214 41.7389C103.785 38.3299 105.954 29.2219 101.513 26.8305C98.3201 25.1114 92.479 26.7388 91.4748 27.5101C90.4707 28.2815 89.6461 27.7198 88.5531 29.3827C87.4601 31.0457 88.4243 33.1395 89.581 34.0193C90.979 35.0826 94.2538 35.6769 93.9306 36.2383L96.4421 39.7778C98.5399 41.8974 100.854 42.216 101.214 41.7389Z" fill="white" fill-opacity="0.21"/>
<path d="M148.391 25.3177H160V40.0886H144.391V29.3177C144.391 27.1086 146.181 25.3177 148.391 25.3177Z" fill="white" fill-opacity="0.81" stroke="#3F474D" stroke-width="2"/>
<path opacity="0.26" d="M125.342 17.4449L133.859 16.7709C133.859 16.7709 129.52 33.7443 135.793 44.3099C142.066 54.8764 148.422 57.8594 148.422 57.8594H124.943L125.342 17.4449Z" fill="#71328E"/>
<circle cx="142.552" cy="61.2136" r="9.0625" fill="#3F474D" stroke="#3F474D" stroke-width="2"/>
<path opacity="0.26" d="M136.263 54.5052L138.359 53.2474C138.359 53.2474 135.895 61.7526 138.359 64.987C140.824 68.2217 143.39 70.4375 143.39 70.4375L136.682 68.7605L133.328 62.8907L133.747 57.8594L136.263 54.5052Z" fill="#71328E"/>
<path opacity="0.26" d="M144.357 26.2149L147.095 25.9948C147.095 25.9948 145.7 31.5371 147.717 34.9872C149.733 38.4374 151.776 39.4115 151.776 39.4115H144.229L144.357 26.2149Z" fill="#71328E"/>
<path d="M48.604 45.4427H120.781C122.99 45.4427 124.781 47.2336 124.781 49.4427V57.698H48.604C46.3949 57.698 44.604 55.9071 44.604 53.698V49.4427C44.604 47.2336 46.3949 45.4427 48.604 45.4427Z" fill="#994CBE" stroke="#3F474D" stroke-width="2"/>
<circle cx="62.052" cy="61.2136" r="9.0625" fill="#3F474D" stroke="#3F474D" stroke-width="2"/>
<circle cx="62.0521" cy="61.2136" r="4.19271" fill="white"/>
<path opacity="0.26" d="M55.763 54.086L57.8594 52.8282C57.8594 52.8282 55.3951 61.3334 57.8594 64.5678C60.3238 67.8024 62.8907 70.0183 62.8907 70.0183L56.1823 68.3412L52.8281 62.4714L53.2474 57.4402L55.763 54.086Z" fill="#71328E"/>
<path d="M45.2812 3.9688C45.7439 1.99528 46.5732 1.56458 48.8289 1.69995C48.8289 1.69995 47.0796 18.865 49.5439 30.0717C52.0083 41.2792 54.5052 44.4432 54.5052 44.4432H46.7003C46.0251 44.6181 45.7196 44.8133 45.2812 45.2813V3.9688Z" fill="white" fill-opacity="0.09"/>
<circle cx="142.552" cy="61.2136" r="4.19271" fill="white"/>
<path d="M124.943 5.03131V16.7709H137.521L124.943 5.03131Z" fill="#A955D0" stroke="#3F474D" stroke-width="2"/>
<line x1="9.63525" y1="16.3594" x2="36.4842" y2="16.3594" stroke="#3F474D" stroke-width="2.5" stroke-linecap="round"/>
<line x1="9.63525" y1="16.3594" x2="36.4842" y2="16.3594" stroke="#3F474D" stroke-width="2.5" stroke-linecap="round"/>
<line x1="9.63525" y1="16.3594" x2="36.4842" y2="16.3594" stroke="#3F474D" stroke-width="2.5" stroke-linecap="round"/>
<line x1="15.5054" y1="26.4219" x2="36.4845" y2="26.4219" stroke="#3F474D" stroke-width="2.5" stroke-linecap="round"/>
<line x1="15.5054" y1="26.4219" x2="36.4845" y2="26.4219" stroke="#3F474D" stroke-width="2.5" stroke-linecap="round"/>
<line x1="15.5054" y1="26.4219" x2="36.4845" y2="26.4219" stroke="#3F474D" stroke-width="2.5" stroke-linecap="round"/>
<line x1="1.25" y1="36.4844" x2="36.4844" y2="36.4844" stroke="#3F474D" stroke-width="2.5" stroke-linecap="round"/>
<line x1="1.25" y1="36.4844" x2="36.4844" y2="36.4844" stroke="#3F474D" stroke-width="2.5" stroke-linecap="round"/>
<line x1="1.25" y1="36.4844" x2="36.4844" y2="36.4844" stroke="#3F474D" stroke-width="2.5" stroke-linecap="round"/>
</svg>
