<svg width="161" height="149" viewBox="0 0 161 149" fill="none" xmlns="http://www.w3.org/2000/svg">
<g clip-path="url(#clip0_1139_1929)">
<path d="M84.2296 140.056C39.7288 139.992 2.45812 120.31 2.08748 120.113C1.79686 119.957 1.57242 119.702 1.45558 119.395C1.33874 119.087 1.33737 118.748 1.45172 118.44C1.4929 118.327 5.66269 107.067 8.60985 97.5647C11.6497 87.77 21.827 75.5222 22.2517 75.0064C22.335 74.9066 22.4332 74.8201 22.5426 74.7498C22.7201 74.6316 26.9621 71.886 37.492 71.016C38.2154 70.9571 39.2758 70.857 40.6297 70.7313C49.2885 69.9281 69.566 68.042 89.9309 68.042C118.406 68.042 136.004 71.7449 142.205 79.0402C155.54 94.6932 159.45 117.726 159.607 118.696C159.652 118.967 159.613 119.245 159.496 119.494C159.38 119.742 159.19 119.95 158.954 120.09C158.617 120.29 124.643 140.061 84.4149 140.061L84.2296 140.056Z" fill="#AB5BD1"/>
<path d="M89.9412 69.3995C112.02 69.3995 134.115 71.6319 141.163 79.9204C154.406 95.4733 158.259 118.925 158.259 118.925C158.259 118.925 124.728 138.709 84.4021 138.709H84.222C39.5486 138.642 2.72579 118.925 2.72579 118.925C2.72579 118.925 6.9136 107.634 9.90709 97.9804C12.9006 88.3267 23.2915 75.889 23.2915 75.889C23.2915 75.889 27.2941 73.2305 37.5923 72.3813C42.905 71.9424 66.405 69.4122 89.9232 69.4122L89.9412 69.3995ZM89.9232 66.6896C69.5015 66.6896 49.1777 68.5758 40.5036 69.3815C39.1522 69.5073 38.0917 69.6073 37.371 69.6663C26.6788 70.549 22.2492 73.3102 21.7781 73.6231C21.5595 73.7651 21.3625 73.9379 21.1938 74.1364C20.7536 74.6624 10.409 87.113 7.29454 97.1669C4.37569 106.628 0.211051 117.855 0.169868 117.968C-0.0567678 118.583 -0.0532084 119.259 0.179892 119.872C0.412993 120.484 0.859992 120.993 1.43882 121.303C2.96775 122.122 39.3839 141.347 84.227 141.411H84.4098C125.016 141.411 158.264 122.071 159.659 121.25C160.132 120.97 160.51 120.554 160.743 120.057C160.976 119.56 161.053 119.004 160.964 118.463C160.802 117.475 156.833 94.0851 143.255 78.1472C136.679 70.4232 119.24 66.6691 89.9412 66.6691L89.9232 66.6896Z" fill="#3D474E"/>
<path d="M2.73364 118.912C2.73364 118.912 22.2441 104.285 47.5203 99.4355C61.2599 96.8027 47.9088 71.5191 37.6106 72.3633C27.3122 73.2076 23.3098 75.8711 23.3098 75.8711C23.3098 75.8711 12.9084 88.3141 9.92524 97.9625C6.94204 107.611 2.73364 118.912 2.73364 118.912Z" fill="#C078E2"/>
<path d="M65.9677 109.636C65.9677 109.636 64.5571 123.729 87.0019 120.942C103.733 118.863 113.954 146.585 130.123 128.861C155.433 101.124 140.671 78.1678 140.537 78.0087C124.81 59.5329 26.0535 70.5389 26.0535 70.5389C26.0535 70.5389 16.445 81.8579 13.2971 92.3043C8.14663 109.384 33.8218 118.594 65.9677 109.636Z" fill="#BB69E1"/>
<path d="M82.1086 104.696C79.9389 108.46 79.0508 114.752 89.7842 117.318C100.517 119.885 122.664 108.08 122.664 108.08L118.659 117.254C115.531 120.566 111.627 123.051 107.297 124.486C102.116 126.151 99.1275 139.13 107.297 143.961C117.091 149.753 120.424 145.719 127.281 139.515C137.278 130.462 162.159 98.5963 139.278 65.6659C116.399 32.7355 80.76 41.6654 79.8796 39.6818C78.9092 20.8288 71.2723 16.446 71.2723 16.446L61.36 22.1914C61.36 22.1914 56.5804 24.8602 45.7698 24.4239C37.3092 24.0826 31.9889 22.3069 31.9889 22.3069C29.814 18.4297 23.2375 16.9798 23.2375 16.9798C23.2375 16.9798 15.4436 21.1907 13.526 37.6598C11.2918 56.8361 26.0457 70.5287 26.0457 70.5287C26.0457 70.5287 22.4422 73.2024 19.5516 82.4428C16.6611 91.6834 19.9505 102.063 25.4304 104.026C29.4664 105.473 56.2561 110.426 66.4436 107.395C70.091 106.31 74.3174 103.346 75.0328 102.099C75.823 100.731 82.608 103.808 82.1086 104.696Z" fill="#DDDDDD"/>
<path d="M83.1589 104.586C78.894 108.948 80.6828 114.819 91.4162 117.385C102.149 119.951 123.163 107.752 123.163 107.752L123.678 98.6117C123.678 98.6117 117.678 107.644 102.345 110.742C91.1382 113.005 84.9144 108.781 85.1126 106.456C85.3108 104.131 85.478 102.715 85.478 102.715C84.665 103.287 83.8903 103.912 83.1589 104.586Z" fill="#BBBBBB"/>
<path d="M19.5284 84.3162C19.392 85.8737 17.9841 91.2702 18.0202 92.4839C18.1874 98.7734 17.7035 102.25 23.8655 104.696C29.5077 106.939 37.3478 108.802 41.1624 104.84C41.1624 104.84 46.7428 101.912 41.636 99.8435C38.9206 98.7452 30.6222 102.284 23.0418 97.4827C19.2711 95.0987 19.5284 84.3162 19.5284 84.3162Z" fill="#BBBBBB"/>
<path d="M144.033 75.9995C150.087 101.948 140.023 127.424 131.853 134.811C125.004 141.016 116.667 150.66 106.865 144.868C98.6953 140.036 99.8664 127.041 105.048 125.378C105.048 125.378 101.331 145.537 122.085 136.669C137.286 130.177 140.795 108.119 142.913 97.4826C144.49 89.5766 142.669 70.1462 144.033 75.9995Z" fill="#BBBBBB"/>
<path d="M101.007 72.5711C101.007 72.5711 90.0622 71.5164 87.8795 83.1792C85.6968 94.842 81.1718 94.6393 81.1718 94.6393C81.1718 94.6393 78.8294 95.5373 78.1834 97.7392C77.5374 99.9408 73.8952 101.511 75.401 101.845C76.9067 102.178 82.1086 104.696 82.1086 104.696C82.1086 104.696 85.1356 99.3993 88.0287 100.385C90.9218 101.37 91.0428 102.761 93.5911 102.112C96.1392 101.462 101.014 97.8982 101.014 97.8982C101.014 97.8982 91.7481 88.6398 92.6645 83.3485C93.5807 78.0574 101.007 72.5711 101.007 72.5711Z" fill="#BBBBBB"/>
<path d="M78.1782 97.7392C78.1782 97.7392 73.5452 107.395 60.4516 107.524C33.4251 107.78 44.0915 96.9539 44.0915 96.9539C44.0915 96.9539 50.3179 102.586 58.4362 102.715C70.6186 102.899 78.1782 97.7392 78.1782 97.7392Z" fill="#BBBBBB"/>
<path d="M41.1625 104.84L41.6361 99.8433C30.9002 102.715 28.0895 99.6381 23.042 97.4827" fill="#BBBBBB"/>
<path d="M20.7897 30.9418C20.7897 30.9418 21.114 32.6714 22.1796 32.7587C22.0355 32.0221 22.7408 30.2413 23.3018 30.0848C23.1937 30.9059 23.9608 31.0137 24.6351 31.5346C24.8696 30.9959 25.2709 30.5461 25.7805 30.2515C25.7163 29.3226 25.6261 28.4554 25.5026 27.5828C25.3585 26.5564 25.1989 25.5736 24.9877 24.6114C24.7753 23.6757 24.4984 22.7557 24.159 21.858C24.0406 21.5423 23.9016 21.2446 23.7755 20.9495C21.4873 23.608 19.7035 27.457 18.5633 32.1658C18.3475 33.0956 18.1935 34.0385 18.1025 34.9885C19.1321 32.2607 20.7897 30.9418 20.7897 30.9418Z" fill="#F7A1A1"/>
<path d="M75.2956 24.5804C74.5607 22.6346 73.5548 20.8015 72.3072 19.1353C72.0806 19.4706 71.8761 19.8204 71.6946 20.1822C71.2027 21.1765 70.7856 22.2058 70.4463 23.2615C70.0756 24.3777 69.7539 25.5324 69.3883 26.7127C69.2004 27.303 69.0126 27.9034 68.7989 28.509C68.629 28.9966 68.4489 29.4893 68.2429 29.9871C68.6574 30.2562 69.0376 30.574 69.3755 30.934C69.8955 31.4305 70.3348 32.0043 70.6779 32.6352C71.499 32.0426 71.8259 31.0238 71.6637 29.7357C72.5183 29.692 73.3471 31.9245 73.1721 32.7559C74.4591 32.6558 75.5993 31.1572 75.5993 31.1572C76.3871 31.8862 77.0595 32.7297 77.5941 33.6592C77.1847 30.5696 76.4177 27.5376 75.3084 24.6241C75.3026 24.61 75.2983 24.5953 75.2956 24.5804Z" fill="#F7A1A1"/>
<path d="M70.3457 17.3416L72.7653 19.3763C72.7653 19.3763 69.9596 24.8421 69.3882 26.7128C68.8323 28.5296 68.2428 29.9819 68.2428 29.9819C68.2428 29.9819 65.3884 32.7636 65.4115 29.8203C65.4347 26.8771 70.3457 17.3416 70.3457 17.3416Z" fill="#DC5867"/>
<path d="M24.9183 15.9917L22.3032 17.77C22.3032 17.77 24.6351 23.8259 25.0366 25.6606C25.4383 27.4954 25.7187 30.2205 25.7187 30.2205C25.7187 30.2205 28.8924 32.3119 29.0803 30.1718C29.3429 27.2465 24.9183 15.9917 24.9183 15.9917Z" fill="#DC5867"/>
<path d="M47.7207 68.6066C59.1516 69.8281 47.3424 82.6533 43.4609 81.4832C40.4596 80.5748 36.2925 67.3826 47.7207 68.6066Z" fill="white"/>
<path d="M71.2723 16.446L61.3602 22.1914C61.3602 22.1914 56.5803 24.8602 45.7698 24.4239C37.3092 24.0826 31.9889 22.3069 31.9889 22.3069C29.814 18.4297 23.2375 16.9798 23.2375 16.9798C23.2375 16.9798 15.4436 21.1907 13.526 37.6598C11.2918 56.8361 26.0457 70.5285 26.0457 70.5285C26.0457 70.5285 14.7872 48.681 17.6186 37.4031C20.9647 24.0133 25.1267 20.9469 25.1267 20.9469C25.1267 20.9469 30.7894 35.9276 48.1507 35.0604C65.5118 34.193 70.1269 20.1104 70.1269 20.1104C73.3186 23.2795 75.6507 26.6102 77.334 30.8186C77.334 30.8186 77.2362 24.4752 74.6108 20.5389C73.6282 19.0739 72.5106 17.7037 71.2723 16.446Z" fill="white"/>
<path d="M80.5643 41.9938C80.5643 41.9938 81.1563 42.0142 79.4498 47.5288C78.4091 50.8764 77.123 54.1433 75.6018 57.3029C75.6018 57.3029 80.8707 52.3658 96.3245 51.0982C121.088 49.0633 142.326 70.5285 142.326 70.5285C142.326 70.5285 126.754 47.0771 104.448 42.2375C93.349 39.8331 80.5643 41.9938 80.5643 41.9938Z" fill="white"/>
<path d="M38.3027 108.427C35.7306 108.395 33.1687 108.098 30.6583 107.539C24.0328 106.148 19.6907 103.669 17.3818 99.9846C14.2931 95.0525 15.7705 89.2634 16.746 85.4297C18.1047 80.1284 20.4385 75.1246 23.6287 70.6722C20.0484 66.8539 9.75781 54.2647 11.7166 37.4493C13.7217 20.2411 22.0123 15.5736 22.3625 15.3811C22.7471 15.1709 23.1956 15.108 23.6236 15.204C24.3804 15.3707 31.0881 16.9592 33.5797 21.419C35.8807 25.5248 36.4469 28.7093 36.4702 28.8427C36.5524 29.3191 36.4415 29.8086 36.1617 30.2034C35.882 30.5982 35.4564 30.8661 34.9785 30.9482C34.5007 31.0301 34.0098 30.9196 33.6136 30.6407C33.2176 30.3618 32.9489 29.9375 32.8667 29.4611C32.8667 29.4226 32.3519 26.7 30.3854 23.1896C29.1293 20.9264 25.5412 19.5021 23.5799 18.9428C21.9275 20.2257 16.8156 25.1784 15.3433 37.8676C13.2404 55.9225 27.1551 69.0684 27.2941 69.1994C27.6379 69.5185 27.8449 69.9576 27.8718 70.4253C27.8987 70.8929 27.7433 71.3527 27.4383 71.7089C27.3868 71.768 22.5296 77.5083 20.2879 86.3355C19.1965 90.6132 18.3908 94.7318 20.4809 98.0728C22.2131 100.842 25.8861 102.835 31.4176 103.993C37.3119 105.232 40.2255 104.763 41.9707 104.485L42.3285 104.426C42.5651 104.39 42.8066 104.401 43.039 104.458C43.2715 104.514 43.4905 104.616 43.6836 104.758C43.8765 104.899 44.0398 105.076 44.1639 105.28C44.2879 105.484 44.3706 105.711 44.4069 105.947C44.4433 106.183 44.4327 106.423 44.3756 106.655C44.3187 106.887 44.2165 107.105 44.0749 107.298C43.9333 107.49 43.755 107.653 43.5503 107.777C43.3456 107.9 43.1185 107.983 42.8819 108.019L42.5473 108.073C41.1454 108.313 39.7253 108.432 38.3027 108.427Z" fill="#3D474E"/>
<path d="M66.3305 68.7707C65.9303 68.771 65.5411 68.6398 65.2231 68.3974C64.905 68.155 64.6758 67.8151 64.571 67.4298C64.4663 67.0447 64.4914 66.6359 64.6429 66.2664C64.7944 65.8972 65.0637 65.5877 65.4091 65.3861C65.9625 65.0628 78.9583 57.2414 78.06 39.7766C77.3084 25.1501 72.4102 19.7613 70.8298 18.3909C69.3756 18.7631 65.8415 20.0307 62.9587 23.9671C61.2703 26.2765 60.1839 29.6664 60.1737 29.6997C60.0287 30.1595 59.7064 30.5428 59.2777 30.7657C58.8491 30.9885 58.3491 31.0325 57.8881 30.8878C57.427 30.7432 57.0423 30.4218 56.8188 29.9946C56.5954 29.5672 56.5512 29.0688 56.6963 28.6091C56.7477 28.4474 57.9679 24.6239 60.0168 21.8244C64.6498 15.5195 70.7835 14.6805 71.0435 14.6393C71.4376 14.5883 71.8376 14.6687 72.1812 14.8678C72.5286 15.0654 80.6906 19.9692 81.7048 39.5843C82.7189 59.3173 67.88 68.1497 67.2495 68.5167C66.9717 68.6822 66.6543 68.7699 66.3305 68.7707Z" fill="#3D474E"/>
<path d="M48.1096 26.2868C47.3373 26.2868 46.5343 26.2714 45.6951 26.2381C37.0776 25.8916 31.639 24.1057 31.4124 24.0286C30.9625 23.8697 30.593 23.5409 30.3836 23.1132C30.1743 22.6854 30.1415 22.193 30.2926 21.7414C30.4437 21.2899 30.7664 20.9156 31.1915 20.6988C31.6165 20.482 32.1099 20.4404 32.5656 20.5824C32.617 20.6003 37.7854 22.2838 45.8419 22.6097C55.8802 23.0099 60.4361 20.6235 60.4825 20.6003C60.9045 20.3751 61.3982 20.3243 61.8574 20.459C62.3167 20.5937 62.7042 20.9031 62.9364 21.3204C63.1687 21.7376 63.2269 22.2292 63.0987 22.6889C62.9703 23.1486 62.6658 23.5395 62.2508 23.7772C62.0526 23.885 57.6357 26.2868 48.1096 26.2868Z" fill="#3D474E"/>
<path d="M73.5427 105.16C73.2532 105.161 72.9677 105.093 72.7098 104.962C72.4519 104.831 72.2293 104.64 72.0601 104.406L68.3973 99.3198C68.2544 99.1262 68.1514 98.9063 68.0943 98.6728C68.0372 98.4392 68.0272 98.1967 68.0648 97.9592C68.1023 97.7218 68.1869 97.4941 68.3134 97.2895C68.4399 97.0848 68.6059 96.9073 68.8017 96.767C68.9976 96.6267 69.2194 96.5266 69.4543 96.4724C69.6892 96.4184 69.9326 96.4112 70.1703 96.4514C70.4081 96.4918 70.6354 96.5787 70.8392 96.7073C71.0429 96.8358 71.2191 97.0033 71.3574 97.2002L75.0202 102.286C75.2148 102.558 75.331 102.877 75.3555 103.21C75.3803 103.542 75.3126 103.875 75.1599 104.172C75.0074 104.469 74.7756 104.718 74.4904 104.892C74.2051 105.067 73.8772 105.159 73.5427 105.16Z" fill="#3D474E"/>
<path d="M63.0846 109.21C62.6551 109.211 62.239 109.061 61.9094 108.786C61.5798 108.512 61.358 108.13 61.2828 107.708L60.3845 102.597C60.301 102.12 60.4105 101.63 60.6893 101.235C60.9682 100.839 61.3932 100.57 61.871 100.486C62.3489 100.403 62.8403 100.512 63.2374 100.79C63.6344 101.068 63.9044 101.492 63.9881 101.968L64.8863 107.08C64.9694 107.554 64.8602 108.043 64.5827 108.437C64.3053 108.831 63.8823 109.1 63.4063 109.184C63.3001 109.201 63.1924 109.21 63.0846 109.21Z" fill="#3D474E"/>
<path d="M23.8656 95.1218C23.727 95.1216 23.589 95.106 23.4537 95.0756L19.1167 94.0749C18.879 94.0255 18.6536 93.9293 18.4538 93.7919C18.254 93.6544 18.0837 93.4785 17.953 93.2747C17.8223 93.0707 17.7338 92.8427 17.6927 92.6042C17.6514 92.3657 17.6586 92.1213 17.7134 91.8856C17.7683 91.6498 17.8699 91.4275 18.0122 91.2314C18.1545 91.0353 18.3347 90.8694 18.5421 90.7438C18.7495 90.6182 18.9801 90.5349 19.2202 90.4993C19.4604 90.4636 19.7052 90.4763 19.9404 90.5362L24.2748 91.537C24.7167 91.632 25.1073 91.8875 25.3709 92.2535C25.6344 92.6196 25.7522 93.0702 25.7011 93.5179C25.6501 93.9657 25.434 94.3785 25.0949 94.6764C24.7557 94.9741 24.3175 95.1356 23.8656 95.1295V95.1218Z" fill="#3D474E"/>
<path d="M23.0446 104.532C22.6639 104.532 22.2929 104.413 21.9835 104.192C21.674 103.971 21.4417 103.659 21.3191 103.3C21.1965 102.941 21.1897 102.553 21.2997 102.19C21.4097 101.826 21.6311 101.507 21.9325 101.275L26.7097 97.6264C27.0934 97.333 27.5783 97.2036 28.0575 97.2667C28.537 97.3297 28.9715 97.58 29.2656 97.9625C29.5599 98.345 29.6897 98.8283 29.6264 99.3061C29.5632 99.7841 29.3122 100.217 28.9285 100.511L24.1513 104.157C23.8343 104.401 23.4449 104.533 23.0446 104.532Z" fill="#3D474E"/>
<path d="M112.842 148.062C111.262 148.062 109.691 147.82 108.185 147.344C103.418 145.85 100.173 141.624 99.5036 136.035C98.927 131.214 100.461 126.818 103.326 125.099C109.49 121.393 115.014 117.657 120.183 109.43C126.082 100.036 120.26 95.2834 120.01 95.0858C119.644 94.7861 119.41 94.3563 119.356 93.8873C119.303 93.4182 119.434 92.9467 119.723 92.5728C120.012 92.1989 120.436 91.9518 120.905 91.884C121.373 91.8161 121.85 91.9328 122.234 92.2093C122.319 92.276 130.985 99.0838 123.264 111.357C117.668 120.267 111.771 124.259 105.197 128.209C103.856 129.017 102.67 131.881 103.112 135.604C103.298 137.144 104.291 142.317 109.272 143.879C120.134 147.285 130.731 133.405 133.724 129.071C134.023 128.637 163.218 85.4092 128.798 56.8693C102.86 35.363 82.1191 43.5052 81.2492 43.8618C80.8053 44.0353 80.3109 44.0284 79.872 43.8427C79.4332 43.657 79.0849 43.3072 78.9016 42.8685C78.7185 42.4297 78.715 41.9369 78.8921 41.4956C79.0692 41.0543 79.4126 40.6998 79.8489 40.508C80.7987 40.1128 103.403 31.0905 131.127 54.0748C160.7 78.5885 147.723 115.196 136.73 131.126C132.965 136.587 123.745 148.062 112.842 148.062Z" fill="#3D474E"/>
<path d="M93.8098 118.861H93.6117C87.4059 118.832 82.5977 116.651 80.4176 112.879C78.8089 110.095 78.845 106.697 80.5155 103.793C83.7405 98.1831 88.2862 98.5064 92.299 98.7887C93.3877 98.8682 94.5152 98.9427 95.6115 98.9144C97.1199 98.8682 98.1083 98.5757 98.7518 98.2446C96.5537 96.7614 93.4186 93.6386 92.0415 87.4389C89.8099 77.3877 99.6347 71.2547 100.054 70.9981C100.465 70.7616 100.953 70.6945 101.413 70.8107C101.873 70.927 102.269 71.2176 102.518 71.6207C102.766 72.0238 102.847 72.5076 102.743 72.9694C102.639 73.4309 102.359 73.834 101.962 74.0928C101.632 74.2954 93.9308 79.1505 95.6013 86.6538C97.3259 94.4289 102.113 95.9557 102.162 95.9711C102.61 96.1066 102.988 96.4082 103.219 96.8136C103.45 97.219 103.516 97.6972 103.403 98.1498C103.359 98.3217 102.278 102.345 95.7222 102.543C94.493 102.566 93.2634 102.523 92.0389 102.412C88.2656 102.155 85.7663 101.968 83.6763 105.599C82.6467 107.395 82.6055 109.389 83.5758 111.065C85.0919 113.677 88.7547 115.217 93.6297 115.217H93.8124C106.682 115.217 117.928 108.927 122.182 106.212C122.589 105.971 123.074 105.896 123.534 106.005C123.995 106.113 124.395 106.396 124.65 106.793C124.906 107.191 124.996 107.672 124.902 108.134C124.807 108.596 124.537 109.004 124.146 109.271C119.624 112.171 107.642 118.861 93.8098 118.861Z" fill="#3D474E"/>
<path d="M146.166 103.846C145.085 103.846 142.699 103.333 136.097 101.599C135.858 101.545 135.633 101.443 135.434 101.301C135.236 101.158 135.068 100.977 134.941 100.768C134.814 100.559 134.731 100.327 134.696 100.086C134.661 99.844 134.675 99.5979 134.738 99.3619C134.801 99.126 134.91 98.905 135.06 98.7123C135.211 98.5195 135.398 98.3588 135.612 98.2399C135.826 98.121 136.061 98.0464 136.305 98.0203C136.548 97.9942 136.795 98.0172 137.029 98.0881C140.586 99.0248 144.825 100.056 145.932 100.208C146.117 100.18 146.307 100.18 146.493 100.208C146.971 100.283 147.4 100.544 147.684 100.934C147.969 101.323 148.087 101.81 148.012 102.286C147.969 102.541 147.874 102.783 147.733 103C147.592 103.216 147.408 103.401 147.193 103.544C146.898 103.762 146.534 103.869 146.166 103.846ZM144.411 101.714C144.411 101.714 144.415 101.696 144.415 101.694L144.411 101.714ZM144.447 101.552C144.431 101.605 144.42 101.659 144.411 101.714C144.42 101.652 144.434 101.591 144.451 101.532L144.447 101.552Z" fill="#3D474E"/>
<path d="M139.855 123.803C139.469 123.803 139.093 123.68 138.782 123.451L128.854 116.21C128.661 116.068 128.498 115.891 128.374 115.686C128.25 115.482 128.167 115.255 128.131 115.019C128.095 114.783 128.106 114.543 128.163 114.311C128.22 114.079 128.322 113.861 128.464 113.668C128.606 113.476 128.784 113.313 128.989 113.189C129.194 113.066 129.421 112.983 129.658 112.947C129.895 112.911 130.136 112.922 130.369 112.979C130.602 113.036 130.821 113.138 131.014 113.279L140.939 120.521C141.249 120.747 141.479 121.066 141.596 121.43C141.714 121.795 141.713 122.188 141.593 122.552C141.473 122.916 141.241 123.233 140.93 123.457C140.619 123.682 140.245 123.803 139.86 123.803H139.855Z" fill="#3D474E"/>
<path d="M129.984 138.488C129.528 138.49 129.088 138.318 128.754 138.009L120.862 130.795C120.678 130.636 120.529 130.442 120.422 130.224C120.315 130.006 120.253 129.769 120.239 129.527C120.226 129.285 120.261 129.042 120.343 128.814C120.424 128.585 120.551 128.376 120.716 128.197C120.88 128.018 121.079 127.874 121.3 127.773C121.522 127.672 121.761 127.617 122.004 127.609C122.247 127.602 122.49 127.643 122.716 127.731C122.943 127.818 123.15 127.95 123.325 128.119L131.217 135.332C131.488 135.58 131.677 135.903 131.761 136.259C131.844 136.616 131.817 136.99 131.684 137.331C131.551 137.672 131.317 137.965 131.014 138.172C130.71 138.379 130.351 138.489 129.984 138.488Z" fill="#3D474E"/>
<path d="M66.1966 17.9137C66.1966 17.9137 65.0487 21.555 64.835 24.8242C64.6214 28.1395 65.3498 31.1804 65.8955 31.1804C66.8608 31.1804 67.6535 27.1285 69.1799 23.577C70.1776 21.3013 71.3318 19.097 72.634 16.9797L69.8027 16.8L66.1966 17.9137Z" fill="#3D474E"/>
<path d="M28.298 17.9137C28.298 17.9137 29.4486 21.5472 29.6622 24.8242C29.8758 28.1395 29.1474 31.1804 28.6018 31.1804C27.6365 31.1804 26.8437 27.1285 25.3174 23.577C24.448 21.5319 23.4304 19.5524 22.2725 17.6545L24.7099 16.8L28.298 17.9137Z" fill="#3D474E"/>
<path d="M81.0404 106.654C80.6506 106.654 80.2712 106.528 79.9594 106.295C79.8436 106.207 79.0996 105.625 75.8565 102.63C75.5056 102.302 75.2993 101.849 75.2824 101.369C75.2655 100.89 75.4395 100.423 75.7664 100.071C76.0934 99.7191 76.5466 99.5102 77.0273 99.4902C77.5082 99.4701 77.9774 99.6405 78.3326 99.964C81.4343 102.828 82.1292 103.377 82.1575 103.397C82.4579 103.63 82.6779 103.95 82.7868 104.313C82.8956 104.676 82.888 105.064 82.765 105.423C82.6419 105.782 82.4096 106.093 82.1004 106.314C81.7912 106.534 81.4206 106.653 81.0404 106.654Z" fill="#3D474E"/>
<path d="M59.2754 109.897C55.6023 109.897 52.1327 109.489 49.5562 109.186C48.4159 109.053 47.479 108.93 46.833 108.909C43.1315 108.732 40.1818 106.579 39.4895 103.551C39.1034 101.873 38.9747 97.5519 46.1044 93.7078C53.8727 89.5149 60.1428 89.8947 63.5146 90.1C64.1057 90.1559 64.6999 90.1713 65.2932 90.1461C65.5357 90.0991 65.7853 90.1017 66.0266 90.1538C66.2681 90.2059 66.4964 90.3064 66.6976 90.4492C66.8989 90.5919 67.0689 90.774 67.1974 90.9844C67.326 91.1947 67.4103 91.4288 67.4453 91.6726C67.4802 91.9164 67.465 92.1647 67.4007 92.4024C67.3365 92.6402 67.2243 92.8624 67.0712 93.0558C66.918 93.249 66.7271 93.4091 66.5099 93.5266C66.2928 93.644 66.0541 93.7162 65.808 93.7386C64.9713 93.8155 64.129 93.8103 63.2933 93.7232C60.0784 93.5283 54.6938 93.21 47.8496 96.9001C44.4315 98.7451 42.6349 100.929 43.0518 102.743C43.371 104.139 45.0029 105.181 47.0183 105.278C47.7235 105.312 48.7454 105.43 49.9937 105.576C55.7979 106.259 66.6085 107.529 72.2248 102.843C78.513 97.593 73.167 85.9429 73.1103 85.8249C72.9055 85.3883 72.883 84.8885 73.0479 84.4354C73.2127 83.9823 73.5513 83.6131 73.9893 83.4089C74.4272 83.2048 74.9286 83.1823 75.383 83.3468C75.8375 83.5111 76.2078 83.8486 76.4127 84.2852C76.6855 84.8652 83.0019 98.5834 74.5621 105.627C70.4977 109.017 64.6703 109.897 59.2754 109.897Z" fill="#3D474E"/>
<path d="M47.5765 96.8718C47.3159 96.8732 47.058 96.8182 46.8207 96.7105C46.5834 96.603 46.3723 96.4451 46.2021 96.2483C46.2021 96.2483 44.9152 94.8652 42.1301 94.0467C40.174 93.4718 35.3118 92.2837 35.2629 92.2735C35.0247 92.2223 34.7993 92.1242 34.5999 91.9847C34.4006 91.8454 34.2312 91.6675 34.1018 91.4618C33.9726 91.2559 33.8861 91.0265 33.8473 90.7867C33.8085 90.5469 33.8182 90.302 33.876 90.0661C33.9338 89.8302 34.0385 89.6082 34.1838 89.4135C34.3291 89.2185 34.5121 89.0547 34.7221 88.9316C34.932 88.8084 35.1646 88.7285 35.4059 88.6964C35.6474 88.6644 35.8928 88.6809 36.1277 88.7452C36.3311 88.7939 41.1237 89.964 43.1623 90.5645C46.9666 91.6833 48.7606 93.6437 48.9511 93.8644C49.1799 94.1275 49.3283 94.4505 49.3783 94.7952C49.4282 95.1398 49.3777 95.4915 49.233 95.8083C49.0882 96.1253 48.855 96.394 48.5614 96.5826C48.2677 96.771 47.9259 96.8715 47.5765 96.8718Z" fill="#3D474E"/>
<path d="M46.6758 49.1967C48.4541 49.1967 49.8958 47.9376 49.8958 46.3844C49.8958 44.8311 48.4541 43.5719 46.6758 43.5719C44.8973 43.5719 43.4558 44.8311 43.4558 46.3844C43.4558 47.9376 44.8973 49.1967 46.6758 49.1967Z" fill="white"/>
<path d="M31.7623 51.7346C31.7623 52.7842 29.801 53.6362 27.3867 53.6362C24.9723 53.6362 23.011 52.7842 23.011 51.7346C23.011 50.6851 24.9723 49.8333 27.3867 49.8333C29.801 49.8333 31.7623 50.6851 31.7623 51.7346Z" fill="#DC5867"/>
<path d="M70.3483 51.7346C70.3483 52.7842 68.387 53.6362 65.9727 53.6362C63.5582 53.6362 61.5969 52.7842 61.5969 51.7346C61.5969 50.6851 63.5557 49.8333 65.9727 49.8333C68.3895 49.8333 70.3483 50.6851 70.3483 51.7346Z" fill="#DC5867"/>
<path d="M51.4787 51.8963C50.7808 51.8917 50.0976 51.6962 49.5034 51.3311C48.9093 50.9659 48.427 50.4452 48.1095 49.8255L49.0902 49.0249C49.2927 48.8593 49.439 48.6355 49.5091 48.384C49.5792 48.1324 49.5696 47.8653 49.4817 47.6194C49.3939 47.3734 49.2319 47.1605 49.0181 47.0097C48.8042 46.8589 48.5489 46.7777 48.287 46.777H45.0696C44.8077 46.7777 44.5524 46.8589 44.3387 47.0097C44.1248 47.1605 43.9629 47.3734 43.8751 47.6194C43.7871 47.8653 43.7776 48.1324 43.8476 48.384C43.9178 48.6355 44.0641 48.8593 44.2666 49.0249L45.2499 49.8281C44.9355 50.4496 44.4544 50.972 43.86 51.3372C43.2656 51.7023 42.5813 51.8959 41.8831 51.8963C41.7478 51.8894 41.6126 51.9102 41.4856 51.957C41.3587 52.0039 41.2426 52.076 41.1444 52.169C41.0462 52.2621 40.9681 52.374 40.9147 52.4981C40.8613 52.6221 40.8337 52.7557 40.8337 52.8907C40.8337 53.0257 40.8613 53.1593 40.9147 53.2834C40.9681 53.4075 41.0462 53.5194 41.1444 53.6124C41.2426 53.7054 41.3587 53.7775 41.4856 53.8243C41.6126 53.8713 41.7478 53.8919 41.8831 53.885C42.8306 53.8874 43.7641 53.6566 44.6006 53.213C45.437 52.7693 46.1508 52.1268 46.6783 51.3421C47.2112 52.123 47.9267 52.7629 48.763 53.2063C49.5993 53.6498 50.5314 53.8837 51.4787 53.8876C51.614 53.8945 51.7492 53.8738 51.8762 53.8269C52.0033 53.7801 52.1193 53.7079 52.2174 53.6149C52.3156 53.5219 52.3938 53.41 52.4472 53.286C52.5006 53.1619 52.5281 53.0282 52.5281 52.8933C52.5281 52.7583 52.5006 52.6247 52.4472 52.5007C52.3938 52.3765 52.3156 52.2646 52.2174 52.1716C52.1193 52.0786 52.0033 52.0065 51.8762 51.9596C51.7492 51.9127 51.614 51.892 51.4787 51.8989V51.8963Z" fill="#3D474E"/>
<path d="M66.8142 46.2331L66.8992 46.2535C67.0218 46.2806 67.1497 46.2717 67.2673 46.2279C67.4683 46.1342 67.6284 45.971 67.718 45.7686C67.8074 45.5661 67.8202 45.3381 67.7538 45.127C67.4724 44.1413 66.9058 43.2602 66.1248 42.5937C65.3438 41.9275 64.383 41.5054 63.3626 41.3805C62.3462 41.2669 61.3184 41.445 60.3999 41.8938C59.4213 42.3649 58.5992 43.1069 58.0319 44.0312C57.8228 44.3877 57.6979 44.7869 57.6667 45.1986C57.6355 45.6103 57.6987 46.0238 57.8518 46.4074C58.3229 47.5853 59.5198 48.0909 60.521 47.5366L60.8505 47.3519C61.3008 47.0951 61.6767 46.8694 62.0834 46.6692C62.4925 46.4569 62.9242 46.2908 63.3704 46.174C63.8679 46.0501 64.3787 45.9872 64.8916 45.9867C65.5399 45.9943 66.1852 46.0769 66.8142 46.2331Z" fill="#3D474E"/>
<path d="M32.9466 41.904C32.0264 41.4737 31.0006 41.3195 29.9942 41.4601C28.9943 41.6083 28.055 42.0292 27.2801 42.6764C26.5051 43.3235 25.9248 44.1716 25.6031 45.127C25.5506 45.2932 25.5427 45.47 25.58 45.6402C25.5936 45.7405 25.6283 45.837 25.6817 45.9231C25.7352 46.0093 25.8062 46.0834 25.8902 46.1404C25.9741 46.1975 26.0691 46.2363 26.169 46.2546C26.2691 46.2727 26.3717 46.2697 26.4705 46.2458L26.5425 46.2227C27.155 46.0159 27.7937 45.8968 28.4396 45.8686C28.9615 45.8595 29.482 45.928 29.9839 46.0713C30.4304 46.2107 30.8615 46.3946 31.2709 46.6204C31.675 46.8359 32.0431 47.0797 32.4909 47.3287L32.8255 47.5134C33.1426 47.6906 33.507 47.7652 33.8686 47.727C34.23 47.6889 34.5707 47.5398 34.8435 47.3005C35.747 46.5306 35.9555 45.0705 35.3146 44.0108C34.7498 43.0919 33.9262 42.3592 32.9466 41.904Z" fill="#3D474E"/>
<path d="M53.5122 15.0347L46.2615 2.73035L39.1857 14.8833L34.0815 7.30309L34.1793 21.0984C34.1793 21.0984 39.1883 22.7431 46.4055 22.8226C53.6229 22.9023 58.6086 21.3677 58.6086 21.3677L58.5109 7.57509L53.5122 15.0347Z" fill="#F9AC17"/>
<path d="M46.9642 23.2795H46.4005C39.1935 23.1998 34.2437 21.5986 34.0455 21.5293C33.9522 21.5024 33.87 21.4461 33.811 21.369C33.7522 21.2918 33.7198 21.1978 33.7186 21.1008L33.6209 7.3082C33.6204 7.21068 33.6515 7.11561 33.7094 7.03706C33.7673 6.9585 33.8491 6.90061 33.9426 6.87196C34.0363 6.84167 34.1374 6.84282 34.2304 6.87526C34.3234 6.90771 34.4031 6.96965 34.4573 7.05159L39.1548 14.0185L45.8702 2.50194C45.9095 2.43309 45.9664 2.37589 46.0353 2.3362C46.104 2.29653 46.182 2.27578 46.2615 2.27613C46.3409 2.27611 46.4189 2.29668 46.4881 2.33583C46.5571 2.37497 46.6147 2.43132 46.6552 2.49937L53.538 14.1801L58.1299 7.32359C58.1833 7.24053 58.2628 7.17754 58.3561 7.14455C58.4492 7.11156 58.5508 7.11045 58.6447 7.1414C58.7383 7.16887 58.8207 7.2256 58.8795 7.30321C58.9384 7.38082 58.9706 7.47522 58.9716 7.5725L59.0694 21.3626C59.0715 21.4628 59.0407 21.5608 58.9817 21.6419C58.9227 21.7229 58.8386 21.7826 58.7425 21.8116C58.5418 21.863 53.8623 23.2795 46.9642 23.2795ZM34.6324 20.7595C38.4716 21.8043 42.4312 22.3452 46.4107 22.3685C50.3667 22.4453 54.3151 21.9931 58.1505 21.0239L58.0655 9.05569L53.8906 15.2861C53.8496 15.3518 53.7917 15.4053 53.7229 15.4409C53.654 15.4766 53.5768 15.4931 53.4995 15.4888C53.422 15.4864 53.3464 15.4644 53.2797 15.425C53.2131 15.3854 53.1576 15.3297 53.1185 15.263L46.2641 3.63101L39.5718 15.104C39.5336 15.171 39.4787 15.2269 39.4124 15.2664C39.3461 15.3061 39.2707 15.3278 39.1935 15.3298C39.1179 15.3252 39.0441 15.3051 38.9767 15.2707C38.9094 15.2362 38.8499 15.1882 38.8022 15.1296L34.5475 8.80935L34.6324 20.7595Z" fill="#3D474E"/>
<path d="M49.6616 14.3701C49.6616 17.3416 48.143 19.7589 46.2666 19.7589C44.3901 19.7589 42.8767 17.3494 42.8767 14.3701C42.8767 11.3909 44.3979 8.98132 46.2717 8.98132C48.1456 8.98132 49.6771 11.4011 49.6616 14.3701Z" fill="#F9AC17"/>
<path d="M49.6616 14.3701C49.6616 17.3416 48.143 19.7589 46.2666 19.7589C44.3901 19.7589 42.8767 17.3494 42.8767 14.3701C42.8767 11.3909 44.3979 8.98132 46.2717 8.98132C48.1456 8.98132 49.6771 11.4011 49.6616 14.3701Z" fill="#DC5867"/>
<path d="M49.6515 14.7576C49.6515 14.6292 49.6515 14.501 49.6515 14.3726C49.6515 11.4011 48.1353 8.98389 46.2615 8.98389C44.3878 8.98389 42.8665 11.3934 42.8665 14.3726C42.8665 14.5036 42.8665 14.6292 42.8665 14.7576H49.6515Z" fill="#F7A1A1"/>
<path d="M46.2666 19.9795C44.2719 19.9795 42.6477 17.4622 42.6477 14.3701C42.6477 11.2779 44.2719 8.76318 46.2718 8.76318C47.2576 8.76318 48.1791 9.36108 48.8637 10.4465C49.5634 11.6356 49.9197 12.9943 49.8934 14.3726C49.8908 17.4622 48.2666 19.9795 46.2666 19.9795ZM46.2666 9.21738C44.5215 9.21738 43.1007 11.5268 43.0982 14.3701C43.0956 17.2132 44.5292 19.5227 46.2666 19.5253C48.0041 19.5279 49.4351 17.2158 49.4351 14.3726C49.463 13.0798 49.1317 11.8045 48.4776 10.6877C47.8753 9.75112 47.1032 9.21738 46.2718 9.21738H46.2666Z" fill="#F4EEE9"/>
<path d="M45.1109 14.37C45.1109 13.4462 45.6386 12.6995 46.2768 12.7046C46.9152 12.7097 47.4326 13.4565 47.43 14.3803C47.4274 15.304 46.9023 16.0508 46.2615 16.0482C45.6205 16.0456 45.1057 15.2886 45.1109 14.37Z" fill="white"/>
<path d="M57.4761 7.08745C57.6975 5.89422 58.8917 5.36304 58.8917 5.36304C58.8917 5.36304 59.7308 6.76155 59.512 7.95222C59.2932 9.14287 58.0964 9.67662 58.0964 9.67662C58.0964 9.67662 57.2573 8.2781 57.4761 7.08745Z" fill="#3C474D"/>
<path d="M45.1185 2.15037C45.152 0.913523 46.2331 0 46.2331 0C46.2331 0 47.2627 1.09315 47.224 2.33256C47.1855 3.57197 46.1095 4.48293 46.1095 4.48293C46.1095 4.48293 45.0851 3.38978 45.1185 2.15037Z" fill="#3C474D"/>
<path d="M33.2039 7.33899C32.8925 6.17913 33.6209 4.6908 33.6209 4.6908C33.6209 4.6908 34.8513 5.08598 35.1652 6.24584C35.4793 7.4057 34.7483 8.89403 34.7483 8.89403C34.7483 8.89403 33.518 8.50142 33.2039 7.33899Z" fill="#3C474D"/>
</g>
<defs>
<clipPath id="clip0_1139_1929">
<rect width="161" height="148.062" fill="white"/>
</clipPath>
</defs>
</svg>
