<svg width="81" height="84" viewBox="0 0 81 84" fill="none" xmlns="http://www.w3.org/2000/svg">
<path d="M1.56445 45.9397L25.7488 32.5471V68.8646L1.56445 82.3919V45.9397Z" fill="#853CA8" stroke="#3F474D" stroke-width="2" stroke-miterlimit="10" stroke-linecap="round" stroke-linejoin="round"/>
<path d="M79.1528 32.4009H25.4888V68.8534H79.1528V32.4009Z" fill="#853CA8" stroke="#3F474D" stroke-width="2" stroke-miterlimit="10" stroke-linecap="round" stroke-linejoin="round"/>
<path d="M35.6052 78.465C35.6052 78.465 50.1134 86.14 59.3265 79.714C68.5396 73.288 59.146 54.8194 59.146 54.8194C59.146 54.8194 68.4607 49.4174 71.5428 39.3561C74.6257 29.2948 77.6397 13.1337 71.0578 9.89247C64.4751 6.65127 62.5896 8.93586 61.3251 10.4214C60.0605 11.907 59.2136 14.8668 59.2136 14.8668C59.2136 14.8668 63.6848 23.7239 58.5815 31.3318C53.4781 38.9397 53.9748 36.7789 53.9748 36.7789C53.9748 36.7789 50.1022 35.102 48.5215 31.8945C46.9408 28.6871 53.3426 27.6066 53.3652 16.1949C53.3991 4.78307 47.7877 1.12537 47.7877 1.12537L41.3634 4.85057C41.3634 4.85057 38.2698 6.58366 31.2583 6.30236C25.7711 6.07726 22.3275 4.92937 22.3275 4.92937C20.9162 2.41967 16.6483 1.47427 16.6483 1.47427C16.6483 1.47427 11.6128 4.19776 10.3708 14.8668C8.92555 27.2915 17.4387 35.8673 17.4387 35.8673C17.4387 35.8673 17.3032 36.7451 16.0838 42.8674C14.8644 49.0235 11.4095 60.6491 11.5563 66.1749C11.6692 70.249 13.8257 73.873 17.4161 71.521C21.0065 69.1685 24.5179 50.7791 28.0744 52.0508C31.6309 53.3226 25.4098 73.58 29.2373 75.471C30.2309 75.955 33.5164 72.005 33.6858 73.288C33.9342 75.111 35.6052 78.465 35.6052 78.465Z" fill="#DDDDDD"/>
<path d="M73.6658 35.5296C69.8038 49.4061 60.8283 53.6489 60.8283 53.6489L57.2604 41.3818C57.2604 41.3818 52.9587 40.1776 56.312 35.7209C58.0169 33.4476 60.5686 42.5523 66.8574 37.2177C75.6078 29.8012 74.0498 12.8411 74.0498 12.8411C74.0498 12.8411 76.5788 25.0294 73.6658 35.5296Z" fill="#BBBBBB"/>
<path d="M37.4232 65.0945C34.6119 73.817 31.5634 76.619 29.2489 75.471C28.4134 75.054 28.0859 71.239 27.9956 69.4611C27.9956 69.4611 29.9602 71.948 32.1618 69.9901C34.3635 68.0318 37.4232 65.0945 37.4232 65.0945Z" fill="#EFAB6B"/>
<path d="M11.6694 63.4625C11.5791 64.4754 11.5452 65.387 11.5678 66.1748C11.6807 70.2489 13.8372 73.8729 17.4276 71.5209C19.5389 70.1359 21.6277 63.2037 23.7052 57.9929C23.7052 57.9929 18.0373 67.8629 15.2485 67.0976C12.4598 66.3323 11.6694 63.4625 11.6694 63.4625Z" fill="#EFAB6B"/>
<path d="M23.3662 51.308C14.3789 48.9446 14.6499 45.2757 16.1628 39.7611C16.1628 39.7611 12.2111 44.5104 35.3454 44.6117C56.5039 44.713 52.9248 38.1068 56.8991 37.8479C59.7443 37.6566 62.0476 46.7613 59.9137 47.8867C54.37 50.824 35.4696 54.4929 23.3662 51.308Z" fill="#BBBBBB"/>
<path d="M39.9184 59.0058C39.9184 59.0058 41.5443 60.6602 42.9104 60.6602C44.2766 60.6602 47.6525 57.9254 47.6525 57.9254C47.6525 57.9254 43.9153 61.6393 44.9766 65.1056C46.0379 68.5719 47.6525 71.2389 47.6525 71.2389C47.6525 71.2389 44.3218 71.9149 42.7072 71.4309C41.1039 70.9469 36.4071 71.4529 36.4071 71.4529L35.3345 70.4179L39.9184 59.0058Z" fill="#EFAB6B"/>
<path d="M15.0791 10.5227C15.0791 10.5227 15.2937 11.6369 15.9824 11.7044C15.8921 11.2317 16.3437 10.0726 16.705 9.97128C16.6372 10.5002 17.134 10.579 17.5743 10.9166C17.7437 10.5115 18.0598 10.2189 18.3195 10.0838C18.2744 9.47609 18.2179 8.91338 18.1389 8.35069C18.0373 7.68669 17.9356 7.03389 17.7889 6.41489C17.6421 5.79589 17.4614 5.18818 17.2469 4.62548C17.1679 4.42288 17.0889 4.23158 16.9985 4.04028C15.5195 5.77338 14.3678 8.24939 13.6227 11.3105C13.4985 11.817 13.3968 12.4359 13.3291 13.145C13.9952 11.378 15.0791 10.5227 15.0791 10.5227Z" fill="#EBA5A3"/>
<path d="M50.396 6.39232C49.8427 4.98552 49.1766 3.78132 48.454 2.85852C48.3185 3.06112 48.183 3.28612 48.0588 3.53372C47.754 4.11902 47.483 4.80552 47.2459 5.52572C47.0088 6.24602 46.8056 7.00002 46.5572 7.76532C46.433 8.14802 46.3201 8.54192 46.1733 8.92452C46.0604 9.23962 45.9475 9.55482 45.812 9.88112C46.004 9.98242 46.2749 10.2188 46.5459 10.5001C46.8959 10.8602 47.2459 11.2879 47.3927 11.603C47.9233 11.2204 48.1379 10.5564 48.0363 9.72362C48.5895 9.68982 49.1314 11.1416 49.0185 11.6818C49.854 11.6143 50.5879 10.6464 50.5879 10.6464C50.5879 10.6464 51.2315 11.1866 51.875 12.267C51.5815 10.1625 51.0847 8.15922 50.396 6.41482C50.4073 6.41482 50.396 6.40362 50.396 6.39232Z" fill="#EBA5A3"/>
<path d="M47.1896 1.71057L48.759 3.02737C48.759 3.02737 46.9412 6.57247 46.5686 7.77667C46.2073 8.95837 45.8234 9.89247 45.8234 9.89247C45.8234 9.89247 43.9718 11.6931 43.9943 9.79117C44.0056 7.88917 47.1896 1.71057 47.1896 1.71057Z" fill="#CE616A"/>
<path d="M17.7434 0.832764L16.0498 1.98076C16.0498 1.98076 17.5628 5.90846 17.8225 7.10136C18.0821 8.29436 18.2628 10.0613 18.2628 10.0613C18.2628 10.0613 20.3177 11.4118 20.4419 10.0275C20.6112 8.12556 17.7434 0.832764 17.7434 0.832764Z" fill="#CE616A"/>
<path d="M32.5228 34.9219C39.9294 35.7097 32.2744 44.0266 29.7566 43.2613C27.826 42.676 25.1162 34.1341 32.5228 34.9219Z" fill="white"/>
<path d="M47.7879 1.12537L41.3636 4.85057C41.3636 4.85057 38.27 6.58366 31.2585 6.30236C25.7713 6.07726 22.3277 4.92937 22.3277 4.92937C20.9164 2.41967 16.6486 1.47427 16.6486 1.47427C16.6486 1.47427 11.613 4.19777 10.371 14.8669C8.92583 27.2915 16.4228 33.4926 16.4228 33.4926C16.4228 33.4926 11.1839 22.002 13.0243 14.698C15.2034 6.02097 17.8905 4.02896 17.8905 4.02896C17.8905 4.02896 21.56 13.7414 32.8166 13.1675C44.0733 12.5935 47.0653 3.47757 47.0653 3.47757C49.1315 5.53707 50.6444 7.68656 51.7283 10.4214C51.7283 10.4214 51.6606 6.31357 49.967 3.75887C48.917 2.21707 47.7879 1.12537 47.7879 1.12537Z" fill="white"/>
<path d="M49.5602 31.5344L45.6311 33.8527C45.6311 33.8527 45.5182 35.901 50.249 38.2531C51.5813 38.9171 54.9007 39.1872 54.9007 39.1872C53.4781 38.2869 52.6087 37.4091 51.7845 36.1373C50.9603 34.8544 49.5602 31.5344 49.5602 31.5344Z" fill="white"/>
<path d="M67.0835 9.03705C66.5642 9.22845 60.2302 10.4438 59.6656 12.6496C59.1011 14.8555 59.5414 17.1402 59.5414 17.1402C59.5414 17.1402 60.2076 29.0246 60.1173 30.105C60.0269 31.1854 63.5496 27.3702 63.098 16.5098C62.8609 10.7364 69.364 8.19305 67.0835 9.03705Z" fill="white"/>
<path d="M44.096 52.0507C44.096 52.0507 40.2346 56.3836 37.4232 65.0944C34.6119 73.8049 31.5635 76.6189 29.2489 75.4709C25.4214 73.5799 31.6425 53.3225 28.086 52.0507C24.5294 50.779 21.0181 69.1798 17.4277 71.521C13.8373 73.862 11.6808 70.2489 11.5679 66.1748C11.4211 60.6602 14.4131 50.0813 15.4293 43.8914C16.4115 37.9267 17.247 34.8768 17.247 34.8768C17.247 34.8768 8.9146 27.3027 10.3598 14.878C11.6018 4.20904 16.6486 1.47424 16.6486 1.47424C16.6486 1.47424 20.9165 2.41964 22.3278 4.92934C23.7391 7.43894 24.0665 9.36344 24.0665 9.36344" stroke="#3F474D" stroke-width="2" stroke-miterlimit="10" stroke-linecap="round" stroke-linejoin="round"/>
<path d="M45.6314 33.8527C45.6314 33.8527 53.9977 28.3944 53.3768 16.1836C52.7558 3.97267 47.7879 1.12537 47.7879 1.12537C47.7879 1.12537 44.175 1.57557 41.4426 5.30067C40.212 6.97757 39.4668 9.35226 39.4668 9.35226" stroke="#3F474D" stroke-width="2" stroke-miterlimit="10" stroke-linecap="round" stroke-linejoin="round"/>
<path d="M22.3281 4.91803C22.3281 4.91803 25.7717 6.06593 31.2589 6.29103C38.2703 6.57233 41.364 4.83923 41.364 4.83923" stroke="#3F474D" stroke-width="2" stroke-miterlimit="10" stroke-linecap="round" stroke-linejoin="round"/>
<path d="M51.1525 55.8998C51.1525 55.8998 44.9653 57.9368 44.8976 63.4627C44.8298 68.9885 48.025 70.834 48.025 70.834C48.025 70.834 47.2008 72.421 44.0846 71.791C40.9684 71.161 38.3829 69.2136 35.5264 72.252C32.9973 74.953 34.1038 79.567 40.6071 81.121C47.1105 82.674 54.2461 81.672 59.3156 79.725C67.8851 76.416 76.647 61.8533 65.3899 47.1665C57.543 36.9139 48.7589 37.3303 49.3912 30.0714" stroke="#3F474D" stroke-width="2" stroke-miterlimit="10" stroke-linecap="round" stroke-linejoin="round"/>
<path d="M36.4297 55.8435L39.9185 57.9255" stroke="#3F474D" stroke-width="2" stroke-miterlimit="10" stroke-linecap="round" stroke-linejoin="round"/>
<path d="M34.2734 62.6299L37.1751 64.3518" stroke="#3F474D" stroke-width="2" stroke-miterlimit="10" stroke-linecap="round" stroke-linejoin="round"/>
<path d="M14.2549 50.3065L18.0824 51.0605" stroke="#3F474D" stroke-width="2" stroke-miterlimit="10" stroke-linecap="round" stroke-linejoin="round"/>
<path d="M16.5584 59.006L12.7422 58.252" stroke="#3F474D" stroke-width="2" stroke-miterlimit="10" stroke-linecap="round" stroke-linejoin="round"/>
<path d="M53.7495 36.5088C53.7495 36.5088 57.5657 36.4638 59.327 30.7353C61.2577 24.4555 60.1173 19.965 59.0334 15.3058C58.2318 11.8845 64.4755 5.89718 69.8952 8.82328C76.3872 12.3234 75.4272 22.1821 74.6142 28.1131C73.5752 35.7322 68.7546 49.1585 58.9205 55.0445" stroke="#3F474D" stroke-width="2" stroke-miterlimit="10" stroke-linecap="round" stroke-linejoin="round"/>
<path d="M66.4509 45.8723C66.5977 45.681 61.0879 42.3723 61.0879 42.3723" stroke="#3F474D" stroke-width="2" stroke-miterlimit="10" stroke-linecap="round" stroke-linejoin="round"/>
<path d="M72.9088 33.9091L65.0508 32.5811" stroke="#3F474D" stroke-width="2" stroke-miterlimit="10" stroke-linecap="round" stroke-linejoin="round"/>
<path d="M74.174 22.7111L68.3818 22.3059" stroke="#3F474D" stroke-width="2" stroke-miterlimit="10" stroke-linecap="round" stroke-linejoin="round"/>
<path d="M44.5025 2.07076C44.5025 2.07076 43.7573 4.42286 43.6218 6.54996C43.4863 8.69946 43.9492 10.669 44.3105 10.669C44.9315 10.669 45.4509 8.04676 46.4444 5.73966C47.438 3.44376 48.68 1.46306 48.68 1.46306L46.8396 1.35046L44.5025 2.07076Z" fill="#3F474D"/>
<path d="M19.9451 2.07076C19.9451 2.07076 20.6903 4.42286 20.8258 6.54996C20.9613 8.69946 20.4983 10.669 20.137 10.669C19.5161 10.669 18.9967 8.04676 18.0031 5.73966C17.0096 3.44376 16.0273 1.90196 16.0273 1.90196L17.5967 1.35046L19.9451 2.07076Z" fill="#3F474D"/>
<path d="M31.8455 22.2609C32.9991 22.2609 33.9343 21.4446 33.9343 20.4377C33.9343 19.4308 32.9991 18.6145 31.8455 18.6145C30.6919 18.6145 29.7568 19.4308 29.7568 20.4377C29.7568 21.4446 30.6919 22.2609 31.8455 22.2609Z" fill="white"/>
<path d="M22.181 23.9039C22.181 24.5791 20.9052 25.1306 19.3471 25.1306C17.7777 25.1306 16.5132 24.5791 16.5132 23.9039C16.5132 23.2286 17.789 22.6771 19.3471 22.6771C20.9165 22.6771 22.181 23.2286 22.181 23.9039Z" fill="#CE616A"/>
<path d="M47.1894 23.9039C47.1894 24.5791 45.9136 25.1306 44.3555 25.1306C42.7861 25.1306 41.5215 24.5791 41.5215 23.9039C41.5215 23.2286 42.7974 22.6771 44.3555 22.6771C45.9248 22.6771 47.1894 23.2286 47.1894 23.9039Z" fill="#CE616A"/>
<path d="M34.9619 24.0052C34.036 24.0052 33.1893 23.4762 32.7828 22.6659L33.4151 22.1482C34.0135 21.6643 33.6635 20.6964 32.8957 20.6964H30.8069C30.0392 20.6964 29.6892 21.6643 30.2876 22.1482L30.9198 22.6659C30.5021 23.4875 29.6666 24.0052 28.7408 24.0052C28.3795 24.0052 28.0972 24.2978 28.0972 24.6467C28.0972 24.9956 28.3908 25.2882 28.7408 25.2882C30.0053 25.2882 31.157 24.6579 31.8457 23.645C32.5344 24.6579 33.6973 25.2882 34.9506 25.2882C35.3119 25.2882 35.5941 24.9956 35.5941 24.6467C35.5941 24.2978 35.3119 24.0052 34.9619 24.0052Z" fill="#3F474D"/>
<path d="M44.8974 20.4939L44.9539 20.5051C45.0329 20.5164 45.112 20.5164 45.191 20.4939C45.4507 20.4151 45.5862 20.145 45.5071 19.8861C45.3265 19.3234 44.9313 18.8282 44.4232 18.4793C43.9152 18.1192 43.2942 17.8941 42.6619 17.8266C42.0184 17.7591 41.3522 17.8491 40.7425 18.0967C40.1328 18.3443 39.5796 18.7494 39.207 19.2671C38.9473 19.6385 38.8796 20.1337 39.0941 20.5726C39.3989 21.2254 40.178 21.4955 40.8216 21.1916L41.0361 21.0903C41.3296 20.9553 41.5667 20.8202 41.8377 20.7189C42.0974 20.6064 42.3684 20.5164 42.6732 20.4488C42.9781 20.3813 43.2942 20.3475 43.6555 20.3475C44.0168 20.3475 44.412 20.3926 44.8974 20.4939Z" fill="#3F474D"/>
<path d="M22.9487 18.108C22.339 17.8604 21.6729 17.7816 21.0293 17.8604C20.397 17.9392 19.7873 18.1643 19.2906 18.5131C18.7938 18.862 18.3873 19.3347 18.1841 19.8749C18.1502 19.9649 18.1389 20.0662 18.1728 20.1675C18.2405 20.4151 18.5002 20.5614 18.7486 20.4939L18.7938 20.4826C19.2567 20.3588 19.6519 20.2913 20.0244 20.2913C20.397 20.2913 20.7245 20.3251 21.0293 20.4038C21.3341 20.4826 21.6051 20.5839 21.8648 20.7077C22.1245 20.8315 22.3616 20.9553 22.6551 21.1016L22.8697 21.2029C23.2761 21.3942 23.7842 21.3717 24.1794 21.0904C24.7665 20.6739 24.902 19.8636 24.4842 19.2784C24.1116 18.7495 23.5584 18.3556 22.9487 18.108Z" fill="#3F474D"/>
<path d="M55.2509 45.9397H1.58691V82.3919H55.2509V45.9397Z" fill="#AE64D1" stroke="#3F474D" stroke-width="2" stroke-miterlimit="10" stroke-linecap="round" stroke-linejoin="round"/>
<path d="M55.251 45.9397L79.435 32.5471V68.8646L55.251 82.3919V45.9397Z" fill="#C078E2" stroke="#3F474D" stroke-width="2" stroke-miterlimit="10" stroke-linecap="round" stroke-linejoin="round"/>
<path d="M19.5049 43.2725C18.8162 45.6471 24.2018 59.2535 27.6002 59.0847C31.01 58.9159 31.2358 47.1777 30.8858 43.2725C30.7164 41.348 30.66 44.2854 28.0857 44.1278C25.4324 43.959 20.2388 40.7628 19.5049 43.2725Z" fill="#E8E8E8"/>
<path d="M45.4733 43.2726C46.1733 45.6472 40.7764 59.2536 37.378 59.0848C33.9682 58.916 33.7424 47.189 34.0924 43.2726C34.4311 39.3673 44.0281 38.3432 45.4733 43.2726Z" fill="#E8E8E8"/>
<path d="M19.5049 43.2726C18.8162 45.6472 24.2018 59.2536 27.6002 59.0848C31.01 58.916 31.2358 47.1778 30.8858 43.2726" stroke="#3F474D" stroke-width="2" stroke-miterlimit="10" stroke-linecap="round" stroke-linejoin="round"/>
<path d="M45.4733 43.2726C46.1733 45.6472 40.7764 59.2536 37.378 59.0848C33.9682 58.916 33.7424 47.1891 34.0924 43.2726" stroke="#3F474D" stroke-width="2" stroke-miterlimit="10" stroke-linecap="round" stroke-linejoin="round"/>
</svg>
