<svg width="88" height="77" viewBox="0 0 88 77" fill="none" xmlns="http://www.w3.org/2000/svg">
<path d="M40.0785 71.9946C40.0785 71.9946 53.2189 79.0126 61.5587 73.1356C69.8985 67.2586 72.09 59.7678 72.09 59.7678C72.09 59.7678 80.526 54.8274 83.317 45.6247C86.108 36.4221 88.834 21.644 82.879 18.6841C76.923 15.7241 75.212 17.8015 74.068 19.1684C72.924 20.5246 72.165 23.2369 72.165 23.2369C72.165 23.2369 76.217 31.331 71.599 38.2949C66.9796 45.2588 67.4286 43.2783 67.4286 43.2783C67.4286 43.2783 61.6549 37.3046 60.4361 36.9279C59.2065 36.562 53.2296 32.332 51.7969 29.3936C50.3642 26.4552 56.1592 25.465 56.1806 15.0353C56.1913 4.60564 51.1126 1.26904 51.1126 1.26904L45.2962 4.67024C45.2962 4.67024 42.4949 6.25244 36.1438 5.99414C31.1827 5.78964 28.0606 4.73484 28.0606 4.73484C26.7883 2.44224 22.9178 1.58114 22.9178 1.58114C22.9178 1.58114 18.3523 4.07824 17.2189 13.8405C15.9038 25.2066 24.5644 33.3222 24.5644 33.3222C24.5644 33.3222 24.0832 33.9788 22.3939 39.4573C20.7045 44.9359 18.1705 55.7207 18.2988 60.7687C18.3951 64.4926 20.3517 67.8076 23.6021 65.6556C26.8524 63.5026 30.0387 46.6903 33.257 47.8527C36.4753 49.0152 30.8406 67.5386 34.3048 69.2716C35.2029 69.7236 38.1753 66.1076 38.3357 67.2696C38.5709 68.9276 40.0785 71.9946 40.0785 71.9946V71.9946Z" fill="#DDDDDD"/>
<path d="M84.76 41.7285C81.264 54.4184 73.138 58.304 73.138 58.304L69.909 47.0886C69.909 47.0886 66.0171 45.9907 69.0537 41.9114C70.604 39.8341 72.903 48.1649 78.602 43.2891C86.524 36.5082 85.113 20.9982 85.113 20.9982C85.113 20.9982 87.412 32.1275 84.76 41.7285Z" fill="#BBBBBB"/>
<path d="M41.7143 59.7678C39.1696 67.7437 36.4111 70.3047 34.3047 69.2507C33.5456 68.8737 33.2462 65.3757 33.1714 63.7503C33.1714 63.7503 34.957 66.0317 36.935 64.2347C38.9344 62.4587 41.7143 59.7678 41.7143 59.7678V59.7678Z" fill="#FAA75E"/>
<path d="M18.4059 58.2825C18.331 59.2081 18.2883 60.0369 18.3097 60.7581C18.4059 64.4817 20.3625 67.7977 23.6129 65.6447C25.5268 64.3857 27.4193 58.0457 29.301 53.2775C29.301 53.2775 24.1689 62.2972 21.6456 61.5976C19.1223 60.898 18.4059 58.2825 18.4059 58.2825Z" fill="#FAA75E"/>
<path d="M42.3984 73.6527C37.2556 71.4887 39.7468 64.1162 42.7834 63.1367C42.7834 63.1367 38.6562 71.5427 51.9036 71.6397C64.0177 71.7257 69.4492 61.0056 71.7158 60.758C73.3518 60.5858 67.0221 70.2517 65.8033 71.2847C62.6277 73.9647 49.3376 76.5697 42.3984 73.6527V73.6527Z" fill="#BBBBBB"/>
<path d="M43.9811 54.1924C43.9811 54.1924 45.4459 55.6993 46.6968 55.7101C47.9371 55.7101 50.995 53.213 50.995 53.213C50.995 53.213 47.6164 56.6034 48.5679 59.7786C49.5195 62.943 50.995 65.3867 50.995 65.3867C50.995 65.3867 47.9692 65.9997 46.5258 65.5587C45.0717 65.1177 40.8269 65.5797 40.8269 65.5797L39.854 64.6327L43.9811 54.1924Z" fill="#BBBBBB"/>
<path d="M21.4849 9.85815C21.4849 9.85815 21.6773 10.8807 22.2974 10.9345C22.2119 10.504 22.6289 9.44915 22.9604 9.35225C22.8962 9.83665 23.3453 9.90125 23.7409 10.2134C23.9012 9.83665 24.1792 9.57835 24.4145 9.44915C24.3717 8.90025 24.3182 8.38355 24.2541 7.86695C24.1685 7.26415 24.0723 6.67225 23.944 6.10175C23.8157 5.53125 23.6446 4.98235 23.4522 4.47645C23.388 4.28275 23.3132 4.11055 23.2277 3.93835C21.8912 5.52055 20.8433 7.79155 20.1804 10.5901C20.0735 11.0529 19.9773 11.6234 19.9131 12.2692C20.5119 10.6439 21.4849 9.85815 21.4849 9.85815V9.85815Z" fill="#F7A1A1"/>
<path d="M53.4753 6.09106C52.9727 4.79946 52.374 3.71236 51.7218 2.86206C51.5935 3.04506 51.4758 3.24956 51.3582 3.48636C51.0802 4.02456 50.845 4.64876 50.6205 5.30536C50.4066 5.96196 50.2142 6.65076 50.0004 7.35036C49.8934 7.70556 49.7758 8.04996 49.6582 8.41596C49.562 8.70656 49.4551 8.99716 49.3374 9.28776C49.5085 9.38466 49.7544 9.59996 50.0004 9.84746C50.3211 10.1704 50.6312 10.5687 50.7702 10.8593C51.2513 10.5041 51.4438 9.90126 51.3475 9.13706C51.8501 9.11556 52.3312 10.4287 52.235 10.9239C52.9941 10.87 53.657 9.97666 53.657 9.97666C53.657 9.97666 54.2451 10.4718 54.8225 11.462C54.5552 9.54616 54.1061 7.70556 53.4859 6.11256C53.4753 6.10186 53.4753 6.10186 53.4753 6.09106V6.09106Z" fill="#F7A1A1"/>
<path d="M50.5672 1.79651L51.9893 3.00201C51.9893 3.00201 50.3427 6.24171 50.0112 7.35031C49.6798 8.42671 49.3376 9.28771 49.3376 9.28771C49.3376 9.28771 47.659 10.9345 47.6804 9.19091C47.6911 7.44721 50.5672 1.79651 50.5672 1.79651Z" fill="#DC5867"/>
<path d="M23.9011 1L22.3721 2.0548C22.3721 2.0548 23.7407 5.639 23.9759 6.7368C24.2111 7.8347 24.3715 9.4384 24.3715 9.4384C24.3715 9.4384 26.2319 10.6762 26.3495 9.4061C26.4992 7.6732 23.9011 1 23.9011 1Z" fill="#DC5867"/>
<path d="M37.2877 32.1814C43.9916 32.9025 37.0632 40.5016 34.7858 39.8127C33.0323 39.2745 30.5839 31.4495 37.2877 32.1814Z" fill="white"/>
<path d="M51.1126 1.26904L45.2962 4.67024C45.2962 4.67024 42.4949 6.25244 36.1438 5.99414C31.1827 5.78964 28.0606 4.73484 28.0606 4.73484C26.7883 2.44224 22.9178 1.58114 22.9178 1.58114C22.9178 1.58114 18.3523 4.07824 17.2189 13.8405C15.9038 25.2066 24.5644 33.3222 24.5644 33.3222C24.5644 33.3222 17.9674 20.3739 19.6246 13.6899C21.592 5.75734 24.0298 3.93834 24.0298 3.93834C24.0298 3.93834 27.355 12.818 37.5445 12.3014C47.7339 11.7847 50.439 3.44324 50.439 3.44324C52.3101 5.32674 53.6787 7.29644 54.6624 9.79354C54.6624 9.79354 54.6089 6.03714 53.0693 3.70154C52.1284 2.26994 51.1126 1.26904 51.1126 1.26904V1.26904Z" fill="white"/>
<path d="M52.7165 29.0815L48.8032 29.9963C48.8032 29.9963 49.4447 33.7527 53.3366 36.5512C57.2285 39.3497 62.7028 39.4143 61.4198 38.5963C60.1368 37.7782 55.475 34.4631 54.7266 33.2899C53.9782 32.1167 52.7165 29.0815 52.7165 29.0815V29.0815Z" fill="white"/>
<path d="M79.5848 17.2958C79.1148 17.468 73.3838 18.5874 72.8708 20.6001C72.3578 22.6129 72.7638 24.7117 72.7638 24.7117C72.7638 24.7117 73.3628 35.5827 73.2878 36.573C73.2018 37.5632 76.3888 34.0651 75.9928 24.1413C75.7578 18.8565 81.6488 16.5208 79.5848 17.2958Z" fill="white"/>
<path d="M47.7659 47.8421C47.7659 47.8421 44.2696 51.803 41.7249 59.7678C39.1802 67.7327 36.4217 70.3047 34.3154 69.2507C30.8512 67.5177 36.4752 48.9937 33.2676 47.8313C30.0599 46.6688 26.8737 63.492 23.6127 65.6337C20.3623 67.7867 18.4057 64.4717 18.3094 60.7473C18.1811 55.6993 20.8862 46.023 21.8164 40.3615C22.7038 34.9045 23.463 32.1168 23.463 32.1168C23.463 32.1168 15.9144 25.1852 17.2295 13.8299C18.3522 4.07828 22.9177 1.58118 22.9177 1.58118C22.9177 1.58118 26.7775 2.44228 28.0605 4.73478C29.3436 7.02738 29.6323 8.79258 29.6323 8.79258" stroke="#3D474E" stroke-width="2" stroke-miterlimit="10" stroke-linecap="round" stroke-linejoin="round"/>
<path d="M49.1559 31.2018C49.1559 31.2018 56.7366 26.2184 56.1699 15.046C55.5925 3.86294 51.1126 1.26904 51.1126 1.26904C51.1126 1.26904 47.8408 1.68874 45.371 5.08994C44.259 6.62914 43.5747 8.80334 43.5747 8.80334" stroke="#3D474E" stroke-width="2" stroke-miterlimit="10" stroke-linecap="round" stroke-linejoin="round"/>
<path d="M28.0605 4.74551C28.0605 4.74551 31.1826 5.80031 36.1437 6.00481C42.4841 6.26321 45.2961 4.68091 45.2961 4.68091" stroke="#3D474E" stroke-width="2" stroke-miterlimit="10" stroke-linecap="round" stroke-linejoin="round"/>
<path d="M54.1493 51.3508C54.1493 51.3508 48.5466 53.2129 48.4825 58.2609C48.4183 63.3089 51.3158 64.9986 51.3158 64.9986C51.3158 64.9986 50.5781 66.4516 47.7447 65.8706C44.9113 65.2896 42.5806 63.5134 40.0038 66.3016C37.7157 68.7656 38.7206 72.9956 44.6013 74.4166C50.4819 75.8376 56.9505 74.9226 61.5481 73.1356C69.2998 70.1226 77.2333 56.7971 67.0439 43.3644C59.9337 33.9896 51.9787 34.377 52.5561 27.7361" stroke="#3D474E" stroke-width="2" stroke-miterlimit="10" stroke-linecap="round" stroke-linejoin="round"/>
<path d="M40.8164 51.3079L43.9812 53.213" stroke="#3D474E" stroke-width="2" stroke-miterlimit="10" stroke-linecap="round" stroke-linejoin="round"/>
<path d="M38.8701 57.5182L41.5004 59.0897" stroke="#3D474E" stroke-width="2" stroke-miterlimit="10" stroke-linecap="round" stroke-linejoin="round"/>
<path d="M20.7476 46.2383L24.2118 46.9272" stroke="#3D474E" stroke-width="2" stroke-miterlimit="10" stroke-linecap="round" stroke-linejoin="round"/>
<path d="M22.8324 54.1924L19.3682 53.5035" stroke="#3D474E" stroke-width="2" stroke-miterlimit="10" stroke-linecap="round" stroke-linejoin="round"/>
<path d="M67.4072 42.8262C67.4072 42.8262 70.8607 42.7832 72.454 37.5522C74.197 31.8153 73.17 27.7037 72.187 23.4414C71.459 20.3093 77.116 14.8415 82.023 17.5108C87.904 20.7075 87.027 29.7272 86.3 35.152C85.359 42.1158 80.997 54.3968 72.09 59.7785" stroke="#3D474E" stroke-width="2" stroke-miterlimit="10" stroke-linecap="round" stroke-linejoin="round"/>
<path d="M78.9229 51.4046C79.0509 51.2217 74.0679 48.2079 74.0679 48.2079" stroke="#3D474E" stroke-width="2" stroke-miterlimit="10" stroke-linecap="round" stroke-linejoin="round"/>
<path d="M84.7599 40.4584L77.6499 39.2421" stroke="#3D474E" stroke-width="2" stroke-miterlimit="10" stroke-linecap="round" stroke-linejoin="round"/>
<path d="M86.9308 30.2117L80.6548 29.8457" stroke="#3D474E" stroke-width="2" stroke-miterlimit="10" stroke-linecap="round" stroke-linejoin="round"/>
<path d="M48.1294 2.14093C48.1294 2.14093 47.4559 4.29363 47.3275 6.23103C47.1992 8.20073 47.6269 9.99823 47.9477 9.99823C48.5144 9.99823 48.9848 7.59793 49.8722 5.48833C50.7704 3.38953 51.9037 1.58123 51.9037 1.58123L50.2358 1.47363L48.1294 2.14093Z" fill="#3D474E"/>
<path d="M25.8901 2.14085C25.8901 2.14085 26.5637 4.29355 26.692 6.23095C26.8203 8.20065 26.3927 9.99805 26.0719 9.99805C25.5052 9.99805 25.0348 7.59785 24.1473 5.48825C23.2492 3.38935 22.3511 1.99015 22.3511 1.99015L23.7731 1.48425L25.8901 2.14085Z" fill="#3D474E"/>
<path d="M36.6781 20.6C37.7233 20.6 38.5706 19.8531 38.5706 18.9317C38.5706 18.0103 37.7233 17.2634 36.6781 17.2634C35.6329 17.2634 34.7856 18.0103 34.7856 18.9317C34.7856 19.8531 35.6329 20.6 36.6781 20.6Z" fill="white"/>
<path d="M27.9213 22.1069C27.9213 22.7312 26.7665 23.2371 25.3552 23.2371C23.9332 23.2371 22.7891 22.7312 22.7891 22.1069C22.7891 21.4826 23.9438 20.9768 25.3552 20.9768C26.7665 20.9768 27.9213 21.4826 27.9213 22.1069Z" fill="#DC5867"/>
<path d="M50.5672 22.1069C50.5672 22.7312 49.4125 23.2371 48.0011 23.2371C46.5791 23.2371 45.4351 22.7312 45.4351 22.1069C45.4351 21.4826 46.5898 20.9768 48.0011 20.9768C49.4125 20.9768 50.5672 21.4826 50.5672 22.1069Z" fill="#DC5867"/>
<path d="M39.4903 22.193C38.6564 22.193 37.8865 21.7086 37.5123 20.966L38.0897 20.4924C38.635 20.0511 38.3142 19.1577 37.6192 19.1577H35.7374C35.0425 19.1577 34.7217 20.0403 35.267 20.4924L35.8444 20.966C35.4594 21.7194 34.711 22.193 33.8663 22.193C33.5456 22.193 33.2783 22.4621 33.2783 22.785C33.2783 23.1079 33.5456 23.377 33.8663 23.377C35.0104 23.377 36.0582 22.8065 36.6783 21.8701C37.2985 22.7957 38.357 23.377 39.4903 23.377C39.8111 23.377 40.0784 23.1079 40.0784 22.785C40.0784 22.4621 39.8111 22.193 39.4903 22.193Z" fill="#3D474E"/>
<path d="M48.4929 18.9748L48.5463 18.9855C48.6212 18.9963 48.6853 18.9963 48.7602 18.9748C48.9954 18.8994 49.1237 18.6519 49.0488 18.4258C48.8885 17.9092 48.5249 17.4679 48.0652 17.1342C47.6054 16.8006 47.0494 16.5961 46.4721 16.5422C45.8947 16.4777 45.2853 16.5638 44.7293 16.7898C44.184 17.0158 43.6815 17.3818 43.3393 17.8661C43.1041 18.1998 43.0399 18.6626 43.2324 19.0609C43.5104 19.6528 44.2161 19.9112 44.8041 19.6313L44.9966 19.5345C45.2639 19.4053 45.4777 19.2869 45.7236 19.19C45.9589 19.0932 46.2048 18.9963 46.4721 18.9425C46.7394 18.8887 47.0387 18.8564 47.3595 18.8456C47.691 18.8456 48.0545 18.8887 48.4929 18.9748Z" fill="#3D474E"/>
<path d="M28.6167 16.8006C28.0607 16.5745 27.4619 16.5099 26.8846 16.5745C26.3072 16.6499 25.7619 16.8544 25.3021 17.1773C24.8531 17.5002 24.4895 17.9307 24.3078 18.4151C24.2757 18.5012 24.2757 18.5873 24.2971 18.6734C24.3612 18.8994 24.5965 19.0393 24.821 18.9748L24.8638 18.964C25.2808 18.8456 25.6443 18.7918 25.9757 18.781C26.3072 18.781 26.6173 18.8133 26.8846 18.8886C27.1625 18.964 27.4085 19.0609 27.6437 19.1685C27.8789 19.2761 28.0928 19.3945 28.3601 19.5237L28.5525 19.6206C28.9267 19.7928 29.3758 19.7712 29.7393 19.5129C30.2739 19.1362 30.3915 18.3935 30.0173 17.8554C29.6752 17.3818 29.1726 17.0158 28.6167 16.8006V16.8006Z" fill="#3D474E"/>
<path d="M34.509 69.3278H5.1267C2.8443 69.3278 1 67.4828 1 65.2008V46.3195C1 44.0371 2.8443 42.1927 5.1267 42.1927H34.509C36.7914 42.1927 38.6357 44.0371 38.6357 46.3195V65.2117C38.6357 67.4827 36.7914 69.3278 34.509 69.3278Z" fill="#AE64D1"/>
<path opacity="0.26" d="M1.73096 43.0225L12.3884 42.5225C12.3884 42.5225 6.95936 55.1145 14.8093 62.9528C22.6592 70.7917 30.6128 73.0047 30.6128 73.0047H1.23096L1.73096 43.0225Z" fill="#853CA8"/>
<path d="M19.8236 61.316C22.8921 61.316 25.3796 58.8285 25.3796 55.76C25.3796 52.6915 22.8921 50.204 19.8236 50.204C16.7551 50.204 14.2676 52.6915 14.2676 55.76C14.2676 58.8285 16.7551 61.316 19.8236 61.316Z" fill="#A45AC7"/>
<path d="M34.509 69.3278H5.1267C2.8443 69.3278 1 67.4828 1 65.2008V46.3195C1 44.0371 2.8443 42.1927 5.1267 42.1927H34.509C36.7914 42.1927 38.6357 44.0371 38.6357 46.3195V65.2117C38.6357 67.4827 36.7914 69.3278 34.509 69.3278Z" stroke="#3F474D" stroke-width="2" stroke-miterlimit="10" stroke-linecap="round" stroke-linejoin="round"/>
<path d="M37.068 74.5257H2.5677C1.7031 74.5257 1 73.8227 1 72.9587V70.5837C1 69.7197 1.7031 69.0157 2.5677 69.0157H37.068C37.9326 69.0157 38.6357 69.7197 38.6357 70.5837V72.9587C38.6357 73.8227 37.9326 74.5257 37.068 74.5257Z" fill="#AE64D1" stroke="#3F474D" stroke-width="2" stroke-miterlimit="10" stroke-linecap="round" stroke-linejoin="round"/>
<path d="M6.46387 69.0277V74.5257" stroke="#3F474D" stroke-width="2" stroke-miterlimit="10" stroke-linecap="round" stroke-linejoin="round"/>
<path d="M33.2412 69.0277V74.5257" stroke="#3F474D" stroke-width="2" stroke-miterlimit="10" stroke-linecap="round" stroke-linejoin="round"/>
</svg>
