<svg width="216" height="80" viewBox="0 0 216 80" fill="none" xmlns="http://www.w3.org/2000/svg">
<path d="M3.06245 53.2355C3.0405 53.2355 2.79901 53.2026 2.338 53.1367C2.14042 53.1148 1.98675 53.1038 1.87698 53.1038C1.35011 53.1038 0.900075 52.9282 0.526873 52.577C0.175624 52.2038 0 51.7538 0 51.227C0 50.7002 0.175624 50.2612 0.526873 49.91C0.900075 49.5368 1.35011 49.3503 1.87698 49.3503C2.11847 49.3503 2.41483 49.3722 2.76608 49.4161C2.78804 49.4161 2.87585 49.4271 3.02952 49.449C3.18319 49.449 3.30393 49.46 3.39174 49.482C3.56737 49.5039 3.69909 49.5039 3.7869 49.482C4.02838 49.1088 4.22596 48.6478 4.37963 48.0991C4.68697 47.0015 4.89553 45.4979 5.00529 43.5882C5.18092 41.2614 5.16994 38.6603 4.97236 35.7847C4.95041 35.5433 4.85162 34.7531 4.676 33.4141C4.61014 32.8214 4.56623 32.3934 4.54428 32.13C4.52233 31.9104 4.51135 31.7348 4.51135 31.6031C4.4894 31.4934 4.4894 31.3836 4.51135 31.2739C4.51135 31.1641 4.52233 31.0544 4.54428 30.9446C4.63209 30.5715 4.81869 30.2532 5.10408 29.9898C5.25775 29.8581 5.4224 29.7483 5.59802 29.6605C5.77365 29.5727 5.90537 29.5288 5.99318 29.5288L6.15783 29.4959C6.24564 29.4739 6.36638 29.4629 6.52005 29.4629C6.69568 29.441 6.92618 29.43 7.21157 29.43C7.65063 29.4081 8.23239 29.4081 8.95684 29.43C10.0984 29.452 10.9655 29.4739 11.5583 29.4959C11.8217 29.4959 12.2388 29.5178 12.8096 29.5617L14.1597 29.6605H14.2256C14.2475 29.6605 14.2695 29.6605 14.2914 29.6605C14.3353 29.6386 14.4122 29.6166 14.5219 29.5947C14.6317 29.5727 14.7634 29.5508 14.9171 29.5288C15.8611 29.3971 16.6514 29.5617 17.288 30.0227C18.3637 30.8129 18.9674 32.0751 19.0991 33.8092C19.143 34.2921 19.154 34.8518 19.1321 35.4884C19.1321 35.5982 19.1211 35.7847 19.0991 36.0481C19.0772 36.3116 19.0662 36.5091 19.0662 36.6408V44.1479C19.0662 47.221 18.9784 49.6246 18.8028 51.3587C18.7589 51.8636 18.5393 52.2916 18.1442 52.6429C17.749 52.9721 17.288 53.1148 16.7611 53.0709C16.2562 53.027 15.8281 52.8075 15.4769 52.4124C15.1476 52.0173 15.0049 51.5563 15.0488 51.0295C15.2025 49.4051 15.2903 47.1113 15.3122 44.1479V36.575C15.3122 36.4433 15.3122 36.2238 15.3122 35.9164C15.3342 35.6091 15.3561 35.4116 15.3781 35.3238C15.4001 34.8409 15.3891 34.4348 15.3452 34.1055C15.3232 33.7763 15.2793 33.5128 15.2135 33.3153C14.7085 33.4031 14.3134 33.436 14.028 33.4141C13.7206 33.4141 13.2706 33.3921 12.6779 33.3482L11.3607 33.2494C10.8119 33.2275 9.99961 33.2055 8.92391 33.1836H8.4629C8.61657 34.4348 8.70438 35.214 8.72633 35.5213C8.92391 38.6383 8.93489 41.4041 8.75926 43.8187C8.62754 45.9698 8.37508 47.7259 8.00188 49.0868C7.4311 51.1722 6.50908 52.4672 5.2358 52.9721C4.62111 53.2136 3.89666 53.3014 3.06245 53.2355Z" fill="#9A49BF"/>
<path d="M31.1313 52.8075C30.0117 53.1587 28.9689 53.2245 28.003 53.005C27.0371 52.7636 26.1699 52.3355 25.4016 51.7209C24.6551 51.1063 24.0405 50.3929 23.5575 49.5807C23.0965 48.7466 22.8111 47.9015 22.7013 47.0454C22.4818 45.4211 22.5696 43.8187 22.9648 42.2382C23.3819 40.6358 24.0844 39.2639 25.0723 38.1225C26.1699 36.8054 27.52 35.9713 29.1226 35.6201C30.7252 35.2469 32.5363 35.4445 34.556 36.2128C35.2365 36.4762 35.961 36.9371 36.7293 37.5957C36.8171 37.7054 36.9488 37.8371 37.1245 37.9908L37.6513 38.4517C37.805 38.5834 37.9587 38.7042 38.1124 38.8139C38.5514 39.1432 38.8039 39.5932 38.8697 40.1639C38.9575 40.7127 38.8368 41.2066 38.5075 41.6456C38.2441 41.9748 37.9038 42.2053 37.4867 42.337L37.5196 42.3699C37.6952 42.7651 37.794 43.2809 37.816 43.9175C37.8379 44.1809 37.8379 44.4333 37.816 44.6748C37.816 44.8943 37.816 45.026 37.816 45.0699C37.816 45.1138 37.827 45.1906 37.8489 45.3004C38.0026 45.9808 38.1672 46.7601 38.3429 47.6381C38.3868 47.9015 38.4197 48.0661 38.4417 48.132C38.4856 48.1978 38.5404 48.2637 38.6063 48.3295L40.0223 49.7124C40.4394 50.1295 40.637 50.6234 40.615 51.1941C40.615 51.7429 40.4065 52.2148 39.9893 52.6099C39.5942 53.005 39.1222 53.1916 38.5734 53.1697C38.0245 53.1697 37.5526 52.9721 37.1574 52.577L35.7744 51.227C35.2914 50.7441 34.9511 50.3051 34.7535 49.91L34.7206 49.8112C34.6987 49.8551 34.6108 49.9758 34.4572 50.1734L34.095 50.6344L33.6339 51.1283C33.4583 51.3258 33.2827 51.5014 33.1071 51.6551L32.5143 52.0831C32.2948 52.2368 32.0643 52.3794 31.8228 52.5111C31.6033 52.6209 31.3728 52.7197 31.1313 52.8075ZM29.8141 48.9881C29.9019 48.9661 29.9897 48.9332 30.0775 48.8893C30.1654 48.8234 30.2422 48.7686 30.3081 48.7247C30.3739 48.6588 30.4617 48.56 30.5715 48.4283C30.6813 48.2966 30.78 48.1869 30.8679 48.0991C30.9557 48.0113 31.0984 47.8576 31.2959 47.6381L31.724 47.0784C31.8777 46.9028 32.0863 46.4967 32.3497 45.8601C32.3716 45.7942 32.3826 45.7174 32.3826 45.6296C32.4046 45.5418 32.4155 45.3882 32.4155 45.1686C32.4375 44.9272 32.4704 44.6638 32.5143 44.3784C32.668 42.8638 33.2827 41.8431 34.3584 41.3163C34.4462 41.2724 34.534 41.2395 34.6218 41.2175L34.095 40.6907C33.6559 40.3176 33.2937 40.0761 33.0083 39.9663C30.9447 39.1103 29.3311 39.3737 28.1676 40.7566C27.5749 41.4151 27.1468 42.2712 26.8834 43.3248C26.6199 44.3565 26.5651 45.4321 26.7187 46.5515C26.8285 47.3637 27.2236 48.0222 27.9042 48.5271C28.5847 49.032 29.2214 49.1856 29.8141 48.9881Z" fill="#9A49BF"/>
<path d="M42.9548 51.0953C42.9328 50.2612 42.9109 49.1527 42.8889 47.7698C42.867 46.3869 42.856 45.476 42.856 45.0369C42.8121 42.5346 42.7023 40.4493 42.5267 38.781C42.5048 38.4737 42.5377 38.1883 42.6255 37.9249C42.6036 37.8152 42.5926 37.7054 42.5926 37.5957C42.5706 37.025 42.7572 36.542 43.1524 36.1469C43.5475 35.7299 44.0305 35.5213 44.6013 35.5213C44.6671 35.5213 45.2818 35.4994 46.4453 35.4555C47.6088 35.4116 48.6187 35.3787 49.4749 35.3567C50.7481 35.3348 51.7909 35.3348 52.6032 35.3567C53.1081 35.3567 53.5252 35.3787 53.8545 35.4226C54.3814 35.4665 54.7985 35.5433 55.1058 35.653C56.3352 36.1579 57.2682 37.2664 57.9048 38.9786C58.0365 39.2859 58.1134 39.7249 58.1353 40.2956C58.1573 40.6688 58.1683 41.1517 58.1683 41.7443C58.1683 42.6663 58.1463 43.8955 58.1024 45.4321C58.0804 46.1564 58.0475 46.9247 58.0036 47.7369C57.9597 48.5491 57.9158 49.2515 57.8719 49.8441C57.8499 50.4368 57.839 50.8429 57.839 51.0624C57.839 51.6112 57.6304 52.0941 57.2133 52.5111C56.8181 52.9063 56.3352 53.0928 55.7644 53.0709C55.2156 53.0709 54.7326 52.8733 54.3155 52.4782C53.9203 52.0612 53.7337 51.5673 53.7557 50.9965C53.7557 50.799 53.7667 50.3929 53.7886 49.7783C53.8106 49.1637 53.8435 48.4393 53.8874 47.6052C53.9313 46.771 53.9642 45.9918 53.9862 45.2674C54.0301 43.7748 54.0521 42.6004 54.0521 41.7443V40.5261C54.0301 40.4383 54.0191 40.3615 54.0191 40.2956C53.8655 39.9224 53.7228 39.659 53.591 39.5054H53.4923C53.2508 39.4834 52.9215 39.4615 52.5044 39.4395C51.758 39.4395 50.7701 39.4505 49.5407 39.4725C48.7504 39.4944 47.8064 39.5164 46.7088 39.5383C46.8405 41.0749 46.9283 42.8858 46.9722 44.9711C46.9722 45.4321 46.9722 46.343 46.9722 47.704C46.9942 49.0649 47.0161 50.1515 47.0381 50.9636C47.06 51.5343 46.8734 52.0282 46.4783 52.4453C46.1051 52.8624 45.6331 53.0709 45.0623 53.0709C44.4915 53.0928 43.9976 52.9172 43.5805 52.5441C43.1634 52.149 42.9548 51.666 42.9548 51.0953Z" fill="#9A49BF"/>
<path d="M74.1676 52.3465C71.9504 49.9758 70.1063 47.7808 68.6355 45.7613L66.2975 47.9015C66.3853 48.8454 66.4951 49.7893 66.6268 50.7331C66.6926 51.3039 66.5609 51.8197 66.2316 52.2807C65.9023 52.7197 65.4523 52.9721 64.8815 53.038C64.3107 53.1258 63.7948 53.005 63.3338 52.6758C62.8948 52.3465 62.6313 51.8965 62.5435 51.3258C61.9947 47.4186 61.83 42.798 62.0496 37.464C62.0715 36.8932 62.2911 36.4213 62.7082 36.0481C63.1253 35.653 63.6192 35.4774 64.19 35.5213C64.7608 35.5433 65.2328 35.7628 65.606 36.1799C66.0011 36.5969 66.1767 37.0908 66.1328 37.6615C66.067 39.4395 66.034 41.0749 66.034 42.5675L73.2456 35.9823C73.6847 35.5872 74.1786 35.4116 74.7275 35.4555C75.2982 35.4774 75.7702 35.7079 76.1434 36.1469C76.5386 36.564 76.7142 37.0579 76.6703 37.6286C76.6483 38.1774 76.4288 38.6383 76.0117 39.0115L71.6979 42.9626C73.1249 45.004 74.9799 47.2101 77.263 49.5807C77.6362 50.0197 77.8009 50.5246 77.757 51.0953C77.735 51.6441 77.5045 52.116 77.0655 52.5111C76.6483 52.8843 76.1544 53.0489 75.5836 53.005C75.0348 52.9831 74.5628 52.7636 74.1676 52.3465Z" fill="#9A49BF"/>
<path d="M80.787 52.7087C80.0845 52.2258 79.7881 51.5673 79.8979 50.7331V50.5356C79.6564 45.9698 79.7113 41.5578 80.0625 37.2993C80.1065 36.7286 80.337 36.2677 80.7541 35.9164C81.1931 35.5433 81.6981 35.3787 82.2688 35.4226C82.8396 35.4665 83.3006 35.7079 83.6519 36.1469C84.0251 36.564 84.1897 37.0579 84.1458 37.6286C83.9482 40.1968 83.8494 42.6553 83.8494 45.004L85.3642 43.0614C87.4278 40.3615 88.9865 38.1335 90.0402 36.3774C90.3915 35.8067 90.8854 35.4774 91.522 35.3896C91.7635 35.3018 92.005 35.2579 92.2465 35.2579C92.8173 35.236 93.3112 35.4226 93.7283 35.8177C94.1454 36.1908 94.354 36.6628 94.354 37.2335C94.3979 38.6383 94.4089 40.9102 94.3869 44.0492C94.365 46.9247 94.3869 49.2076 94.4528 50.8978C94.4747 51.4685 94.2881 51.9624 93.893 52.3794C93.5198 52.7965 93.0478 53.016 92.477 53.038C91.9282 53.0599 91.4452 52.8843 91.0281 52.5111C90.611 52.116 90.3915 51.6441 90.3695 51.0953C90.3036 49.449 90.2817 46.8698 90.3036 43.3577L88.6242 45.5638C85.5289 49.6466 83.8604 51.8526 83.6189 52.1819C83.3116 52.6648 82.8725 52.9502 82.3018 53.038C81.7529 53.1477 81.248 53.038 80.787 52.7087Z" fill="#9A49BF"/>
<path d="M138.953 53.5072C138.316 53.4633 137.591 53.2548 136.779 52.8816L136.022 52.5194C135.78 52.4097 135.594 52.3219 135.462 52.256C134.979 52.0804 134.628 51.7621 134.408 51.3012C134.189 50.8182 134.167 50.3353 134.342 49.8524C134.54 49.3695 134.869 49.0183 135.33 48.7988C135.813 48.5793 136.296 48.5683 136.779 48.7659C137.043 48.8537 137.339 48.9744 137.668 49.128L138.36 49.4902C138.733 49.6439 139.018 49.7317 139.216 49.7536L139.249 49.7207H139.315L139.414 49.6549C139.457 49.6329 139.501 49.611 139.545 49.589C139.589 49.5451 139.644 49.5012 139.71 49.4573C139.776 49.4134 139.842 49.3695 139.908 49.3256C139.973 49.2597 140.05 49.1939 140.138 49.128L140.369 48.8646C140.742 48.4695 141.214 47.8659 141.785 47.0537C139.392 43.1684 136.9 38.1198 134.309 31.9077C134.068 31.4248 134.024 30.9419 134.178 30.459C134.353 29.9541 134.672 29.5919 135.133 29.3724C135.616 29.131 136.099 29.0981 136.582 29.2737C137.087 29.4273 137.449 29.7346 137.668 30.1956C140.127 36.1003 142.278 40.5892 144.123 43.6623C147.108 38.899 149.051 34.5638 149.951 30.6566C150.061 30.1517 150.335 29.7566 150.774 29.4712C151.213 29.1859 151.685 29.0981 152.19 29.2078C152.695 29.3176 153.09 29.5919 153.376 30.031C153.661 30.47 153.749 30.9419 153.639 31.4468C153.024 34.1248 151.949 37.0113 150.412 40.1063C148.853 43.2672 147.108 46.1647 145.176 48.7988C144.21 50.1158 143.519 50.9938 143.102 51.4329C141.719 52.9036 140.336 53.595 138.953 53.5072Z" fill="#A1BB37"/>
<path d="M159.563 52.8487C159.409 52.8706 159.255 52.8597 159.102 52.8158C158.663 52.7938 158.267 52.6401 157.916 52.3548C157.565 52.0475 157.334 51.6743 157.225 51.2353C156.873 49.6549 156.61 47.9756 156.434 46.1976C156.259 44.3977 156.149 42.8721 156.105 41.6209C156.083 40.3478 156.072 38.921 156.072 37.3405C156.072 36.7698 156.27 36.2869 156.665 35.8918C157.06 35.4967 157.543 35.2991 158.114 35.2991C158.684 35.2991 159.167 35.4967 159.563 35.8918C159.958 36.2869 160.155 36.7698 160.155 37.3405C160.155 42.1258 160.408 45.9123 160.913 48.7C162.296 48.6561 163.789 48.6232 165.391 48.6012C165.391 48.1622 165.369 47.2074 165.325 45.7367C165.281 44.266 165.248 43.1904 165.226 42.5099C165.226 41.8075 165.237 40.8856 165.259 39.7441C165.259 39.1734 165.281 38.3612 165.325 37.3076C165.347 36.7369 165.567 36.2649 165.984 35.8918C166.401 35.4967 166.895 35.3211 167.466 35.365C168.036 35.3869 168.508 35.6064 168.882 36.0235C169.277 36.4406 169.452 36.9344 169.409 37.5052C169.365 38.449 169.332 39.36 169.31 40.238C169.31 41.116 169.321 41.9172 169.343 42.6416C169.365 43.344 169.387 44.3757 169.409 45.7367C169.452 47.0976 169.485 48.0525 169.507 48.6012C170.232 48.5793 171.725 48.5793 173.986 48.6012C174.315 44.8696 174.447 41.127 174.381 37.3735C174.359 36.8027 174.546 36.3198 174.941 35.9247C175.336 35.5077 175.819 35.2991 176.39 35.2991C176.96 35.2772 177.443 35.4637 177.839 35.8589C178.256 36.254 178.464 36.7369 178.464 37.3076C178.574 41.8733 178.387 46.3403 177.904 50.7085C177.817 51.4768 177.421 52.0255 176.719 52.3548C176.368 52.5743 175.983 52.684 175.566 52.684C167.685 52.684 162.351 52.7389 159.563 52.8487Z" fill="#A1BB37"/>
<path d="M194.465 52.0914C192.248 49.7207 190.404 47.5256 188.933 45.5062L186.595 47.6464C186.683 48.5903 186.793 49.5341 186.925 50.478C186.99 51.0487 186.859 51.5646 186.529 52.0255C186.2 52.4645 185.75 52.717 185.179 52.7828C184.608 52.8706 184.093 52.7499 183.632 52.4206C183.192 52.0914 182.929 51.6414 182.841 51.0707C182.292 47.1635 182.128 42.5428 182.347 37.2088C182.369 36.6381 182.589 36.1662 183.006 35.793C183.423 35.3979 183.917 35.2223 184.488 35.2662C185.058 35.2881 185.53 35.5077 185.904 35.9247C186.299 36.3418 186.474 36.8357 186.431 37.4064C186.365 39.1844 186.332 40.8197 186.332 42.3124L193.543 35.7272C193.982 35.332 194.476 35.1564 195.025 35.2003C195.596 35.2223 196.068 35.4528 196.441 35.8918C196.836 36.3089 197.012 36.8027 196.968 37.3735C196.946 37.9222 196.727 38.3832 196.309 38.7563L191.996 42.7075C193.423 44.7489 195.278 46.9549 197.561 49.3256C197.934 49.7646 198.099 50.2695 198.055 50.8402C198.033 51.389 197.802 51.8609 197.363 52.256C196.946 52.6292 196.452 52.7938 195.881 52.7499C195.333 52.7279 194.861 52.5084 194.465 52.0914Z" fill="#A1BB37"/>
<path d="M201.085 52.4536C200.382 51.9707 200.086 51.3121 200.196 50.478V50.2805C199.954 45.7147 200.009 41.3026 200.36 37.0442C200.404 36.4735 200.635 36.0125 201.052 35.6613C201.491 35.2881 201.996 35.1235 202.567 35.1674C203.137 35.2113 203.598 35.4528 203.95 35.8918C204.323 36.3089 204.487 36.8027 204.444 37.3735C204.246 39.9417 204.147 42.4002 204.147 44.7489L205.662 42.8062C207.726 40.1063 209.284 37.8783 210.338 36.1223C210.689 35.5516 211.183 35.2223 211.82 35.1345C212.061 35.0467 212.303 35.0028 212.544 35.0028C213.115 34.9808 213.609 35.1674 214.026 35.5625C214.443 35.9357 214.652 36.4076 214.652 36.9783C214.696 38.3832 214.707 40.6551 214.685 43.794C214.663 46.6696 214.685 48.9524 214.75 50.6426C214.772 51.2134 214.586 51.7072 214.191 52.1243C213.817 52.5414 213.346 52.7609 212.775 52.7828C212.226 52.8048 211.743 52.6292 211.326 52.256C210.909 51.8609 210.689 51.389 210.667 50.8402C210.601 49.1939 210.579 46.6147 210.601 43.1026L208.922 45.3086C205.827 49.3914 204.158 51.5975 203.917 51.9268C203.609 52.4097 203.17 52.695 202.599 52.7828C202.051 52.8926 201.546 52.7828 201.085 52.4536Z" fill="#A1BB37"/>
<path d="M122.56 53.8395C122.187 53.8395 121.814 53.6859 121.441 53.3786L120.255 52.3249C119.07 51.3152 118.203 50.536 117.654 49.9872C115.634 47.9897 114.108 46.4092 113.077 45.2459C112.045 44.0605 111.068 42.7764 110.146 41.3935C108.807 39.3521 108.137 37.5521 108.137 35.9937C108.137 35.0278 108.401 34.1059 108.928 33.2279C109.476 32.3498 110.212 31.6474 111.134 31.1206C112.056 30.5718 113.066 30.2975 114.163 30.2975C115.634 30.2975 116.787 30.6706 117.621 31.4169C118.455 32.1633 118.872 33.1071 118.872 34.2486C118.872 35.3681 118.521 36.4107 117.819 37.3765C117.116 38.3204 116.007 39.3521 114.493 40.4716C113.461 41.2179 112.802 41.7118 112.517 41.9533C111.266 42.9191 110.376 43.7861 109.85 44.5544C109.323 45.3007 109.059 46.1568 109.059 47.1226C109.059 48.1324 109.378 48.9555 110.014 49.5921C110.673 50.2067 111.54 50.514 112.616 50.514C114.613 50.514 116.282 49.5372 117.621 47.5836C118.148 46.7934 118.653 45.6849 119.136 44.2581C119.333 43.7532 119.564 43.38 119.827 43.1386C120.113 42.8971 120.453 42.7764 120.848 42.7764C121.331 42.7764 121.704 42.9301 121.968 43.2374C122.253 43.5447 122.396 43.9288 122.396 44.3898C122.396 45.0703 122.154 45.9593 121.671 47.0568C121.21 48.1324 120.65 49.0872 119.992 49.9213C119.114 51.0408 118.016 51.9518 116.699 52.6542C115.404 53.3347 114.032 53.6749 112.583 53.6749C111.244 53.6749 110.058 53.4005 109.026 52.8518C107.973 52.303 107.149 51.5457 106.557 50.5799C105.986 49.614 105.7 48.5275 105.7 47.3202C105.7 45.7617 106.118 44.3678 106.952 43.1386C107.786 41.8874 109.092 40.6472 110.87 39.418C112.363 38.4082 113.505 37.5412 114.295 36.8168C115.173 36.0485 115.612 35.3242 115.612 34.6437C115.612 34.2925 115.481 34.0071 115.217 33.7876C114.954 33.5462 114.537 33.4254 113.966 33.4254C113.307 33.4254 112.714 33.6888 112.188 34.2156C111.683 34.7205 111.43 35.3132 111.43 35.9937C111.43 36.5863 111.529 37.1351 111.727 37.64C111.924 38.1448 112.264 38.8253 112.747 39.6814C113.186 40.4716 114.087 41.6569 115.448 43.2374C116.831 44.7959 118.214 46.1897 119.597 47.419C120.475 48.2092 121.858 49.4055 123.746 51.0079C124.097 51.2933 124.273 51.6774 124.273 52.1603C124.273 52.5993 124.097 52.9944 123.746 53.3457C123.417 53.6749 123.021 53.8395 122.56 53.8395Z" fill="#9F9F9F"/>
<path d="M26.2994 29.0945C26.2183 31.6231 27.6041 32.7518 28.7042 32.8329C29.8043 32.9139 30.7191 30.7539 30.6237 29.1235C30.5333 27.5793 29.2857 25.709 28.4189 25.8327C27.7188 25.9327 26.3806 26.5659 26.2994 29.0945Z" fill="#9A49BF"/>
<path d="M21.4448 32.7028C21.1335 30.8456 21.2757 29.6003 22.6475 29.1955C24.0964 29.0495 25.3427 30.237 25.6735 32.2064C25.8984 33.5453 25.2749 34.9971 24.0506 35.2004C22.8851 35.2656 22.2679 35.047 21.4448 32.7028Z" fill="#9A49BF"/>
<path d="M36.5176 26.4257C35.0143 25.6394 33.103 27.3161 32.5933 28.9341C32.1385 30.378 31.9969 32.312 33.3268 32.5317C34.6566 32.7513 36.4445 31.5503 36.9444 29.9752C37.1301 29.3899 37.8129 27.1033 36.5176 26.4257Z" fill="#9A49BF"/>
<path d="M40.8168 31.1893C39.5176 30.5693 38.2128 31.5821 37.2735 32.5794C36.18 33.7402 36.5675 36.2362 37.8066 36.551C39.0456 36.8657 40.1721 36.0782 40.9784 34.9417C41.8296 33.7421 42.0255 31.7661 40.8168 31.1893Z" fill="#9A49BF"/>
<path fill-rule="evenodd" clip-rule="evenodd" d="M162.945 1.36644C162.313 1.46761 161.77 1.87051 161.49 2.44601C158.348 8.90276 156.649 12.7763 156.344 19.2888C156.294 20.3717 157.13 21.2907 158.213 21.3415C159.297 21.3922 160.216 20.5554 160.266 19.4724C160.494 14.6119 161.548 11.5154 163.794 6.72247C166.488 9.63837 168.124 11.8262 170.31 15.3866C170.877 16.3105 172.086 16.5996 173.01 16.0323C173.934 15.465 174.223 14.2562 173.656 13.3323C170.813 8.70355 168.778 6.17834 164.664 1.93787C164.218 1.47852 163.577 1.26527 162.945 1.36644Z" fill="#A1BB37"/>
<path fill-rule="evenodd" clip-rule="evenodd" d="M206.914 1.34238C207.547 1.44143 208.091 1.84249 208.373 2.41705C211.536 8.86319 213.248 12.731 213.575 19.2424C213.629 20.3252 212.796 21.247 211.713 21.3014C210.63 21.3557 209.708 20.522 209.653 19.4393C209.41 14.5796 208.345 11.4866 206.083 6.70123C203.398 9.62619 201.771 11.8195 199.596 15.3873C199.032 16.313 197.824 16.6062 196.898 16.042C195.972 15.4778 195.679 14.27 196.243 13.3442C199.07 8.70592 201.097 6.17388 205.197 1.91959C205.641 1.45875 206.282 1.24334 206.914 1.34238Z" fill="#A1BB37"/>
<path fill-rule="evenodd" clip-rule="evenodd" d="M184.469 19.908C174.356 19.9155 164.765 23.4873 158.566 30.3968C157.842 31.2037 156.6 31.271 155.793 30.5471C154.986 29.8231 154.919 28.582 155.643 27.7751C162.744 19.8613 173.498 15.9902 184.467 15.9821C195.444 15.9739 206.842 19.8286 215.364 27.6389C216.163 28.3715 216.217 29.6132 215.484 30.4124C214.751 31.2115 213.51 31.2655 212.71 30.5329C204.991 23.4575 194.573 19.9005 184.469 19.908Z" fill="#A1BB37"/>
<path d="M48.2809 62.3943C48.3389 64.9235 49.7846 65.9744 50.8875 65.9949C51.9903 66.0154 52.785 63.8084 52.6001 62.1856C52.4249 60.6488 51.0764 58.8498 50.2178 59.021C49.5243 59.1592 48.2229 59.865 48.2809 62.3943Z" fill="#9A49BF"/>
<path d="M43.6319 66.2639C43.219 64.4267 43.2925 63.1753 44.6399 62.6959C46.0786 62.4705 47.3883 63.5877 47.8268 65.5359C48.125 66.8605 47.5823 68.3444 46.371 68.6146C45.2109 68.7437 44.5827 68.5594 43.6319 66.2639Z" fill="#9A49BF"/>
<path d="M58.3369 59.1681C56.7927 58.4655 54.9765 60.2447 54.5565 61.8883C54.1817 63.355 54.1467 65.2939 55.4866 65.4401C56.8265 65.5864 58.5456 64.289 58.9581 62.6888C59.1114 62.0941 59.6675 59.7735 58.3369 59.1681Z" fill="#9A49BF"/>
<path d="M62.8915 63.6881C61.5602 63.1405 60.3131 64.2235 59.43 65.2709C58.4021 66.49 58.9262 68.961 60.1807 69.2072C61.4351 69.4534 62.5166 68.6052 63.2592 67.4261C64.0431 66.1815 64.1301 64.1977 62.8915 63.6881Z" fill="#9A49BF"/>
<path d="M58.8204 75.8142C58.9312 72.9249 56.6144 67.0232 53.2206 67.4114C50.7808 67.6904 48.163 70.8539 47.9031 71.6709C47.6433 72.488 46.9676 72.4947 47.0031 73.8417C47.0387 75.1888 48.3846 75.9798 49.3678 76.0216C50.5562 76.072 52.6066 75.136 52.6441 75.5731L55.4091 76.5694C57.3951 76.9364 58.8049 76.2185 58.8204 75.8142Z" fill="#9A49BF"/>
</svg>
