<svg width="6" height="10" viewBox="0 0 6 10" fill="none" xmlns="http://www.w3.org/2000/svg">
<path d="M1.10403 1.73506C1.02799 1.64414 0.991085 1.52678 1.00139 1.4087C1.0117 1.29062 1.06839 1.18144 1.15903 1.10506C1.20383 1.06735 1.25564 1.03884 1.31148 1.02119C1.36733 1.00353 1.42611 0.997075 1.48445 1.00219C1.54279 1.00729 1.59955 1.02387 1.65148 1.05096C1.7034 1.07806 1.74947 1.11513 1.78703 1.16006L5.00003 5.00006L1.78703 8.84006C1.74947 8.885 1.7034 8.92207 1.65148 8.94916C1.59955 8.97626 1.54279 8.99283 1.48445 8.99794C1.42611 9.00305 1.36733 8.9966 1.31148 8.97894C1.25564 8.96129 1.20383 8.93278 1.15903 8.89506C1.06839 8.81869 1.0117 8.70951 1.00139 8.59142C0.991085 8.47334 1.02799 8.35599 1.10403 8.26506L3.83603 5.00006L1.10403 1.73506Z" stroke="#9949BF"/>
</svg>
