<svg fill="none" height="140" viewBox="0 0 137 140" width="137" xmlns="http://www.w3.org/2000/svg" xmlns:xlink="http://www.w3.org/1999/xlink"><clipPath id="a"><path d="m0 0h137v140h-137z"/></clipPath><g clip-path="url(#a)"><path clip-rule="evenodd" d="m68.5 140c37.832 0 68.5-30.668 68.5-68.5 0-37.8315-30.668-68.5-68.5-68.5-37.8315 0-68.5 30.6685-68.5 68.5 0 37.832 30.6685 68.5 68.5 68.5z" fill="#f0e0c7" fill-rule="evenodd"/><path clip-rule="evenodd" d="m22 44c12.1503 0 22-9.8497 22-22 0-12.15026-9.8497-22-22-22-12.15026 0-22 9.84974-22 22 0 12.1503 9.84974 22 22 22z" fill="#dc5867" fill-rule="evenodd" stroke="#fff" stroke-width="4"/><path d="m21.016 28v-2.688h2.928v-1.344h-7.464v-2.52l5.736-8.472 2.352 1.32-4.992 7.152h4.368v-4.56h3.072v4.56h1.752v2.52h-1.752v1.344h1.656v2.688z" fill="#fff"/><path d="m32.5645 75.9398 24.1843-13.3926v36.3175l-24.1843 13.5273z" style="fill:#ce616a;stroke:#3f474d;stroke-width:2;stroke-miterlimit:10;stroke-linecap:round;stroke-linejoin:round"/><path d="m110.153 62.4009h-53.664v36.4525h53.664z" style="fill:#ce616a;stroke:#3f474d;stroke-width:2;stroke-miterlimit:10;stroke-linecap:round;stroke-linejoin:round"/><path d="m66.6054 108.465s14.5083 7.675 23.7214 1.249-.1806-24.8946-.1806-24.8946 9.3147-5.402 12.3968-15.4633c3.083-10.0613 6.097-26.2224-.485-29.4636-6.5827-3.2412-8.4682-.9566-9.7327.5289-1.2646 1.4856-2.1114 4.4454-2.1114 4.4454s4.4711 8.8571-.6322 16.465c-5.1034 7.6079-4.6066 5.4471-4.6066 5.4471s-3.8726-1.6769-5.4533-4.8844c-1.5807-3.2074 4.821-4.2879 4.8436-15.6996.0339-11.4118-5.5775-15.0695-5.5775-15.0695l-6.4243 3.7252s-3.0936 1.7331-10.1051 1.4518c-5.4872-.2251-8.9308-1.373-8.9308-1.373-1.4113-2.5097-5.6792-3.4551-5.6792-3.4551s-5.0355 2.7235-6.2775 13.3925c-1.4452 12.4247 7.0679 21.0005 7.0679 21.0005s-.1355.8778-1.3549 7.0001c-1.2194 6.1561-4.6743 17.7817-4.5275 23.3075.1129 4.0741 2.2694 7.6981 5.8598 5.3461 3.5904-2.3525 7.1018-20.7419 10.6583-19.4702 3.5565 1.2718-2.6646 21.5292 1.1629 23.4202.9936.484 4.2791-3.466 4.4485-2.183.2484 1.823 1.9194 5.177 1.9194 5.177z" fill="#ffd886"/><path d="m104.666 65.5296c-3.862 13.8765-12.8375 18.1193-12.8375 18.1193l-3.5679-12.2671s-4.3017-1.2042-.9484-5.6609c1.7049-2.2733 4.2566 6.8314 10.5454 1.4968 8.7504-7.4165 7.1924-24.3766 7.1924-24.3766s2.529 12.1883-.384 22.6885z" fill="#efab6b"/><path d="m68.4232 95.0945c-2.8113 8.7225-5.8598 11.5245-8.1743 10.3765-.8355-.417-1.163-4.232-1.2533-6.0099 0 0 1.9646 2.4869 4.1662.529 2.2017-1.9583 5.2614-4.8956 5.2614-4.8956z" fill="#efab6b"/><path d="m42.6694 93.4626c-.0903 1.0129-.1242 1.9245-.1016 2.7123.1129 4.0741 2.2694 7.6981 5.8598 5.3461 2.1113-1.385 4.2001-8.3172 6.2776-13.528 0 0-5.6679 9.87-8.4567 9.1047-2.7887-.7653-3.5791-3.6351-3.5791-3.6351z" fill="#efab6b"/><path d="m54.3665 81.3081c-8.9873-2.3634-8.7163-6.0323-7.2034-11.5469 0 0-3.9517 4.7493 19.1826 4.8506 21.1585.1013 17.5794-6.5049 21.5537-6.7638 2.8452-.1913 5.1485 8.9134 3.0146 10.0388-5.5437 2.9373-24.4441 6.6062-36.5475 3.4213z" fill="#efab6b"/><path d="m70.9184 89.0059s1.6259 1.6544 2.992 1.6544c1.3662 0 4.7421-2.7348 4.7421-2.7348s-3.7372 3.7139-2.6759 7.1802 2.6759 6.1333 2.6759 6.1333-3.3307.676-4.9453.192c-1.6033-.484-6.3001.022-6.3001.022l-1.0726-1.035z" fill="#efab6b"/><path d="m46.0791 40.5227s.2146 1.1142.9033 1.1817c-.0903-.4727.3613-1.6318.7226-1.7331-.0678.5289.429.6077.8693.9453.1694-.4051.4855-.6977.7452-.8328-.0451-.6077-.1016-1.1704-.1806-1.7331-.1016-.664-.2033-1.3168-.35-1.9358-.1468-.619-.3275-1.2267-.542-1.7894-.079-.2026-.158-.3939-.2484-.5852-1.479 1.7331-2.6307 4.2091-3.3758 7.2702-.1242.5065-.2259 1.1254-.2936 1.8345.6661-1.767 1.75-2.6223 1.75-2.6223z" fill="#eba5a3"/><path d="m81.396 36.3924c-.5533-1.4068-1.2194-2.611-1.942-3.5338-.1355.2026-.271.4276-.3952.6752-.3048.5853-.5758 1.2718-.8129 1.992-.2371.7203-.4403 1.4743-.6887 2.2396-.1242.3827-.2371.7766-.3839 1.1592-.1129.3151-.2258.6303-.3613.9566.192.1013.4629.3377.7339.619.35.3601.7.7878.8468 1.1029.5306-.3826.7452-1.0466.6436-1.8794.5532-.0338 1.0951 1.418.9822 1.9582.8355-.0675 1.5694-1.0354 1.5694-1.0354s.6436.5402 1.2871 1.6206c-.2935-2.1045-.7903-4.1078-1.479-5.8522.0113 0 0-.0112 0-.0225z" fill="#eba5a3"/><path d="m78.1896 31.7106 1.5694 1.3168s-1.8178 3.5451-2.1904 4.7493c-.3613 1.1817-.7452 2.1158-.7452 2.1158s-1.8516 1.8006-1.8291-.1013c.0113-1.902 3.1953-8.0806 3.1953-8.0806z" fill="#ce616a"/><path d="m48.7436 30.8328-1.6936 1.148s1.513 3.9277 1.7727 5.1206c.2596 1.193.4403 2.9599.4403 2.9599s2.0549 1.3505 2.1791-.0338c.1693-1.9019-2.6985-9.1947-2.6985-9.1947z" fill="#ce616a"/><path d="m63.523 64.9219c7.4066.7878-.2484 9.1047-2.7662 8.3394-1.9306-.5853-4.6404-9.1272 2.7662-8.3394z" fill="#fff"/><path d="m78.7879 31.1254-6.4243 3.7252s-3.0936 1.7331-10.1051 1.4518c-5.4872-.2251-8.9308-1.373-8.9308-1.373-1.4113-2.5097-5.6791-3.4551-5.6791-3.4551s-5.0356 2.7235-6.2776 13.3926c-1.4452 12.4246 6.0518 18.6257 6.0518 18.6257s-5.2389-11.4906-3.3985-18.7946c2.1791-8.677 4.8662-10.669 4.8662-10.669s3.6695 9.7124 14.9261 9.1385c11.2567-.574 14.2487-9.6899 14.2487-9.6899 2.0662 2.0595 3.5791 4.209 4.663 6.9438 0 0-.0677-4.1078-1.7613-6.6625-1.05-1.5418-2.1791-2.6335-2.1791-2.6335z" fill="#fff"/><path d="m80.5604 61.5344-3.9291 2.3183s-.1129 2.0483 4.6179 4.4004c1.3323.664 4.6517.9341 4.6517.9341-1.4226-.9003-2.292-1.7781-3.1162-3.0499-.8242-1.2829-2.2243-4.6029-2.2243-4.6029z" fill="#fff"/><path d="m98.0835 39.0371c-.5193.1914-6.8533 1.4068-7.4179 3.6126-.5645 2.2059-.1242 4.4905-.1242 4.4905s.6662 11.8845.5759 12.9649c-.0904 1.0804 3.4323-2.7348 2.9807-13.5952-.2371-5.7734 6.266-8.3168 3.9855-7.4728z" fill="#fff"/><g stroke="#3f474d" stroke-linecap="round" stroke-linejoin="round" stroke-miterlimit="10" stroke-width="2"><path d="m75.096 82.0508s-3.8614 4.3329-6.6728 13.0437c-2.8113 8.7105-5.8597 11.5245-8.1743 10.3765-3.8275-1.891 2.3936-22.1484-1.1629-23.4202-3.5566-1.2717-7.0679 17.129-10.6583 19.4702-3.5904 2.341-5.7469-1.272-5.8598-5.3461-.1468-5.5146 2.8452-16.0935 3.8614-22.2834.9822-5.9647 1.8177-9.0146 1.8177-9.0146s-8.3324-7.5741-6.8872-19.9988c1.242-10.669 6.2888-13.4038 6.2888-13.4038s4.2679.9454 5.6792 3.4551c1.4113 2.5096 1.7387 4.4341 1.7387 4.4341"/><path d="m76.6314 63.8527s8.3663-5.4583 7.7454-17.6691c-.621-12.2109-5.5889-15.0582-5.5889-15.0582s-3.6129.4502-6.3453 4.1753c-1.2306 1.6769-1.9758 4.0516-1.9758 4.0516"/><path d="m53.3279 34.9181s3.4436 1.1479 8.9308 1.373c7.0114.2813 10.1051-1.4518 10.1051-1.4518"/><path d="m82.1525 85.8998s-6.1872 2.037-6.2549 7.5629c-.0678 5.5258 3.1274 7.3713 3.1274 7.3713s-.8242 1.587-3.9404.957-5.7017-2.5774-8.5582.461c-2.5291 2.701-1.4226 7.315 5.0807 8.869 6.5034 1.553 13.639.551 18.7085-1.396 8.5695-3.309 17.3314-17.8717 6.0743-32.5585-7.8469-10.2526-16.631-9.8362-15.9987-17.0951"/><path d="m67.4297 85.8435 3.4888 2.082"/><path d="m65.2732 92.6299 2.9017 1.7219"/><path d="m45.2551 80.3065 3.8275.754"/><path d="m47.5584 89.006-3.8162-.754"/><path d="m84.7493 66.5088s3.8162-.045 5.5775-5.7735c1.9307-6.2798.7903-10.7703-.2936-15.4295-.8016-3.4213 5.4421-9.4086 10.8618-6.4825 6.492 3.5001 5.532 13.3588 4.719 19.2898-1.039 7.6191-5.8596 21.0454-15.6937 26.9314"/><path d="m97.4511 75.8723c.1468-.1913-5.363-3.5-5.363-3.5"/><path d="m103.909 63.9091-7.858-1.328"/><path d="m105.174 52.7111-5.7922-.4052"/></g><path d="m75.5025 32.0708s-.7452 2.3521-.8807 4.4792c-.1355 2.1495.3274 4.119.6887 4.119.621 0 1.1404-2.6222 2.1339-4.9293.9936-2.2959 2.2356-4.2766 2.2356-4.2766l-1.8404-.1126z" fill="#3f474d"/><path d="m50.9454 32.0708s.7452 2.3521.8807 4.4792c.1355 2.1495-.3275 4.119-.6888 4.119-.6209 0-1.1403-2.6222-2.1339-4.9293-.9935-2.2959-1.9758-3.8377-1.9758-3.8377l1.5694-.5515z" fill="#3f474d"/><path d="m62.8458 52.2609c1.1536 0 2.0888-.8163 2.0888-1.8232s-.9352-1.8232-2.0888-1.8232-2.0887.8163-2.0887 1.8232.9351 1.8232 2.0887 1.8232z" fill="#fff"/><path d="m53.181 53.904c0 .6752-1.2758 1.2267-2.8339 1.2267-1.5694 0-2.8339-.5515-2.8339-1.2267 0-.6753 1.2758-1.2268 2.8339-1.2268 1.5694 0 2.8339.5515 2.8339 1.2268z" fill="#ce616a"/><path d="m78.1896 53.904c0 .6752-1.2758 1.2267-2.8339 1.2267-1.5694 0-2.834-.5515-2.834-1.2267 0-.6753 1.2759-1.2268 2.834-1.2268 1.5693 0 2.8339.5515 2.8339 1.2268z" fill="#ce616a"/><path d="m65.9621 54.0053c-.9259 0-1.7726-.529-2.1791-1.3393l.6323-.5177c.5984-.4839.2484-1.4518-.5194-1.4518h-2.0888c-.7677 0-1.1177.9679-.5193 1.4518l.6322.5177c-.4177.8216-1.2532 1.3393-2.179 1.3393-.3613 0-.6436.2926-.6436.6415s.2936.6415.6436.6415c1.2645 0 2.4162-.6303 3.1049-1.6432.6887 1.0129 1.8516 1.6432 3.1049 1.6432.3613 0 .6435-.2926.6435-.6415s-.2822-.6415-.6322-.6415z" fill="#3f474d"/><path d="m75.8976 50.494.0565.0112c.079.0113.1581.0113.2371-.0112.2597-.0788.3952-.3489.3161-.6078-.1806-.5627-.5758-1.0579-1.0839-1.4068-.508-.3601-1.129-.5852-1.7613-.6527-.6435-.0675-1.3097.0225-1.9194.2701s-1.1629.6527-1.5355 1.1704c-.2597.3714-.3274.8666-.1129 1.3055.3048.6528 1.0839.9229 1.7275.619l.2145-.1013c.2935-.135.5306-.2701.8016-.3714.2597-.1125.5307-.2025.8355-.2701.3049-.0675.621-.1013.9823-.1013s.7565.0451 1.2419.1464z" fill="#3f474d"/><path d="m53.9487 48.1081c-.6097-.2476-1.2758-.3264-1.9194-.2476-.6323.0788-1.242.3039-1.7387.6527-.4968.3489-.9033.8216-1.1065 1.3618-.0339.09-.0452.1913-.0113.2926.0677.2476.3274.3939.5758.3264l.0452-.0113c.4629-.1238.8581-.1913 1.2306-.1913.3726 0 .7001.0338 1.0049.1125.3048.0788.5758.1801.8355.3039s.4968.2476.7903.3939l.2146.1013c.4064.1913.9145.1688 1.3097-.1125.5871-.4165.7226-1.2268.3048-1.812-.3726-.5289-.9258-.9228-1.5355-1.1704z" fill="#3f474d"/><path d="m86.2509 75.9398h-53.664v36.4522h53.664z" style="fill:#eba5a3;stroke:#3f474d;stroke-width:2;stroke-miterlimit:10;stroke-linecap:round;stroke-linejoin:round"/><path d="m86.251 75.9398 24.184-13.3926v36.3175l-24.184 13.5273z" style="fill:#f3cccd;stroke:#3f474d;stroke-width:2;stroke-miterlimit:10;stroke-linecap:round;stroke-linejoin:round"/><path d="m50.5052 73.2726c-.6887 2.3746 4.6969 15.981 8.0953 15.8122 3.4098-.1688 3.6356-11.907 3.2856-15.8122-.1694-1.9245-.2258 1.0129-2.8001.8553-2.6533-.1688-7.8469-3.365-8.5808-.8553z" fill="#fad991"/><path d="m76.4735 73.2726c.7 2.3746-4.6969 15.981-8.0953 15.8122-3.4098-.1688-3.6356-11.8958-3.2856-15.8122.3387-3.9053 9.9357-4.9294 11.3809 0z" fill="#fad991"/><path d="m50.5052 73.2726c-.6887 2.3746 4.6969 15.981 8.0953 15.8122 3.4098-.1688 3.6356-11.907 3.2856-15.8122" stroke="#3f474d" stroke-linecap="round" stroke-linejoin="round" stroke-miterlimit="10" stroke-width="2"/><path d="m76.4735 73.2726c.7 2.3746-4.6969 15.981-8.0953 15.8122-3.4098-.1688-3.6356-11.8957-3.2856-15.8122" stroke="#3f474d" stroke-linecap="round" stroke-linejoin="round" stroke-miterlimit="10" stroke-width="2"/></g></svg>